<svg viewBox="0 0 512.00087 512" xmlns="http://www.w3.org/2000/svg"><path d="m132.789062 245.363281c-14.527343 21.859375-105.921874 120.933594-127.785156 106.40625-21.859375-14.527343 34.097656-137.15625 48.625-159.015625s44.023438-27.804687 65.886719-13.277344c21.859375 14.53125 27.800781 44.027344 13.273437 65.886719zm0 0" fill="#59c1bc"/><path d="m266.636719 379.210938c-21.859375 14.527343-120.933594 105.925781-106.40625 127.785156 14.527343 21.859375 137.160156-34.09375 159.019531-48.625 21.859375-14.527344 27.800781-44.023438 13.273438-65.886719-14.527344-21.859375-44.027344-27.800781-65.886719-13.273437zm0 0" fill="#66d3d0"/><path d="m512 53.6875c-.050781-29.660156-24.027344-53.6367188-53.6875-53.6875-62.6875-.105469-170.074219 12.554688-242.09375 90.765625-64.527344 70.078125-119.859375 141.828125-153.679688 187.828125-20.679687 28.128906-17.691406 67.148438 6.996094 91.835938l72.035156 72.035156c24.6875 24.6875 63.707032 27.675781 91.839844 6.996094 45.996094-33.820313 117.746094-89.152344 187.820313-153.679688 78.214843-72.019531 90.875-179.40625 90.769531-242.09375zm0 0" fill="#eaeaea"/><path d="m62.542969 278.589844c-20.683594 28.132812-17.695313 67.148437 6.992187 91.839844l43.894532 43.894531c18.722656-126.386719 116.757812-244.773438 205.292968-260.761719 62.144532-11.226562 141.128906-40.605469 191.511719-58.914062 1.328125-14.945313 1.785156-28.796876 1.765625-40.960938-.050781-29.660156-24.027344-53.6367188-53.683594-53.6875-62.691406-.105469-170.078125 12.554688-242.09375 90.765625-64.527344 70.078125-119.863281 141.828125-153.679687 187.824219zm0 0" fill="#d8d7da"/><path d="m69.535156 370.429688 72.035156 72.035156c24.691407 24.6875 63.707032 27.675781 91.839844 6.992187l-170.867187-170.867187c-20.683594 28.132812-17.695313 67.148437 6.992187 91.839844zm0 0" fill="#ff929f"/><path d="m408.15625 173.417969c0 38.429687-31.148438 69.578125-69.574219 69.578125s-69.578125-31.148438-69.578125-69.578125c0-38.425781 31.152344-69.574219 69.578125-69.574219s69.574219 31.148438 69.574219 69.574219zm0 0" fill="#92d8ff"/><path d="m458.3125 0c-28.398438-.046875-65.96875 2.523438-105.269531 12.621094 17.28125 26.640625 39.507812 54.144531 65.847656 80.488281 26.34375 26.339844 53.847656 48.566406 80.488281 65.851563 10.097656-39.304688 12.667969-76.875 12.621094-105.273438-.050781-29.660156-24.027344-53.6367188-53.6875-53.6875zm0 0" fill="#ff929f"/><path d="m69.535156 370.429688 43.894532 43.894531c3.394531-22.914063 9.390624-45.546875 17.46875-67.375l-68.355469-68.355469c-20.683594 28.128906-17.695313 67.144531 6.992187 91.835938zm0 0" fill="#ff737d"/><path d="m289.382812 124.222656c-13.335937 13.335938-20.128906 30.742188-20.371093 48.21875 16.511719-9.410156 33.28125-15.914062 49.710937-18.878906 24.082032-4.351562 50.722656-11.433594 77.222656-19.539062-2.375-3.449219-5.097656-6.734376-8.167968-9.800782-27.171875-27.171875-71.222656-27.171875-98.394532 0zm0 0" fill="#72cef7"/><path d="m445.34375 117.871094c23.988281-8.265625 46.375-16.492188 64.890625-23.21875 1.324219-14.945313 1.785156-28.800782 1.765625-40.964844-.050781-29.65625-24.03125-53.6367188-53.6875-53.68359375-28.398438-.05078125-65.96875 2.51953175-105.269531 12.62109375 17.28125 26.636719 39.507812 54.144531 65.847656 80.484375 8.71875 8.71875 17.554687 16.976563 26.453125 24.761719zm0 0" fill="#ff737d"/><path d="m255.351562 336.0625c-21.929687 21.929688-150.914062 115.359375-172.84375 93.429688-21.929687-21.929688 71.5-150.914063 93.429688-172.84375 21.929688-21.929688 57.484375-21.929688 79.414062 0 21.929688 21.929687 21.929688 57.484374 0 79.414062zm0 0" fill="#7de2e2"/><path d="m201.3125 310.6875c19.03125-19.03125 48.332031-21.523438 70.074219-7.527344 2.007812-16.539062-3.339844-33.8125-16.035157-46.511718-21.929687-21.929688-57.484374-21.929688-79.414062 0-21.929688 21.929687-115.359375 150.914062-93.429688 172.84375 6.238282 6.238281 21.140626 3.140624 39.777344-4.988282 23.984375-44.980468 65.371094-100.160156 79.027344-113.816406zm0 0" fill="#66d3d0"/></svg>