<svg viewBox="1 -40 511.99998 511" xmlns="http://www.w3.org/2000/svg"><path d="m319.648438 236.101562h-127.296876l-40.734374 132.40625c-9.5625 31.078126 13.675781 62.542969 46.195312 62.542969h116.375c32.515625 0 55.757812-31.464843 46.195312-62.542969zm0 0" fill="#ffeb99"/><path d="m252.027344 236.101562h-59.675782l-40.734374 132.40625c-9.5625 31.078126 13.675781 62.542969 46.195312 62.542969h24.917969zm0 0" fill="#ffde55"/><g fill="#92dd7a"><path d="m149.496094 212.601562c0 28.265626-22.914063 51.179688-51.179688 51.179688s-51.179687-22.914062-51.179687-51.179688c0-28.265624 22.914062-51.179687 51.179687-51.179687s51.179688 22.914063 51.179688 51.179687zm0 0"/><path d="m464.863281 212.601562c0 28.265626-22.914062 51.179688-51.179687 51.179688s-51.179688-22.914062-51.179688-51.179688c0-28.265624 22.914063-51.179687 51.179688-51.179687s51.179687 22.914063 51.179687 51.179687zm0 0"/><path d="m336.191406 213.273438c0 44.285156-35.902344 80.1875-80.191406 80.1875s-80.191406-35.902344-80.191406-80.1875c0-44.289063 35.902344-80.191407 80.191406-80.191407s80.191406 35.902344 80.191406 80.191407zm0 0"/></g><path d="m256 .5c-95.96875 0-173.765625 77.796875-173.765625 173.765625h347.53125c0-95.96875-77.796875-173.765625-173.765625-173.765625zm0 0" fill="#a0f0f2"/><path d="m422.738281 125.191406c-64.726562-15.878906-137.359375-17.320312-166.738281-27.285156-41.757812-14.167969-51.234375-65.144531-53.375-89.054688-69.851562 22.523438-120.390625 88.066407-120.390625 165.414063h347.53125c0-17.046875-2.453125-33.507813-7.027344-49.074219zm0 0" fill="#7de2e2"/><path d="m512 191.671875c0-25.71875-114.613281-46.570313-256-46.570313s-256 20.851563-256 46.570313 114.613281 46.566406 256 46.566406 256-20.847656 256-46.566406zm0 0" fill="#ff737d"/><path d="m339.089844 97.90625c-4.265625 0-7.726563-3.460938-7.726563-7.726562v-12.828126c0-4.265624 3.460938-7.726562 7.726563-7.726562 4.269531 0 7.726562 3.460938 7.726562 7.726562v12.828126c0 4.265624-3.457031 7.726562-7.726562 7.726562zm0 0" fill="#57565c"/><path d="m172.910156 97.90625c-4.269531 0-7.726562-3.460938-7.726562-7.726562v-12.828126c0-4.265624 3.457031-7.726562 7.726562-7.726562 4.265625 0 7.726563 3.460938 7.726563 7.726562v12.828126c0 4.265624-3.460938 7.726562-7.726563 7.726562zm0 0" fill="#57565c"/><path d="m256 105.996094c-10 0-20-3.238282-28.34375-9.710938-3.371094-2.613281-3.984375-7.46875-1.371094-10.839844 2.613282-3.371093 7.46875-3.984374 10.839844-1.371093 11.113281 8.621093 26.636719 8.621093 37.746094 0 3.371094-2.613281 8.226562-2 10.839844 1.371093 2.617187 3.371094 2.003906 8.226563-1.367188 10.839844-8.34375 6.472656-18.34375 9.710938-28.34375 9.710938zm0 0" fill="#57565c"/><path d="m232.910156 145.289062c-130.554687 2.125-232.910156 22.082032-232.910156 46.382813s102.351562 44.253906 232.898438 46.378906c-.65625-.125-50.667969-9.964843-52.261719-46.378906-1.609375-36.652344 52.257812-46.378906 52.273437-46.382813zm0 0" fill="#ed5d5d"/></svg>