<svg viewBox="1 1 511.99998 511.99998" xmlns="http://www.w3.org/2000/svg"><path d="m512 256c0 141.386719-114.613281 256-256 256s-256-114.613281-256-256 114.613281-256 256-256 256 114.613281 256 256zm0 0" fill="#ce9bea"/><path d="m137.722656 256c0-117.527344 79.222656-216.550781 187.160156-246.625-21.910156-6.105469-45.023437-9.375-68.882812-9.375-141.386719 0-256 114.613281-256 256s114.613281 256 256 256c23.859375 0 46.972656-3.269531 68.882812-9.375-107.9375-30.074219-187.160156-129.097656-187.160156-246.625zm0 0" fill="#bd86e0"/><path d="m256 68.242188c0-16.132813-13.199219-29.335938-29.335938-29.335938h-106.367187c-25.035156 15.683594-47.167969 35.5625-65.394531 58.671875h171.761718c16.136719 0 29.335938-13.199219 29.335938-29.335937zm0 0" fill="#a3e5e3"/><path d="m246.429688 46.613281c-5.222657-4.777343-12.171876-7.707031-19.765626-7.707031h-106.367187c-25.035156 15.683594-47.167969 35.5625-65.394531 58.671875h137.726562c15.363282-19.476563 33.492188-36.65625 53.800782-50.964844zm0 0" fill="#82d1cd"/><g fill="#a3e5e3"><path d="m352.019531 345.957031c0 16.132813 13.203125 29.332031 29.335938 29.332031h101.1875c9.683593-18.351562 17.199219-38.015624 22.214843-58.667968h-123.402343c-16.132813 0-29.335938 13.203125-29.335938 29.335937zm0 0"/><path d="m447.078125 147.476562c-16.132813 0-29.332031 13.199219-29.332031 29.332032 0 16.136718 13.199218 29.335937 29.332031 29.335937h60.054687c-4.054687-20.546875-10.574218-40.207031-19.226562-58.667969zm0 0"/><path d="m141.800781 395.9375c0-29.472656-26.601562-29.332031-26.601562-29.332031h-15.921875c-14.285156 0-25.96875-11.6875-25.96875-25.96875s11.683594-25.96875 25.96875-25.96875h94.640625c16.136719 0 29.335937-13.199219 29.335937-29.332031 0-16.136719-13.199218-29.335938-29.335937-29.335938h-193.917969c0 64.902344 24.164062 124.148438 63.96875 169.273438h48.496094c16.132812 0 29.335937-13.199219 29.335937-29.335938zm0 0"/></g><path d="m0 256c0 64.902344 24.164062 124.148438 63.96875 169.273438h48.496094c16.132812 0 29.335937-13.199219 29.335937-29.335938 0-29.472656-26.601562-29.332031-26.601562-29.332031h-15.921875c-14.285156 0-25.96875-11.6875-25.96875-25.96875s11.683594-25.96875 25.96875-25.96875h45.199218c-4.417968-18.839844-6.757812-38.480469-6.757812-58.667969zm0 0" fill="#82d1cd"/><path d="m256 218.585938c-15.988281 0-28.949219-12.960938-28.949219-28.945313v-21.046875c0-4.367188 3.539063-7.902344 7.902344-7.902344h42.09375c4.363281 0 7.902344 3.535156 7.902344 7.902344v21.046875c-.003907 15.984375-12.960938 28.945313-28.949219 28.945313zm0 0" fill="#57565c"/><path d="m190.042969 189.640625c0-13.582031-13.824219-24.589844-30.875-24.589844-17.054688 0-30.878907 11.007813-30.878907 24.589844 0 13.578125 13.824219 24.585937 30.878907 24.585937 17.050781 0 30.875-11.007812 30.875-24.585937zm0 0" fill="#ffd4e2"/><path d="m383.710938 189.640625c0-13.582031-13.824219-24.589844-30.878907-24.589844-17.050781 0-30.875 11.007813-30.875 24.589844 0 13.578125 13.824219 24.585937 30.875 24.585937 17.054688 0 30.878907-11.007812 30.878907-24.585937zm0 0" fill="#ffd4e2"/><path d="m339.089844 176.140625c-4.265625 0-7.726563-3.460937-7.726563-7.726563v-12.828124c0-4.265626 3.460938-7.726563 7.726563-7.726563 4.269531 0 7.726562 3.460937 7.726562 7.726563v12.828124c0 4.265626-3.457031 7.726563-7.726562 7.726563zm0 0" fill="#57565c"/><path d="m172.910156 176.140625c-4.269531 0-7.726562-3.460937-7.726562-7.726563v-12.828124c0-4.265626 3.457031-7.726563 7.726562-7.726563 4.265625 0 7.726563 3.460937 7.726563 7.726563v12.828124c0 4.265626-3.460938 7.726563-7.726563 7.726563zm0 0" fill="#57565c"/><path d="m308.003906 422.175781c0 17.144531-13.898437 31.042969-31.042968 31.042969-17.140626 0-31.039063-13.898438-31.039063-31.042969s13.898437-31.042969 31.039063-31.042969c17.144531 0 31.042968 13.898438 31.042968 31.042969zm0 0" fill="#a3e5e3"/></svg>