<svg viewBox="0 0 512.00027 512.00027" xmlns="http://www.w3.org/2000/svg"><path d="m243.589844 509.566406c-8.324219 4.921875-19.164063 2.136719-24.085938-6.1875l-147.738281-249.957031c-4.921875-8.328125-2.132813-19.164063 6.191406-24.085937 8.324219-4.921876 19.164063-2.132813 24.085938 6.191406l147.738281 249.957031c4.921875 8.324219 2.136719 19.164063-6.191406 24.082031zm0 0" fill="#898890"/><path d="m509.566406 243.589844c4.921875-8.324219 2.136719-19.164063-6.1875-24.085938l-249.957031-147.738281c-8.328125-4.921875-19.164063-2.132813-24.085937 6.191406-4.921876 8.324219-2.132813 19.164063 6.191406 24.085938l249.957031 147.738281c8.324219 4.921875 19.164063 2.136719 24.082031-6.191406zm0 0" fill="#acabb1"/><path d="m229.335938 77.957031c-4.921876 8.324219-2.132813 19.164063 6.191406 24.085938l98.519531 58.230469c.582031-6.132813.882813-12.324219.882813-18.5625 0-7.589844-.449219-15.109376-1.304688-22.539063l-80.203125-47.40625c-8.328125-4.917969-19.164063-2.132813-24.085937 6.191406zm0 0" fill="#898890"/><path d="m102.042969 235.527344c-4.921875-8.324219-15.761719-11.113282-24.085938-6.191406-8.324219 4.921874-11.109375 15.757812-6.191406 24.085937l47.40625 80.203125c7.429687.855469 14.949219 1.304688 22.539063 1.304688 6.238281 0 12.429687-.300782 18.5625-.882813zm0 0" fill="#67676b"/><path d="m283.417969 141.710938c0 78.261718-63.445313 141.707031-141.707031 141.707031-78.265626 0-141.710938-63.445313-141.710938-141.707031 0-78.265626 63.445312-141.710938 141.710938-141.710938 78.261718 0 141.707031 63.445312 141.707031 141.710938zm0 0" fill="#c6c5ca"/><path d="m41.507812 241.914062c55.339844 55.339844 145.066407 55.339844 200.410157 0 18.804687-18.808593 31.21875-41.589843 37.246093-65.636718-68.640624 16.847656-115.753906-12.871094-115.753906-12.871094-106.476562 9.78125-134.550781-65.851562-140.332031-99.261719-36.011719 54.96875-29.871094 129.46875 18.429687 177.769531zm0 0" fill="#acabb1"/><path d="m400.863281 400.863281c-6.835937 6.839844-18.027343 6.839844-24.863281 0l-205.3125-205.308593c-6.839844-6.839844-6.839844-18.03125 0-24.867188 6.835938-6.839844 18.027344-6.839844 24.867188 0l205.308593 205.3125c6.839844 6.835938 6.839844 18.027344 0 24.863281zm0 0" fill="#d8d7da"/><path d="m272.804688 79.105469-193.699219 193.699219c-6.742188 6.738281-17.773438 6.738281-24.515625 0-7.058594-7.0625-7.058594-18.613282 0-25.675782l192.539062-192.539062c7.0625-7.0625 18.613282-7.0625 25.675782 0 6.742187 6.742187 6.742187 17.773437 0 24.515625zm0 0" fill="#d8d7da"/><path d="m97.507812 229.886719s-12.199218-13.472657-.578124-25.09375l-42.339844 42.335937c-7.058594 7.0625-7.058594 18.613282 0 25.675782 6.742187 6.742187 17.773437 6.742187 24.515625 0l42.917969-42.917969c-6.742188 6.742187-17.773438 6.742187-24.515626 0zm0 0" fill="#c6c5ca"/><path d="m136.628906 136.628906c-9.25 9.253906-10.472656 23.832032-2.894531 34.496094l21.046875 29.617188c5.398438 7.597656 16.328125 8.515624 22.917969 1.925781l24.96875-24.96875c6.589843-6.589844 5.671875-17.523438-1.925781-22.917969l-29.617188-21.046875c-10.664062-7.578125-25.242188-6.355469-34.496094 2.894531zm0 0" fill="#eaeaea"/><g fill="#57565c"><path d="m172.085938 54.574219c-3.019532 3.019531-7.910157 3.019531-10.929688 0l-9.070312-9.066407c-3.015626-3.019531-3.015626-7.910156 0-10.929687 3.019531-3.015625 7.910156-3.015625 10.929687 0l9.070313 9.070313c3.015624 3.019531 3.015624 7.910156 0 10.925781zm0 0"/><path d="m54.574219 172.085938c-3.015625 3.015624-7.90625 3.015624-10.925781 0l-9.070313-9.070313c-3.015625-3.019531-3.015625-7.910156 0-10.929687 3.019531-3.015626 7.910156-3.015626 10.929687 0l9.066407 9.070312c3.019531 3.019531 3.019531 7.910156 0 10.929688zm0 0"/><path d="m119.050781 119.050781c-7.070312 7.070313-16.429687 11.855469-26.90625 13.179688-4.234375.535156-8.101562-2.464844-8.636719-6.699219-.535156-4.234375 2.464844-8.097656 6.699219-8.632812 13.953125-1.761719 24.925781-12.738282 26.691407-26.691407.53125-4.230469 4.398437-7.230469 8.632812-6.695312 4.234375.535156 7.230469 4.398437 6.695312 8.632812-1.320312 10.476563-6.105468 19.835938-13.175781 26.90625zm0 0"/></g></svg>