<svg viewBox="-47 0 512 512.00032" xmlns="http://www.w3.org/2000/svg"><g fill="#898890"><path d="m191.101562 512c-9.933593 0-18.058593-8.125-18.058593-18.058594v-183.070312c0-9.933594 8.125-18.058594 18.058593-18.058594 9.933594 0 18.058594 8.128906 18.058594 18.058594v183.070312c0 9.933594-8.125 18.058594-18.058594 18.058594zm0 0"/><path d="m56.082031 510.152344c-8.910156-4.390625-12.605469-15.273438-8.21875-24.183594l80.90625-164.222656c4.386719-8.910156 15.269531-12.605469 24.179688-8.21875 8.910156 4.390625 12.609375 15.273437 8.21875 24.183594l-80.902344 164.222656c-4.390625 8.910156-15.273437 12.605468-24.183594 8.21875zm0 0"/><path d="m326.117188 510.152344c8.910156-4.390625 12.609374-15.273438 8.21875-24.183594l-80.902344-164.222656c-4.390625-8.910156-15.273438-12.605469-24.183594-8.21875-8.910156 4.390625-12.605469 15.273437-8.21875 24.183594l80.90625 164.222656c4.390625 8.910156 15.269531 12.605468 24.179688 8.21875zm0 0"/></g><path d="m191.101562 292.8125c-9.933593 0-18.058593 8.125-18.058593 18.058594v81.0625c11.277343 1.285156 23.351562 1.425781 36.117187-.046875v-81.015625c0-9.933594-8.125-18.058594-18.058594-18.058594zm0 0" fill="#75747a"/><path d="m152.949219 313.527344c-8.910157-4.386719-19.792969-.691406-24.183594 8.222656l-23.167969 47.027344c9.058594 5.390625 20.066406 10.871094 32.753906 15.25l22.816407-46.316406c4.390625-8.910157.691406-19.792969-8.21875-24.183594zm0 0" fill="#75747a"/><path d="m253.433594 321.75c-4.390625-8.910156-15.269532-12.609375-24.179688-8.222656-8.910156 4.390625-12.609375 15.273437-8.21875 24.183594l22.84375 46.375c10.691406-3.574219 21.738282-8.355469 33.09375-14.5625zm0 0" fill="#75747a"/><path d="m244.242188 347.105469h-106.28125c-12 0-21.726563-9.726563-21.726563-21.726563v-20.476562c0-12 9.726563-21.726563 21.726563-21.726563h106.28125c12 0 21.726562 9.726563 21.726562 21.726563v20.476562c0 12-9.726562 21.726563-21.726562 21.726563zm0 0" fill="#acabb1"/><path d="m55.78125 86.535156 30.617188-13.414062 25.785156 58.851562-30.617188 13.417969zm0 0" fill="#c6c5ca"/><path d="m200 324.824219c-13.144531 5.757812-28.613281-.285157-34.371094-13.429688l-26.683594-60.898437c-5.757812-13.144532.285157-28.613282 13.429688-34.375 13.144531-5.757813 28.613281.285156 34.371094 13.429687l26.683594 60.898438c5.761718 13.148437-.28125 28.613281-13.429688 34.375zm0 0" fill="#c6c5ca"/><path d="m199.070312 266.691406-41.175781 18.039063c-9.710937 4.253906-21.03125-.167969-25.285156-9.878907l-14.101563-32.183593 76.34375-33.445313 14.097657 32.179688c4.257812 9.710937-.167969 21.035156-9.878907 25.289062zm0 0" fill="#eaeaea"/><path d="m182.832031 214.484375-64.324219 28.183594 14.101563 32.183593c4.253906 9.710938 15.574219 14.132813 25.285156 9.878907l23.695313-10.378907c-10.464844-26.515624-4.867188-47.429687 1.242187-59.867187zm0 0" fill="#d8d7da"/><path d="m291.492188 185.582031-192.941407 84.53125c-35.441406 15.53125-77.140625-.765625-92.667969-36.207031l-.003906-.003906c-15.523437-35.441406.769532-77.140625 36.207032-92.667969l192.941406-84.535156c35.445312-15.527344 77.144531.765625 92.671875 36.210937 15.527343 35.441406-.765625 77.144532-36.207031 92.671875zm0 0" fill="#78a3ef"/><path d="m390.148438 156.445312-103.90625 45.523438c-20.195313 8.851562-43.746094-.347656-52.59375-20.546875l-34.777344-79.375c-8.847656-20.199219.351562-43.75 20.550781-52.597656l103.902344-45.523438c23.554687-10.320312 51.015625.410157 61.335937 23.960938l29.453125 67.226562c10.316407 23.554688-.410156 51.011719-23.964843 61.332031zm0 0" fill="#898890"/><path d="m139.632812 68.859375-94.691406 41.488281c-8.796875 3.855469-19.144531-.1875-22.996094-8.984375-3.855468-8.792969.1875-19.140625 8.984376-22.992187l94.691406-41.492188c8.796875-3.851562 19.144531.191406 22.996094 8.984375 3.855468 8.796875-.1875 19.144531-8.984376 22.996094zm0 0" fill="#78a3ef"/><path d="m147.769531 43.929688c-4.417969-7.464844-13.878906-10.671876-22.015625-7.105469l-46.222656 20.253906 14.011719 31.976563 46.222656-20.25c8.136719-3.566407 12.191406-12.691407 9.703125-21.003907zm0 0" fill="#898890"/><path d="m97.542969 207.289062c-19.589844-36.882812-1.066407-73.972656 16.671875-97.5625l-.09375-.050781-72.03125 31.558594c-35.441406 15.527344-51.734375 57.226563-36.207032 92.667969v.003906c15.527344 35.441406 57.226563 51.738281 92.667969 36.207031l44.585938-19.53125c-17.902344-9.359375-34.867188-23.101562-45.59375-43.292969zm0 0" fill="#6392d6"/><path d="m277.683594 129.976562c-22.183594-41.480468-17.023438-79.039062-9.796875-101.761718l-48.46875 21.234375c-20.199219 8.851562-29.398438 32.398437-20.546875 52.597656l34.777344 79.375c8.847656 20.199219 32.394531 29.398437 52.59375 20.546875l39.503906-17.304688c-16.390625-11.300781-34.070313-28.535156-48.0625-54.6875zm0 0" fill="#75747a"/><path d="m197.765625 303.070312c0 4.269532-3.457031 7.726563-7.726563 7.726563-4.265624 0-7.726562-3.457031-7.726562-7.726563 0-4.265624 3.460938-7.726562 7.726562-7.726562 4.269532 0 7.726563 3.460938 7.726563 7.726562zm0 0" fill="#898890"/></svg>