<svg viewBox="-29 0 512 512.00101" xmlns="http://www.w3.org/2000/svg"><path d="m380.039062 173.613281h-306.109374c-16.324219 0-29.675782-13.355469-29.675782-29.675781s13.351563-29.675781 29.675782-29.675781h306.109374c16.320313 0 29.675782 13.355469 29.675782 29.675781s-13.351563 29.675781-29.675782 29.675781zm0 0" fill="#ff929f"/><path d="m226.984375 114.261719h-153.054687c-16.324219 0-29.675782 13.355469-29.675782 29.675781s13.351563 29.675781 29.675782 29.675781h153.054687zm0 0" fill="#ff737d"/><path d="m224.179688 82.410156c-4.269532 0-7.726563-3.460937-7.726563-7.726562v-44.1875c0-4.269532 3.457031-7.726563 7.726563-7.726563 4.265624 0 7.726562 3.457031 7.726562 7.726563v44.1875c0 4.265625-3.460938 7.726562-7.726562 7.726562zm0 0" fill="#c6c5ca"/><path d="m67.941406 361.984375v-82.1875h-36.234375v82.1875c-18.539062 7.261719-31.707031 25.316406-31.707031 46.398437 0 8.757813 7.097656 15.855469 15.855469 15.855469 8.757812 0 15.855469-7.097656 15.855469-15.855469 0-9.988281 8.125-18.113281 18.113281-18.113281s18.113281 8.125 18.113281 18.113281c0 8.757813 7.101562 15.855469 15.855469 15.855469 8.757812 0 15.855469-7.097656 15.855469-15.855469 0-21.082031-13.167969-39.136718-31.707032-46.398437zm0 0" fill="#c6c5ca"/><path d="m87.003906 269.417969c0 20.53125-16.644531 37.175781-37.179687 37.175781-20.53125 0-37.175781-16.644531-37.175781-37.175781 0-20.535157 16.644531-37.179688 37.175781-37.179688 20.535156 0 37.179687 16.644531 37.179687 37.179688zm0 0" fill="#ff737d"/><path d="m422.261719 361.984375v-82.1875h-36.234375v82.1875c-18.539063 7.261719-31.707032 25.316406-31.707032 46.398437 0 8.757813 7.097657 15.855469 15.855469 15.855469 8.757813 0 15.855469-7.097656 15.855469-15.855469 0-9.988281 8.125-18.113281 18.113281-18.113281s18.113281 8.125 18.113281 18.113281c0 8.757813 7.097657 15.855469 15.855469 15.855469 8.757813 0 15.855469-7.097656 15.855469-15.855469 0-21.082031-13.167969-39.136718-31.707031-46.398437zm0 0" fill="#d8d7da"/><path d="m441.320312 269.417969c0 20.53125-16.644531 37.175781-37.175781 37.175781-20.535156 0-37.179687-16.644531-37.179687-37.175781 0-20.535157 16.644531-37.179688 37.179687-37.179688 20.53125 0 37.175781 16.644531 37.175781 37.179688zm0 0" fill="#ff929f"/><path d="m350.3125 466.386719h-246.65625c-25.546875 0-46.253906-20.707031-46.253906-46.25v-148.558594c0-25.546875 20.707031-46.253906 46.253906-46.253906h246.660156c25.542969 0 46.25 20.707031 46.25 46.253906v148.558594c0 25.542969-20.707031 46.25-46.253906 46.25zm0 0" fill="#92d8ff"/><path d="m160.238281 410.582031v-77.78125c0-25.085937 18.046875-46.621093 42.785157-50.789062 57.554687-9.707031 92.257812-37.699219 110.175781-56.6875h-209.542969c-25.546875 0-46.253906 20.707031-46.253906 46.253906v148.558594c0 25.546875 20.707031 46.253906 46.253906 46.253906h120.523438c-69.042969-.003906-63.941407-55.808594-63.941407-55.808594zm0 0" fill="#72cef7"/><path d="m326.894531 236.445312h-199.820312c-23.398438 0-42.363281-18.96875-42.363281-42.363281v-89.71875c0-23.398437 18.964843-42.363281 42.363281-42.363281h199.820312c23.398438 0 42.363281 18.964844 42.363281 42.363281v89.71875c0 23.394531-18.964843 42.363281-42.363281 42.363281zm0 0" fill="#bdebff"/><path d="m165.203125 194.082031v-89.71875c0-23.398437 18.964844-42.363281 42.363281-42.363281h-80.492187c-23.398438 0-42.363281 18.964844-42.363281 42.363281v89.71875c0 23.394531 18.964843 42.363281 42.363281 42.363281h80.492187c-23.398437 0-42.363281-18.96875-42.363281-42.363281zm0 0" fill="#92d8ff"/><path d="m319.234375 209.195312h-184.5c-10.3125 0-18.671875-8.363281-18.671875-18.671874v-18.621094c0-10.3125 8.359375-18.671875 18.671875-18.671875h184.5c10.3125 0 18.671875 8.359375 18.671875 18.671875v18.621094c0 10.308593-8.359375 18.671874-18.671875 18.671874zm0 0" fill="#ffeb99"/><path d="m165.203125 153.230469h-30.46875c-10.3125 0-18.671875 8.359375-18.671875 18.671875v18.617187c0 10.3125 8.359375 18.671875 18.671875 18.671875h33.253906c-1.792969-4.695312-2.785156-9.785156-2.785156-15.113281zm0 0" fill="#ffde55"/><path d="m308.886719 188.9375h-163.800781c-4.269532 0-7.726563-3.460938-7.726563-7.726562 0-4.265626 3.457031-7.726563 7.726563-7.726563h163.800781c4.265625 0 7.722656 3.460937 7.722656 7.726563 0 4.269531-3.457031 7.726562-7.722656 7.726562zm0 0" fill="#ff929f"/><path d="m185.820312 109.617188c0 11.25-9.121093 20.367187-20.367187 20.367187-11.25 0-20.367187-9.117187-20.367187-20.367187 0-11.246094 9.117187-20.367188 20.367187-20.367188 11.246094 0 20.367187 9.121094 20.367187 20.367188zm0 0" fill="#66d3d0"/><path d="m165.203125 129.972656v-25.609375c0-5.261719.964844-10.316406 2.71875-14.964843-.8125-.097657-1.632813-.148438-2.46875-.148438-11.25 0-20.367187 9.121094-20.367187 20.367188 0 11.164062 8.984374 20.21875 20.117187 20.355468zm0 0" fill="#4bb7b1"/><path d="m308.886719 109.617188c0 11.25-9.121094 20.367187-20.371094 20.367187-11.246094 0-20.367187-9.117187-20.367187-20.367187 0-11.246094 9.121093-20.367188 20.367187-20.367188 11.25 0 20.371094 9.121094 20.371094 20.367188zm0 0" fill="#66d3d0"/><path d="m176.746094 317.054688h-62.023438c-9.648437 0-17.46875-7.820313-17.46875-17.46875v-11.746094c0-9.648438 7.824219-17.46875 17.46875-17.46875h62.023438c9.648437 0 17.46875 7.820312 17.46875 17.46875v11.746094c0 9.648437-7.820313 17.46875-17.46875 17.46875zm0 0" fill="#ff929f"/><path d="m162.691406 317.054688c4.789063-14.96875 16.253906-27.132813 31.191406-32.621094-1.582031-8.019532-8.652343-14.0625-17.132812-14.0625h-62.027344c-9.644531 0-17.464844 7.820312-17.464844 17.464844v11.75c0 9.648437 7.820313 17.46875 17.464844 17.46875zm0 0" fill="#ff737d"/><path d="m339.066406 427.480469h-224.164062c-9.746094 0-17.648438-7.898438-17.648438-17.648438v-53.585937c0-9.746094 7.902344-17.644532 17.648438-17.644532h224.164062c9.746094 0 17.648438 7.898438 17.648438 17.644532v53.585937c0 9.75-7.902344 17.648438-17.648438 17.648438zm0 0" fill="#ffeb99"/><path d="m160.238281 338.601562h-45.335937c-9.746094 0-17.648438 7.898438-17.648438 17.644532v53.585937c0 9.75 7.902344 17.648438 17.648438 17.648438h47.160156c-2.5-9.453125-1.824219-16.898438-1.824219-16.898438zm0 0" fill="#ffde55"/><g fill="#ff929f"><path d="m146.492188 408.628906c-4.265626 0-7.726563-3.460937-7.726563-7.726562v-35.722656c0-4.265626 3.460937-7.726563 7.726563-7.726563 4.265624 0 7.726562 3.460937 7.726562 7.726563v35.722656c0 4.265625-3.460938 7.726562-7.726562 7.726562zm0 0"/><path d="m186.738281 408.628906c-4.265625 0-7.726562-3.460937-7.726562-7.726562v-35.722656c0-4.265626 3.460937-7.726563 7.726562-7.726563s7.726563 3.460937 7.726563 7.726563v35.722656c0 4.265625-3.460938 7.726562-7.726563 7.726562zm0 0"/><path d="m226.984375 408.628906c-4.265625 0-7.726563-3.460937-7.726563-7.726562v-35.722656c0-4.265626 3.460938-7.726563 7.726563-7.726563s7.726563 3.460937 7.726563 7.726563v35.722656c0 4.265625-3.460938 7.726562-7.726563 7.726562zm0 0"/><path d="m267.230469 408.628906c-4.265625 0-7.726563-3.460937-7.726563-7.726562v-35.722656c0-4.265626 3.460938-7.726563 7.726563-7.726563s7.726562 3.460937 7.726562 7.726563v35.722656c0 4.265625-3.460937 7.726562-7.726562 7.726562zm0 0"/><path d="m307.476562 408.628906c-4.265624 0-7.726562-3.460937-7.726562-7.726562v-35.722656c0-4.265626 3.460938-7.726563 7.726562-7.726563 4.265626 0 7.726563 3.460937 7.726563 7.726563v35.722656c0 4.265625-3.460937 7.726562-7.726563 7.726562zm0 0"/></g><path d="m282.726562 293.710938c0 12.890624-10.449218 23.34375-23.339843 23.34375s-23.34375-10.453126-23.34375-23.34375c0-12.890626 10.453125-23.339844 23.34375-23.339844s23.339843 10.449218 23.339843 23.339844zm0 0" fill="#53b8e5"/><path d="m356.714844 293.710938c0 12.890624-10.453125 23.34375-23.34375 23.34375s-23.339844-10.453126-23.339844-23.34375c0-12.890626 10.449219-23.339844 23.339844-23.339844s23.34375 10.449218 23.34375 23.339844zm0 0" fill="#53b8e5"/><path d="m155.03125 449.027344c-21.109375 0-39.796875 10.386718-51.222656 26.332031-10.972656 15.3125.183594 36.640625 19.019531 36.640625h64.40625c18.839844 0 29.992187-21.328125 19.019531-36.640625-11.425781-15.941406-30.109375-26.332031-51.222656-26.332031zm0 0" fill="#ff929f"/><path d="m142.65625 475.359375c7.757812-10.824219 18.871094-19.085937 31.808594-23.277344-6.117188-1.980469-12.652344-3.054687-19.433594-3.054687-21.109375 0-39.796875 10.390625-51.222656 26.332031-10.972656 15.3125.183594 36.640625 19.019531 36.640625h38.847656c-18.835937 0-29.992187-21.328125-19.019531-36.640625zm0 0" fill="#ff737d"/><path d="m298.9375 449.027344c-21.113281 0-39.796875 10.386718-51.222656 26.332031-10.972656 15.3125.183594 36.640625 19.019531 36.640625h64.40625c18.835937 0 29.992187-21.328125 19.019531-36.640625-11.425781-15.941406-30.109375-26.332031-51.222656-26.332031zm0 0" fill="#ff929f"/><path d="m245.320312 21.140625c0 11.675781-9.464843 21.140625-21.140624 21.140625-11.675782 0-21.144532-9.464844-21.144532-21.140625s9.46875-21.140625 21.144532-21.140625c11.675781 0 21.140624 9.464844 21.140624 21.140625zm0 0" fill="#ff929f"/><path d="m286.5625 475.359375c7.757812-10.824219 18.871094-19.085937 31.804688-23.277344-6.117188-1.980469-12.652344-3.054687-19.429688-3.054687-21.113281 0-39.796875 10.390625-51.222656 26.332031-10.972656 15.3125.183594 36.640625 19.019531 36.640625h38.847656c-18.835937 0-29.992187-21.328125-19.019531-36.640625zm0 0" fill="#ff737d"/></svg>