<svg viewBox="-29 0 511 511.99946" xmlns="http://www.w3.org/2000/svg"><path d="m25.457031 98.972656 43.246094-76.039062 86.617187 49.261718-43.246093 76.039063zm0 0" fill="#75747a"/><path d="m222.003906 459.484375h-97.070312v-69.21875c0-13.089844 10.613281-23.703125 23.707031-23.703125h49.660156c13.09375 0 23.703125 10.613281 23.703125 23.703125zm0 0" fill="#78a3ef"/><path d="m188.160156 366.5625h-39.519531c-13.09375 0-23.707031 10.613281-23.707031 23.703125v69.21875h39.519531v-69.21875c0-13.089844 10.613281-23.703125 23.707031-23.703125zm0 0" fill="#6392d6"/><path d="m99.21875 239.742188c-12.007812-3.917969-18.625-16.949219-14.707031-28.957032l21.191406-64.941406c3.921875-12.007812 16.953125-18.628906 28.960937-14.710938 12.007813 3.921876 18.628907 16.953126 14.710938 28.960938l-21.195312 64.941406c-3.917969 12.007813-16.949219 18.628906-28.960938 14.707032zm0 0" fill="#898890"/><path d="m134.664062 131.132812c-12.007812-3.917968-25.039062 2.703126-28.960937 14.710938l-16.070313 49.246094c11.480469 7.191406 25.621094 14.167968 42.171876 18.84375l17.566406-53.839844c3.921875-12.007812-2.699219-25.039062-14.707032-28.960938zm0 0" fill="#75747a"/><path d="m247.71875 239.742188c12.011719-3.917969 18.628906-16.949219 14.710938-28.957032l-21.195313-64.941406c-3.917969-12.007812-16.949219-18.628906-28.957031-14.710938-12.011719 3.921876-18.628906 16.953126-14.710938 28.960938l21.191406 64.941406c3.921876 12.007813 16.953126 18.628906 28.960938 14.707032zm0 0" fill="#898890"/><path d="m241.234375 145.84375c-3.917969-12.007812-16.949219-18.628906-28.960937-14.710938-12.007813 3.921876-18.625 16.953126-14.707032 28.960938l17.597656 53.929688c16.382813-4.515626 30.625-11.210938 42.386719-18.179688zm0 0" fill="#75747a"/><path d="m334.429688 337.582031h-234.265626c-12.292968 0-22.261718-9.96875-22.261718-22.261719 0-12.296874 9.96875-22.261718 22.261718-22.261718h234.265626zm0 0" fill="#898890"/><path d="m255.917969 293.058594c-12.296875 0-22.261719 9.964844-22.261719 22.261718 0 12.296876 9.964844 22.261719 22.261719 22.261719h78.511719v-44.523437zm0 0" fill="#75747a"/><path d="m218.226562 168.417969s96.839844 28.800781 96.839844 124.640625c0 37.695312-11.421875 63.78125-25.277344 81.5625-17.390624 22.304687-44.300781 35.082031-72.582031 35.082031h-137.566406c-17.910156 0-32.433594 14.519531-32.433594 32.429687v37.433594c0 17.914063 14.523438 32.433594 32.433594 32.433594h215.796875c48.496094 0 92.511719-28.945312 111.121094-73.730469 13.054687-31.421875 22.867187-75.796875 22.867187-138.207031 0-200.949219-232.988281-225.945312-232.988281-225.945312zm0 0" fill="#d8d7da"/><path d="m115.871094 479.566406v-37.433594c0-17.910156 14.523437-32.429687 32.433594-32.429687h-68.664063c-17.910156 0-32.429687 14.519531-32.429687 32.429687v37.433594c0 17.914063 14.519531 32.433594 32.429687 32.433594h68.664063c-17.910157 0-32.433594-14.519531-32.433594-32.433594zm0 0" fill="#c6c5ca"/><path d="m298.871094 104.625c-53.203125-25.226562-102.433594-30.507812-102.433594-30.507812l21.789062 94.300781s41.136719 12.234375 69.789063 47.289062c24.625-38.167969 21.863281-78.101562 10.855469-111.082031zm0 0" fill="#c6c5ca"/><path d="m173.46875 248.148438c-12.632812 0-22.96875-10.335938-22.96875-22.96875v-68.308594c0-12.632813 10.335938-22.96875 22.96875-22.96875s22.96875 10.335937 22.96875 22.96875v68.308594c0 12.636718-10.335938 22.96875-22.96875 22.96875zm0 0" fill="#acabb1"/><path d="m173.46875 133.902344c-12.632812 0-22.96875 10.335937-22.96875 22.96875v61.105468c7.292969 1.105469 14.953125 1.730469 22.96875 1.730469 7.976562 0 15.640625-.617187 22.96875-1.714843v-61.121094c0-12.632813-10.335938-22.96875-22.96875-22.96875zm0 0" fill="#898890"/><path d="m249.21875 156.632812v-25.417968c0-41.664063-34.085938-75.75-75.75-75.75-41.660156 0-75.75 34.085937-75.75 75.75v25.417968c0 15.910157 12.898438 28.804688 28.804688 28.804688h93.890624c15.910157 0 28.804688-12.894531 28.804688-28.804688zm0 0" fill="#eaeaea"/><path d="m151.484375 156.632812v-25.417968c0-32.207032 20.398437-59.878906 48.890625-70.785156-8.363281-3.203126-17.449219-4.964844-26.90625-4.964844-41.660156 0-75.75 34.085937-75.75 75.75v25.417968c0 15.910157 12.898438 28.804688 28.804688 28.804688h53.765624c-15.910156 0-28.804687-12.894531-28.804687-28.804688zm0 0" fill="#d8d7da"/><path d="m453.96875 387.78125c0 31.867188-25.832031 57.699219-57.695312 57.699219-31.867188 0-57.699219-25.832031-57.699219-57.699219 0-31.863281 25.832031-57.695312 57.699219-57.695312 31.863281 0 57.695312 25.832031 57.695312 57.695312zm0 0" fill="#898890"/><path d="m85.726562 35.613281-40.675781 71.519531c-6.484375 11.398438-21.113281 15.421876-32.511719 8.941407-11.398437-6.484375-15.421874-21.113281-8.941406-32.511719l40.675782-71.523438c6.484374-11.398437 21.113281-15.421874 32.515624-8.941406 11.398438 6.484375 15.421876 21.113282 8.9375 32.515625zm0 0" fill="#898890"/><path d="m419.503906 387.78125c0 12.832031-10.402344 23.230469-23.230468 23.230469-12.832032 0-23.230469-10.398438-23.230469-23.230469 0-12.828125 10.398437-23.230469 23.230469-23.230469 12.828124 0 23.230468 10.402344 23.230468 23.230469zm0 0" fill="#75747a"/></svg>