<svg viewBox="-17 1 511 511.99998" xmlns="http://www.w3.org/2000/svg"><path d="m463.1875 415.085938-113.882812-133.992188c-26.402344-31.066406-40.902344-70.507812-40.902344-111.277344v-107.496094h-139.003906v107.496094c0 40.769532-14.496094 80.210938-40.898438 111.277344l-113.886719 133.992188c-32.46875 38.203124-5.316406 96.914062 44.820313 96.914062h358.9375c50.136718 0 77.289062-58.710938 44.816406-96.914062zm0 0" fill="#bdfaff"/><path d="m192.183594 356.570312c30.355468-43.449218 39.558594-89.007812 41.390625-122.78125 1.496093-27.597656 19.878906-51.285156 46.164062-59.8125 12.242188-3.972656 21.773438-8.945312 28.664063-13.324218v-98.332032h-139.003906v107.496094c0 40.769532-14.496094 80.210938-40.898438 111.277344l-113.886719 133.992188c-32.46875 38.203124-5.316406 96.914062 44.820313 96.914062h67.070312c-12.320312-57.539062 20-90.046875 65.679688-155.429688zm0 0" fill="#a0f0f2"/><path d="m303.535156 129.308594h-129.265625c-23.429687 0-42.601562-19.167969-42.601562-42.601563 0-23.429687 19.171875-42.597656 42.601562-42.597656h129.265625c23.429688 0 42.597656 19.167969 42.597656 42.597656 0 23.433594-19.167968 42.601563-42.597656 42.601563zm0 0" fill="#bdfaff"/><path d="m14.613281 415.085938c-32.46875 38.203124-5.316406 96.914062 44.820313 96.914062h358.9375c50.136718 0 77.289062-58.710938 44.816406-96.914062l-91.617188-107.796876h-265.335937zm0 0" fill="#92dd7a"/><path d="m192.183594 356.570312c11.4375-16.375 19.875-33.050781 26.042968-49.277343h-111.992187l-91.621094 107.792969c-32.46875 38.203124-5.316406 96.914062 44.820313 96.914062h67.070312c-12.320312-57.539062 20-90.046875 65.679688-155.429688zm0 0" fill="#7ec66a"/><path d="m284.539062 43.355469c0 23.941406-19.410156 43.351562-43.355468 43.351562-23.941406 0-43.351563-19.410156-43.351563-43.351562 0-23.945313 19.410157-43.355469 43.351563-43.355469 23.945312 0 43.355468 19.410156 43.355468 43.355469zm0 0" fill="#b1ef97"/><g fill="#92dd7a"><path d="m197.847656 44.109375c.40625 23.59375 19.644532 42.597656 43.335938 42.597656s42.933594-19.003906 43.335937-42.597656zm0 0"/><path d="m281.433594 181.308594c0 14.027344-11.371094 25.398437-25.398438 25.398437s-25.398437-11.371093-25.398437-25.398437c0-14.03125 11.371093-25.402344 25.398437-25.402344s25.398438 11.371094 25.398438 25.402344zm0 0"/><path d="m233.90625 255.136719c0 9.367187-7.59375 16.957031-16.960938 16.957031-9.363281 0-16.957031-7.589844-16.957031-16.957031 0-9.367188 7.59375-16.957031 16.957031-16.957031 9.367188 0 16.960938 7.589843 16.960938 16.957031zm0 0"/></g><path d="m321.992188 419.738281c-4.265626 0-7.726563-3.457031-7.726563-7.722656v-12.828125c0-4.269531 3.460937-7.726562 7.726563-7.726562 4.269531 0 7.726562 3.457031 7.726562 7.726562v12.828125c0 4.265625-3.457031 7.722656-7.726562 7.722656zm0 0" fill="#57565c"/><path d="m155.8125 419.738281c-4.269531 0-7.726562-3.457031-7.726562-7.722656v-12.828125c0-4.269531 3.457031-7.726562 7.726562-7.726562 4.265625 0 7.726562 3.457031 7.726562 7.726562v12.828125c0 4.265625-3.460937 7.722656-7.726562 7.722656zm0 0" fill="#57565c"/><path d="m238.902344 427.832031c-10 0-20-3.238281-28.34375-9.710937-3.371094-2.613282-3.984375-7.46875-1.371094-10.839844s7.46875-3.984375 10.839844-1.371094c11.113281 8.621094 26.636718 8.621094 37.746094 0 3.371093-2.613281 8.226562-2 10.839843 1.371094 2.617188 3.371094 2.003907 8.226562-1.367187 10.839844-8.34375 6.472656-18.34375 9.710937-28.34375 9.710937zm0 0" fill="#57565c"/></svg>