<svg viewBox="-6 0 512 512.00016" xmlns="http://www.w3.org/2000/svg"><path d="m16.539062 498.6875c-17.742187-17.832031-18.179687-43.53125-15.046874-62.332031 3.539062-21.261719 12.976562-46.574219 28.046874-75.226563 29.648438-56.363281 78.742188-121.402344 138.242188-183.140625s122.683594-113.199219 177.914062-144.902343c28.078126-16.117188 53.023438-26.480469 74.140626-30.808594 18.671874-3.820313 44.734374-4.714844 62.84375 12.738281 18.113281 17.457031 18.179687 43.53125 15.046874 62.332031-3.542968 21.265625-12.980468 46.574219-28.050781 75.226563-29.644531 56.363281-78.738281 121.402343-138.238281 183.140625-59.5 61.738281-122.6875 113.199218-177.917969 144.902344-28.074219 16.117187-105.023437 50.199218-136.980469 18.070312zm351.707032-426.320312c-51.625 29.636718-111.238282 78.308593-167.851563 137.054687-56.617187 58.742187-103.054687 120.109375-130.765625 172.792969-29.839844 56.734375-25.523437 80.132812-21.660156 83.859375 3.863281 3.726562 27.410156 7.175781 83-24.738281 51.625-29.636719 111.238281-78.308594 167.851562-137.054688 56.617188-58.742188 103.058594-120.109375 130.769532-172.792969 29.835937-56.734375 25.855468-80.515625 21.65625-83.859375-10.449219-8.324218-45.089844 2.976563-83 24.738282zm0 0" fill="#ffcd00"/><path d="m492.449219 256.851562c0 134.117188-108.722657 242.839844-242.839844 242.839844s-242.84375-108.722656-242.84375-242.839844c0-134.117187 108.726563-242.84375 242.84375-242.84375s242.839844 108.726563 242.839844 242.84375zm0 0" fill="#a0f0f2"/><path d="m81.089844 431.707031c93.992187 90.589844 242.148437 90.3125 335.800781 1.183594-26.503906-16.917969-36.890625-55.246094-14.140625-83.953125 44.371094-55.984375 68.449219-110.644531 81.476562-154.894531-5.175781-19.410157-12.804687-38.265625-22.851562-56.132813-49.789062 57.753906-118 136.871094-167.164062 193.855469-50.179688 58.164063-141.660157 54.15625-186.351563-8.328125-48.046875-67.175781-57.269531-156.636719-58.496094-204.035156-66.121093 96.101562-55.03125 228.695312 31.726563 312.304687zm0 0" fill="#7de2e2"/><path d="m482.679688 15.015625c-18.113282-17.453125-44.171876-16.5625-62.84375-12.738281-7.671876 1.570312-15.890626 3.957031-24.539063 7.105468 70.941406-.628906 57.988281 59.515626 57.988281 59.515626-2.109375 13.453124-8.539062 33.765624-23.695312 62.585937-27.710938 52.683594-74.152344 114.050781-130.769532 172.796875-56.613281 58.742188-116.226562 107.417969-167.851562 137.050781-31.054688 17.828125-52.101562 24.625-65.3125 26.5 0 0-53.84375 10.988281-60.09375-49.285156-1.765625 6.199219-3.132812 12.164063-4.070312 17.808594-3.132813 18.800781-2.695313 44.5 15.042968 62.332031 31.960938 32.128906 108.910156-1.953125 136.984375-18.070312 55.230469-31.703126 118.414063-83.164063 177.917969-144.902344 59.5-61.738282 108.59375-126.78125 138.238281-183.140625 15.070313-28.652344 24.507813-53.964844 28.050781-75.226563 3.132813-18.800781 3.0625-44.878906-15.046874-62.332031zm0 0" fill="#ffeb99"/><path d="m237.453125 244.695312c-11.304687 11.308594-29.632813 11.308594-40.9375 0l-14.882813-14.878906c-3.085937-3.085937-3.085937-8.089844 0-11.175781l29.765626-29.765625c3.085937-3.085938 8.085937-3.085938 11.175781 0l14.878906 14.882812c11.304687 11.304688 11.304687 29.632813 0 40.9375zm0 0" fill="#57565c"/><path d="m131.125 275.3125c-12.058594 12.058594-14.050781 29.621094-4.445312 39.222656 9.601562 9.601563 27.160156 7.613282 39.21875-4.445312 12.058593-12.058594 14.050781-29.621094 4.445312-39.222656-9.601562-9.601563-27.160156-7.613282-39.21875 4.445312zm0 0" fill="#ffa6bb"/><path d="m268.070312 138.371094c-12.058593 12.058594-14.050781 29.617187-4.445312 39.222656 9.601562 9.601562 27.160156 7.609375 39.21875-4.449219 12.058594-12.054687 14.050781-29.617187 4.445312-39.21875-9.601562-9.601562-27.160156-7.613281-39.21875 4.445313zm0 0" fill="#ffa6bb"/><g fill="#57565c"><path d="m266.191406 155.929688c-3.015625 3.015624-7.90625 3.015624-10.925781 0l-9.070313-9.070313c-3.015624-3.019531-3.015624-7.910156 0-10.929687 3.019532-3.015626 7.910157-3.015626 10.929688 0l9.066406 9.070312c3.019532 3.019531 3.019532 7.910156 0 10.929688zm0 0"/><path d="m148.683594 273.4375c-3.015625 3.015625-7.910156 3.015625-10.925782 0l-9.070312-9.070312c-3.015625-3.015626-3.015625-7.910157 0-10.925782 3.019531-3.019531 7.910156-3.019531 10.925781 0l9.070313 9.070313c3.019531 3.015625 3.019531 7.90625 0 10.925781zm0 0"/></g></svg>