<svg viewBox="1 1 511.99998 511.99998" xmlns="http://www.w3.org/2000/svg"><path d="m416.503906 475.441406h-321.007812c-32.550782 0-58.9375-26.386718-58.9375-58.9375v-321.007812c0-32.550782 26.386718-58.9375 58.9375-58.9375h321.007812c32.550782 0 58.9375 26.386718 58.9375 58.9375v321.007812c0 32.550782-26.386718 58.9375-58.9375 58.9375zm0 0" fill="#d8d7da"/><path d="m172.910156 416.503906v-321.007812c0-32.550782 26.386719-58.9375 58.9375-58.9375h-136.351562c-32.550782 0-58.9375 26.386718-58.9375 58.9375v321.007812c0 32.550782 26.386718 58.9375 58.9375 58.9375h136.351562c-32.550781 0-58.9375-26.386718-58.9375-58.9375zm0 0" fill="#c6c5ca"/><path d="m96.328125 372.484375v-232.96875c0-23.851563 19.335937-43.1875 43.1875-43.1875h232.96875c23.851563 0 43.1875 19.335937 43.1875 43.1875v232.96875c0 23.851563-19.335937 43.1875-43.1875 43.1875h-232.96875c-23.851563 0-43.1875-19.335937-43.1875-43.1875zm0 0" fill="#92dd7a"/><path d="m139.515625 96.328125c-23.851563 0-43.1875 19.335937-43.1875 43.1875v232.96875c0 23.851563 19.335937 43.1875 43.1875 43.1875h33.394531v-319.34375zm0 0" fill="#7ec66a"/><g fill="#ffeb99"><path d="m150.839844 65.246094c-9.945313 0-18.085938-8.136719-18.085938-18.082032v-29.082031c0-9.945312 8.136719-18.082031 18.085938-18.082031 9.945312 0 18.082031 8.136719 18.082031 18.082031v29.082031c0 9.945313-8.136719 18.082032-18.082031 18.082032zm0 0"/><path d="m220.945312 65.246094c-9.945312 0-18.082031-8.136719-18.082031-18.082032v-29.082031c0-9.945312 8.136719-18.082031 18.082031-18.082031 9.945313 0 18.082032 8.136719 18.082032 18.082031v29.082031c0 9.945313-8.136719 18.082032-18.082032 18.082032zm0 0"/><path d="m291.054688 65.246094c-9.945313 0-18.082032-8.136719-18.082032-18.082032v-29.082031c0-9.945312 8.136719-18.082031 18.082032-18.082031 9.945312 0 18.082031 8.136719 18.082031 18.082031v29.082031c0 9.945313-8.136719 18.082032-18.082031 18.082032zm0 0"/><path d="m361.160156 65.246094c-9.945312 0-18.082031-8.136719-18.082031-18.082032v-29.082031c0-9.945312 8.136719-18.082031 18.082031-18.082031 9.945313 0 18.085938 8.136719 18.085938 18.082031v29.082031c0 9.945313-8.136719 18.082032-18.085938 18.082032zm0 0"/><path d="m150.839844 512c-9.945313 0-18.085938-8.136719-18.085938-18.082031v-29.082031c0-9.945313 8.140625-18.082032 18.085938-18.082032 9.945312 0 18.082031 8.136719 18.082031 18.082032v29.082031c0 9.945312-8.136719 18.082031-18.082031 18.082031zm0 0"/><path d="m220.945312 512c-9.945312 0-18.082031-8.136719-18.082031-18.082031v-29.082031c0-9.945313 8.136719-18.082032 18.082031-18.082032 9.945313 0 18.082032 8.136719 18.082032 18.082032v29.082031c0 9.945312-8.136719 18.082031-18.082032 18.082031zm0 0"/><path d="m291.054688 512c-9.945313 0-18.082032-8.136719-18.082032-18.082031v-29.082031c0-9.945313 8.136719-18.082032 18.082032-18.082032 9.945312 0 18.082031 8.136719 18.082031 18.082032v29.082031c0 9.945312-8.136719 18.082031-18.082031 18.082031zm0 0"/><path d="m361.160156 512c-9.945312 0-18.082031-8.136719-18.082031-18.082031v-29.082031c0-9.945313 8.136719-18.082032 18.082031-18.082032 9.945313 0 18.085938 8.136719 18.085938 18.082032v29.082031c0 9.945312-8.136719 18.082031-18.085938 18.082031zm0 0"/><path d="m446.753906 150.839844c0-9.945313 8.136719-18.085938 18.082032-18.085938h29.082031c9.945312 0 18.082031 8.140625 18.082031 18.085938 0 9.945312-8.136719 18.082031-18.082031 18.082031h-29.082031c-9.945313 0-18.082032-8.136719-18.082032-18.082031zm0 0"/><path d="m446.753906 220.945312c0-9.945312 8.136719-18.082031 18.082032-18.082031h29.082031c9.945312 0 18.082031 8.136719 18.082031 18.082031 0 9.945313-8.136719 18.082032-18.082031 18.082032h-29.082031c-9.945313 0-18.082032-8.136719-18.082032-18.082032zm0 0"/><path d="m446.753906 291.054688c0-9.945313 8.136719-18.082032 18.082032-18.082032h29.082031c9.945312 0 18.082031 8.136719 18.082031 18.082032 0 9.945312-8.136719 18.082031-18.082031 18.082031h-29.082031c-9.945313 0-18.082032-8.136719-18.082032-18.082031zm0 0"/><path d="m446.753906 361.160156c0-9.945312 8.136719-18.082031 18.082032-18.082031h29.082031c9.945312 0 18.082031 8.136719 18.082031 18.082031 0 9.945313-8.136719 18.085938-18.082031 18.085938h-29.082031c-9.945313 0-18.082032-8.136719-18.082032-18.085938zm0 0"/></g><path d="m0 150.839844c0-9.945313 8.136719-18.085938 18.082031-18.085938h29.082031c9.945313 0 18.082032 8.140625 18.082032 18.085938 0 9.945312-8.136719 18.082031-18.082032 18.082031h-29.082031c-9.945312 0-18.082031-8.136719-18.082031-18.082031zm0 0" fill="#ffde55"/><path d="m0 220.945312c0-9.945312 8.136719-18.082031 18.082031-18.082031h29.082031c9.945313 0 18.082032 8.136719 18.082032 18.082031 0 9.945313-8.136719 18.082032-18.082032 18.082032h-29.082031c-9.945312 0-18.082031-8.136719-18.082031-18.082032zm0 0" fill="#ffde55"/><path d="m0 291.054688c0-9.945313 8.136719-18.082032 18.082031-18.082032h29.082031c9.945313 0 18.082032 8.136719 18.082032 18.082032 0 9.945312-8.136719 18.082031-18.082032 18.082031h-29.082031c-9.945312 0-18.082031-8.136719-18.082031-18.082031zm0 0" fill="#ffde55"/><path d="m0 361.160156c0-9.945312 8.136719-18.082031 18.082031-18.082031h29.082031c9.945313 0 18.082032 8.136719 18.082032 18.082031 0 9.945313-8.136719 18.085938-18.082032 18.085938h-29.082031c-9.945312 0-18.082031-8.136719-18.082031-18.085938zm0 0" fill="#ffde55"/><path d="m89.695312 82.328125c0 4.269531-3.457031 7.726563-7.726562 7.726563-4.265625 0-7.726562-3.457032-7.726562-7.726563 0-4.265625 3.460937-7.722656 7.726562-7.722656 4.269531 0 7.726562 3.457031 7.726562 7.722656zm0 0" fill="#acabb1"/><path d="m89.695312 429.671875c0 4.265625-3.457031 7.722656-7.726562 7.722656-4.265625 0-7.726562-3.457031-7.726562-7.722656 0-4.269531 3.460937-7.726563 7.726562-7.726563 4.269531 0 7.726562 3.457032 7.726562 7.726563zm0 0" fill="#acabb1"/><path d="m437.757812 82.328125c0 4.269531-3.460937 7.726563-7.726562 7.726563-4.269531 0-7.726562-3.457032-7.726562-7.726563 0-4.265625 3.457031-7.722656 7.726562-7.722656 4.265625 0 7.726562 3.457031 7.726562 7.722656zm0 0" fill="#acabb1"/><path d="m437.757812 429.671875c0 4.265625-3.460937 7.722656-7.726562 7.722656-4.269531 0-7.726562-3.457031-7.726562-7.722656 0-4.269531 3.457031-7.726563 7.726562-7.726563 4.265625 0 7.726562 3.457032 7.726562 7.726563zm0 0" fill="#acabb1"/><path d="m339.089844 266.09375c-4.265625 0-7.726563-3.457031-7.726563-7.726562v-12.824219c0-4.269531 3.460938-7.726563 7.726563-7.726563 4.269531 0 7.726562 3.457032 7.726562 7.726563v12.824219c0 4.269531-3.457031 7.726562-7.726562 7.726562zm0 0" fill="#57565c"/><path d="m172.910156 266.09375c-4.269531 0-7.726562-3.457031-7.726562-7.726562v-12.824219c0-4.269531 3.457031-7.726563 7.726562-7.726563 4.265625 0 7.726563 3.457032 7.726563 7.726563v12.824219c0 4.269531-3.460938 7.726562-7.726563 7.726562zm0 0" fill="#57565c"/><path d="m256 274.183594c-10 0-20-3.234375-28.34375-9.707032-3.371094-2.617187-3.984375-7.46875-1.371094-10.839843 2.613282-3.375 7.46875-3.988281 10.839844-1.371094 11.113281 8.621094 26.636719 8.621094 37.746094 0 3.371094-2.617187 8.226562-2.003906 10.839844 1.371094 2.617187 3.371093 2.003906 8.222656-1.367188 10.839843-8.34375 6.472657-18.34375 9.707032-28.34375 9.707032zm0 0" fill="#57565c"/></svg>