<svg viewBox="-2 1 511 511.99998" xmlns="http://www.w3.org/2000/svg"><path d="m87.332031 462.667969c-24.371093 0-44.308593-19.9375-44.308593-44.308594v-175.015625c0-24.367188 19.9375-44.304688 44.308593-44.304688 24.367188 0 44.304688 19.9375 44.304688 44.304688v175.015625c0 24.371094-19.9375 44.308594-44.304688 44.308594zm0 0" fill="#a874d1"/><path d="m422.292969 462.667969c-24.367188 0-44.308594-19.9375-44.308594-44.308594v-175.015625c0-24.367188 19.941406-44.304688 44.308594-44.304688 24.371093 0 44.308593 19.9375 44.308593 44.304688v175.015625c0 24.371094-19.9375 44.308594-44.308593 44.308594zm0 0" fill="#bd86e0"/><path d="m466.636719 223.628906c-22.867188 0-41.574219 18.710938-41.574219 41.574219v94.929687c0 10.40625-8.4375 18.839844-18.84375 18.839844-10.402344 0-18.839844-8.433594-18.839844-18.839844v-207.144531c0-73.222656-58.535156-133.828125-131.753906-134.523437-73.738281-.699219-134.296875 59.433594-134.296875 133.019531v208.648437c0 10.40625-8.433594 18.84375-18.839844 18.84375s-18.84375-8.4375-18.84375-18.84375v-94.929687c0-22.863281-18.707031-41.570313-41.570312-41.570313-22.867188 0-41.574219 18.707032-41.574219 41.570313v137.855469c0 60.167968 48.773438 108.941406 108.941406 108.941406h289.824219c60.167969 0 108.941406-48.773438 108.941406-108.941406v-137.855469c0-22.863281-18.707031-41.574219-41.570312-41.574219zm0 0" fill="#d7abf4"/><path d="m206.199219 150.257812c-3.808594-72.378906 46.683593-110.941406 79.109375-128.128906-9.527344-2.300781-19.460938-3.566406-29.683594-3.664062-73.738281-.699219-134.296875 59.433594-134.296875 133.019531v208.648437c0 10.40625-8.433594 18.84375-18.839844 18.84375s-18.839843-8.4375-18.839843-18.84375v-94.929687c0-22.863281-18.707032-41.570313-41.574219-41.570313-22.863281 0-41.570313 18.707032-41.570313 41.570313v137.855469c0 49.425781 32.910156 91.160156 78.015625 104.488281 9.171875-22.796875 25.25-45.496094 53.121094-60.640625 77.011719-41.847656 80.140625-190.636719 74.558594-296.648438zm0 0" fill="#c596ea"/><path d="m327.667969 156.921875c0 40.488281-32.824219 73.3125-73.3125 73.3125-40.492188 0-73.3125-32.824219-73.3125-73.3125 0-40.492187 32.820312-73.3125 73.3125-73.3125 40.488281 0 73.3125 32.820313 73.3125 73.3125zm0 0" fill="#bdfaff"/><path d="m286.476562 156.921875c0 17.738281-14.382812 32.121094-32.121093 32.121094-17.742188 0-32.125-14.382813-32.125-32.121094 0-17.742187 14.382812-32.125 32.125-32.125 17.738281 0 32.121093 14.382813 32.121093 32.125zm0 0" fill="#66d3d0"/><path d="m159.554688 91.699219-54.46875-54.46875c-3.015626-3.015625-3.015626-7.910157 0-10.925781 3.015624-3.015626 7.910156-3.015626 10.925781 0l54.46875 54.46875c3.015625 3.015624 3.019531 7.910156 0 10.925781-4.292969 4.289062-9.417969 1.507812-10.925781 0zm0 0" fill="#ffde55"/><path d="m142.316406 31.769531c0 17.542969-14.222656 31.765625-31.765625 31.765625-17.546875 0-31.769531-14.222656-31.769531-31.765625 0-17.546875 14.222656-31.769531 31.769531-31.769531 17.542969 0 31.765625 14.222656 31.765625 31.769531zm0 0" fill="#92dd7a"/><path d="m110.550781 31.769531c0-11.757812 6.398438-22.019531 15.890625-27.515625-4.671875-2.703125-10.105468-4.253906-15.890625-4.253906-17.546875 0-31.769531 14.222656-31.769531 31.769531 0 17.542969 14.222656 31.765625 31.769531 31.765625 5.785157 0 11.21875-1.550781 15.890625-4.253906-9.492187-5.496094-15.890625-15.757812-15.890625-27.511719zm0 0" fill="#7ec66a"/><path d="m338.226562 91.699219c-3.015624-3.019531-3.015624-7.910157 0-10.925781l54.46875-54.46875c3.019532-3.015626 7.910157-3.015626 10.925782 0 3.019531 3.015624 3.019531 7.910156 0 10.925781l-54.464844 54.46875c-4.144531 4.148437-9.417969 1.507812-10.929688 0zm0 0" fill="#ffeb99"/><path d="m429.925781 31.769531c0 17.542969-14.222656 31.765625-31.765625 31.765625-17.546875 0-31.769531-14.222656-31.769531-31.765625 0-17.546875 14.222656-31.769531 31.769531-31.769531 17.542969 0 31.765625 14.222656 31.765625 31.769531zm0 0" fill="#92dd7a"/><path d="m308.15625 347.105469h-107.601562c-21.453126 0-38.84375-17.390625-38.84375-38.84375 0-21.449219 17.390624-38.839844 38.84375-38.839844h107.601562c21.449219 0 38.839844 17.390625 38.839844 38.839844 0 21.453125-17.390625 38.84375-38.839844 38.84375zm0 0" fill="#ffeb99"/><path d="m200.554688 269.421875c-21.453126 0-38.84375 17.390625-38.84375 38.84375 0 19.527344 14.414062 35.683594 33.179687 38.425781 5.890625-24.109375 9.398437-50.453125 11.273437-77.269531zm0 0" fill="#ffde55"/><path d="m311.542969 315.988281h-114.378907c-4.265624 0-7.726562-3.457031-7.726562-7.726562 0-4.265625 3.460938-7.726563 7.726562-7.726563h114.378907c4.269531 0 7.726562 3.460938 7.726562 7.726563 0 4.269531-3.457031 7.726562-7.726562 7.726562zm0 0" fill="#92dd7a"/><path d="m206.199219 150.257812c-1.113281-21.195312 2.433593-39.503906 8.8125-55.210937-20.417969 13.015625-33.96875 35.867187-33.96875 61.875 0 22.898437 10.503906 43.347656 26.949219 56.792969 0-22-.742188-43.492188-1.792969-63.457032zm0 0" fill="#a0f0f2"/><path d="m398.160156 31.769531c0-11.757812 6.398438-22.019531 15.890625-27.515625-4.671875-2.703125-10.105469-4.253906-15.890625-4.253906-17.546875 0-31.769531 14.222656-31.769531 31.769531 0 17.542969 14.222656 31.765625 31.769531 31.765625 5.789063 0 11.21875-1.550781 15.890625-4.253906-9.492187-5.496094-15.890625-15.757812-15.890625-27.511719zm0 0" fill="#7ec66a"/></svg>