<svg viewBox="0 -29 511.99947 511" xmlns="http://www.w3.org/2000/svg"><path d="m395 224.96875c-12.121094-12.121094-31.949219-12.121094-44.070312 0l-10.089844 10.09375c-10.859375 10.855469-28.632813 10.855469-39.492188 0-10.859375-10.859375-10.859375-28.632812 0-39.492188l141.914063-141.914062c12.117187-12.117188 12.117187-31.949219 0-44.066406-12.117188-12.121094-31.949219-12.121094-44.070313 0l-125.480468 125.480468c-10.859376 10.859376-28.628907 10.859376-39.488282 0-10.859375-10.859374-10.859375-28.628906 0-39.488281l31.914063-31.914062c12.117187-12.117188 12.117187-31.949219 0-44.070313-12.121094-12.117187-31.953125-12.117187-44.070313 0 0 0-176.773437 176.777344-178.398437 178.398438-58.222657 58.226562-58.222657 152.964844 0 211.1875 58.222656 58.222656 152.960937 58.222656 211.1875 0 1.621093-1.625 140.144531-140.148438 140.144531-140.148438 12.117188-12.117187 12.117188-31.949218 0-44.066406zm0 0" fill="#a0f0f2"/><path d="m105.972656 296.800781c-8.328125-108.238281 128.25-201.21875 128.25-201.21875l31.914063-31.910156c12.117187-12.121094 12.117187-31.953125 0-44.070313-12.121094-12.121093-31.953125-12.121093-44.070313 0 0 0-176.773437 176.773438-178.398437 178.398438-58.222657 58.222656-58.222657 152.960938 0 211.183594 54.492187 54.492187 140.964843 57.984375 199.554687 10.480468-79.605468-10.921874-131.519531-48.339843-137.25-122.863281zm0 0" fill="#7de2e2"/><path d="m245.019531 303.589844c0 52.886718-42.871093 95.761718-95.757812 95.761718s-95.761719-42.875-95.761719-95.761718c0-52.886719 42.875-95.761719 95.761719-95.761719s95.757812 42.875 95.757812 95.761719zm0 0" fill="#ff9478"/><path d="m81.546875 371.308594c23.804687 23.800781 57.023437 32.445312 87.667969 25.945312-36.839844-20.0625-59.5625-52.617187-63.242188-100.449218-2.355468-30.613282 6.890625-60.027344 21.351563-86.441407-16.773438 3.929688-32.699219 12.441407-45.777344 25.519531-37.398437 37.394532-37.398437 98.027344 0 135.425782zm0 0" fill="#ff7956"/><path d="m430.722656 189.242188c-12.117187-12.117188-12.117187-31.949219 0-44.066407l28.117188-28.117187c12.121094-12.121094 31.953125-12.121094 44.070312 0 12.117188 12.117187 12.117188 31.949218 0 44.066406l-28.117187 28.117188c-12.117188 12.121093-31.949219 12.121093-44.070313 0zm0 0" fill="#a0f0f2"/><path d="m81.546875 371.304688c27.890625 27.890624 68.703125 34.972656 103.164063 21.265624-3.855469-.21875-7.644532-1.769531-10.570313-4.699218-6.320313-6.320313-6.320313-16.660156 0-22.980469l7.984375-7.988281c8.691406-8.6875 8.691406-22.90625 0-31.597656-8.6875-8.6875-22.90625-8.6875-31.597656 0l-20.277344 20.28125c-6.320312 6.320312-16.660156 6.320312-22.980469 0-6.320312-6.320313-6.320312-16.664063 0-22.984376l40.640625-40.640624c8.6875-8.6875 8.6875-22.910157 0-31.597657-8.691406-8.691406-22.910156-8.691406-31.601562 0l-28.347656 28.347657c-6.320313 6.320312-16.660157 6.320312-22.980469 0-2.929688-2.925782-4.480469-6.714844-4.699219-10.566407-13.707031 34.457031-6.625 75.269531 21.265625 103.160157zm0 0" fill="#ffeb99"/><path d="m120.851562 350.183594c-4.832031.621094-9.894531-.894532-13.585937-4.589844-6.320313-6.320312-6.320313-16.660156 0-22.980469l2.3125-2.308593c-1.753906-7.386719-2.96875-15.207032-3.605469-23.492188-1.027344-13.308594.136719-26.382812 2.972656-39.085938l-20.984374 20.996094c-6.320313 6.320313-16.664063 6.320313-22.984376 0-2.925781-2.925781-4.480468-6.714844-4.695312-10.570312-13.707031 34.460937-6.625 75.273437 21.265625 103.164062 23.804687 23.804688 57.019531 32.441406 87.667969 25.9375-21.027344-11.449218-37.453125-26.964844-48.363282-47.070312zm0 0" fill="#ffde55"/></svg>