<svg viewBox="-27 0 512 512.0001" xmlns="http://www.w3.org/2000/svg"><path d="m207.40625 166.230469s1.035156-68.960938-11.667969-125.992188c-4.90625-22.027343 13.101563-42.40625 35.546875-40.050781 37.722656 3.953125 87.308594 18.652344 109.230469 66.277344 0 3.90625-133.109375 99.765625-133.109375 99.765625zm0 0" fill="#78a3ef"/><path d="m268.117188 7.472656c-17.515626 15.953125-44.011719 44.433594-64.25 85.214844 4.042968 39.796875 3.539062 73.542969 3.539062 73.542969s133.109375-95.859375 133.109375-99.765625c-15.214844-33.054688-43.746094-50.246094-72.398437-58.992188zm0 0" fill="#6392d6"/><path d="m331.886719 23.117188c-19.585938 0-37.53125 10.816406-46.78125 28.082031-18.230469 34.035156-55.703125 87.972656-113.441407 96.949219-85.445312 13.277343-169.867187 29.507812-171.664062 127.367187v27.03125c0 33.402344 27.078125 60.476563 60.480469 60.476563h198.894531c5.992188 0 11.894531-1.492188 17.167969-4.339844l35.53125-19.195313c10.300781-5.5625 22.914062-2.089843 29.46875 7.613281 6.492187 9.605469 17.484375 15.925782 29.953125 15.925782h49.351562c20.539063 0 37.1875-16.652344 37.1875-37.1875v-249.710938c0-29.277344-23.734375-53.011718-53.011718-53.011718zm0 0" fill="#d7f3ff"/><path d="m405.023438 23.117188h-23.710938c11.3125 42.609374 35.585938 161.234374-26.566406 216.59375-61.84375 55.082031-139.578125 62.789062-175.699219 123.316406h80.328125c5.996094 0 11.894531-1.492188 17.167969-4.34375l35.535156-19.191406c10.300781-5.566407 22.910156-2.09375 29.464844 7.609374 6.492187 9.609376 17.484375 15.925782 29.953125 15.925782h49.351562c20.535156 0 37.183594-16.648438 37.183594-37.1875v-249.710938c0-29.277344-23.734375-53.011718-53.007812-53.011718zm0 0" fill="#bdebff"/><path d="m97.605469 135.324219c4.214843-10.644531 16.265625-15.859375 26.914062-11.644531 18.671875 7.390624 33.625 22.34375 41.019531 41.015624 4.214844 10.648438-1 22.699219-11.648437 26.914063-10.648437 4.21875-22.695313-1-26.914063-11.644531-3.195312-8.070313-9.859374-14.054688-17.722656-17.726563-12.65625-5.90625-14.789062-18.980469-11.648437-26.914062zm0 0" fill="#7de2e2"/><path d="m168.289062 120.71875c4.210938-10.648438 16.261719-15.863281 26.910157-11.648438 18.671875 7.394532 33.625 22.34375 41.019531 41.019532 4.214844 10.648437-1 22.695312-11.644531 26.914062-10.652344 4.214844-22.699219-1.003906-26.914063-11.648437-3.195312-8.070313-9.863281-14.054688-17.726562-17.726563-12.65625-5.90625-14.785156-18.980468-11.644532-26.910156zm0 0" fill="#7de2e2"/><path d="m405.023438 23.117188h-73.136719c-19.585938 0-37.53125 10.816406-46.78125 28.082031-6.421875 11.988281-15.246094 26.449219-26.488281 40.542969h199.414062v-15.613282c0-29.277344-23.734375-53.011718-53.007812-53.011718zm0 0" fill="#ffde55"/><path d="m0 302.546875c0 33.402344 27.078125 60.476563 60.480469 60.476563h198.894531c5.996094 0 11.894531-1.492188 17.167969-4.339844l35.535156-19.195313c10.300781-5.5625 22.914063-2.089843 29.464844 7.613281 6.492187 9.605469 17.484375 15.925782 29.953125 15.925782h49.351562c20.535156 0 37.183594-16.652344 37.183594-37.1875v-23.292969zm0 0" fill="#c6c5ca"/><path d="m265.601562 437.511719h-244.488281c-11.613281 0-21.113281-9.5-21.113281-21.113281 0-11.613282 9.5-21.113282 21.113281-21.113282h244.488281c11.613282 0 21.117188 9.5 21.117188 21.113282 0 11.613281-9.503906 21.113281-21.117188 21.113281zm0 0" fill="#bdfaff"/><path d="m436.917969 437.511719h-75.289063c-11.613281 0-21.113281-9.5-21.113281-21.113281 0-11.613282 9.5-21.113282 21.113281-21.113282h75.289063c11.613281 0 21.113281 9.5 21.113281 21.113282 0 11.613281-9.5 21.113281-21.113281 21.113281zm0 0" fill="#bdfaff"/><path d="m265.601562 395.28125h-49.96875c11.613282 0 21.113282 9.503906 21.113282 21.117188 0 11.613281-9.5 21.113281-21.113282 21.113281h49.96875c11.613282 0 21.117188-9.5 21.117188-21.113281 0-11.613282-9.503906-21.117188-21.117188-21.117188zm0 0" fill="#a0f0f2"/><path d="m436.917969 395.28125h-49.96875c11.613281 0 21.113281 9.503906 21.113281 21.117188 0 11.613281-9.5 21.113281-21.113281 21.113281h49.96875c11.613281 0 21.113281-9.5 21.113281-21.113281 0-11.613282-9.5-21.117188-21.113281-21.117188zm0 0" fill="#a0f0f2"/><path d="m265.601562 512h-244.488281c-11.613281 0-21.113281-9.5-21.113281-21.113281s9.5-21.117188 21.113281-21.117188h244.488281c11.613282 0 21.117188 9.503907 21.117188 21.117188s-9.503906 21.113281-21.117188 21.113281zm0 0" fill="#bdfaff"/><path d="m436.917969 512h-75.289063c-11.613281 0-21.113281-9.5-21.113281-21.113281s9.5-21.117188 21.113281-21.117188h75.289063c11.613281 0 21.113281 9.503907 21.113281 21.117188s-9.5 21.113281-21.113281 21.113281zm0 0" fill="#bdfaff"/><path d="m179.046875 363.023438h80.328125c5.992188 0 11.894531-1.492188 17.167969-4.339844l35.53125-19.195313c10.300781-5.5625 22.914062-2.089843 29.46875 7.613281 6.492187 9.605469 17.484375 15.925782 29.953125 15.925782h49.351562c20.535156 0 37.183594-16.652344 37.183594-37.1875v-23.292969h-206.941406c-29.1875 15.4375-55.164063 32.195313-72.042969 60.476563zm0 0" fill="#acabb1"/><path d="m405.023438 23.117188h-23.710938c4.050781 15.257812 9.761719 40.265624 12.574219 68.625h64.144531v-15.613282c0-29.277344-23.734375-53.011718-53.007812-53.011718zm0 0" fill="#ffcd00"/><g fill="#a0f0f2"><path d="m265.601562 469.769531h-49.96875c11.613282 0 21.113282 9.5 21.113282 21.113281 0 11.613282-9.5 21.117188-21.113282 21.117188h49.96875c11.613282 0 21.117188-9.503906 21.117188-21.117188 0-11.609374-9.503906-21.113281-21.117188-21.113281zm0 0"/><path d="m436.917969 469.769531h-49.96875c11.613281 0 21.113281 9.5 21.113281 21.113281 0 11.613282-9.5 21.117188-21.113281 21.117188h49.96875c11.613281 0 21.113281-9.503906 21.113281-21.117188 0-11.609374-9.5-21.113281-21.113281-21.113281zm0 0"/></g></svg>