<svg viewBox="0 0 512 512.00022" xmlns="http://www.w3.org/2000/svg"><path d="m109.152344 402.847656c-23.839844-23.839844-23.839844-62.855468 0-86.695312l41.542968-41.539063c23.839844-23.84375 62.851563-23.84375 86.691407 0 23.839843 23.839844 23.839843 62.851563 0 86.691407l-41.539063 41.542968c-23.839844 23.839844-62.855468 23.839844-86.695312 0zm0 0" fill="#c6c5ca"/><path d="m237.386719 274.613281c-23.839844-23.839843-62.851563-23.839843-86.691407 0l-41.542968 41.542969c-13.894532 13.894531-19.691406 32.9375-17.390625 51.132812 41.542969-3.132812 79.332031 27.425782 95.464843 42.726563 3.039063-2.085937 5.925782-4.472656 8.621094-7.167969l41.539063-41.539062c23.839843-23.84375 23.839843-62.855469 0-86.695313zm0 0" fill="#acabb1"/><path d="m128.96875 120.765625 262.261719 262.261719-34.820313 34.820312-262.261718-262.261718zm0 0" fill="#c6c5ca"/><path d="m128.96875 120.765625 131.109375 131.109375-34.820313 34.820312-131.109374-131.109374zm0 0" fill="#acabb1"/><path d="m424.289062 122.699219c0 19.320312-15.664062 34.984375-34.988281 34.984375s-34.988281-15.664063-34.988281-34.984375c0-19.324219 15.664062-34.988281 34.988281-34.988281s34.988281 15.664062 34.988281 34.988281zm0 0" fill="#d8d7da"/><path d="m319.328125 192.667969c26.578125 26.578125 64.550781 34.808593 98.183594 24.691406 22.910156-6.890625 30.265625-35.648437 13.351562-52.5625l-83.660156-83.660156c-16.914063-16.914063-45.671875-9.558594-52.5625 13.351562-10.117187 33.632813-1.886719 71.605469 24.6875 98.179688zm0 0" fill="#eaeaea"/><path d="m338.304688 207.511719c-25.902344-57.441407.875-101.597657 15.523437-119.75l-6.625-6.625c-16.914063-16.917969-45.671875-9.558594-52.5625 13.351562-10.113281 33.632813-1.886719 71.605469 24.691406 98.179688 5.828125 5.832031 12.210938 10.78125 18.972657 14.84375zm0 0" fill="#d8d7da"/><path d="m192.152344 393.078125-73.230469-73.230469c-18.273437-18.273437-18.273437-47.902344 0-66.179687l107.695313-107.695313c18.273437-18.273437 47.902343-18.273437 66.179687 0l73.230469 73.230469c18.273437 18.277344 18.273437 47.90625 0 66.179687l-107.695313 107.695313c-18.277343 18.273437-47.90625 18.273437-66.179687 0zm0 0" fill="#d8d7da"/><path d="m366.027344 219.203125-73.230469-73.230469c-18.277344-18.273437-47.90625-18.273437-66.179687 0l-107.695313 107.695313c-18.273437 18.277343-18.273437 47.90625 0 66.179687l35.652344 35.652344c5.226562-26.265625 29.097656-47.695312 29.097656-47.695312l72.234375-72.234376c18.761719-18.757812 47.867188-21.945312 70.503906-8.105468 22.460938 13.730468 41.246094 17.304687 52.816406 17.945312-1.417968-9.589844-5.820312-18.824218-13.199218-26.207031zm0 0" fill="#c6c5ca"/><path d="m46.136719 228.769531-36.515625-36.515625c-12.828125-12.828125-12.828125-33.632812 0-46.460937l109.117187-109.117188c12.832031-12.832031 33.632813-12.832031 46.464844 0l36.511719 36.511719c12.832031 12.832031 12.832031 33.632812 0 46.460938l-109.117188 109.121093c-12.828125 12.828125-33.632812 12.828125-46.460937 0zm0 0" fill="#78a3ef"/><path d="m319.746094 502.378906-36.515625-36.515625c-12.828125-12.828125-12.828125-33.632812 0-46.460937l109.117187-109.117188c12.832032-12.832031 33.632813-12.832031 46.464844 0l36.511719 36.511719c12.832031 12.832031 12.832031 33.632813 0 46.460937l-109.117188 109.121094c-12.828125 12.828125-33.632812 12.828125-46.460937 0zm0 0" fill="#78a3ef"/><path d="m378.351562 6.578125c.574219-4.164063 4.414063-7.078125 8.578126-6.5078125 31.878906 4.3789065 60.761718 18.7226565 83.519531 41.4804685 22.589843 22.59375 36.902343 51.25 41.390625 82.875.589844 4.160157-2.304688 8.011719-6.46875 8.605469-4.164063.585938-8.015625-2.304688-8.605469-6.46875-4.019531-28.332031-16.84375-54.007812-37.082031-74.246094-20.390625-20.390625-46.394532-32.386718-74.824219-37.164062-5.3125-.890625-6.84375-6.121094-6.507813-8.574219zm0 0" fill="#ffeb99"/><path d="m400.664062 53.679688c.910157-4.105469 4.972657-6.695313 9.078126-5.785157 6.632812 1.472657 19.878906 6.0625 34.09375 20.273438 14.195312 14.195312 18.652343 27.121093 20.042968 33.566406.890625 4.109375-1.722656 8.15625-5.832031 9.046875-4.109375.886719-8.160156-1.722656-9.046875-5.832031-.835938-3.871094-4.0625-14.152344-15.929688-26.019531-11.910156-11.910157-22.632812-15.09375-26.621093-16.171876-5.265625-1.421874-6.371094-6.441406-5.785157-9.078124zm0 0" fill="#ffeb99"/><g fill="#acabb1"><path d="m275.964844 191.140625c0 9.605469-7.785156 17.394531-17.394532 17.394531-9.605468 0-17.394531-7.789062-17.394531-17.394531s7.789063-17.394531 17.394531-17.394531c9.609376 0 17.394532 7.789062 17.394532 17.394531zm0 0"/><path d="m308.558594 265.726562-21.824219-21.824218c-6.765625-6.765625-6.765625-17.835938 0-24.597656 6.765625-6.765626 17.835937-6.765626 24.601563 0l21.824218 21.824218c6.765625 6.765625 6.765625 17.832032 0 24.597656-6.765625 6.765626-17.835937 6.765626-24.601562 0zm0 0"/><path d="m212.757812 361.546875-62.304687-62.304687c-6.789063-6.789063-6.789063-17.792969 0-24.582032l52.210937-52.210937c6.789063-6.789063 17.796876-6.789063 24.582032 0l62.304687 62.304687c6.789063 6.789063 6.789063 17.792969 0 24.582032l-52.210937 52.210937c-6.789063 6.789063-17.792969 6.789063-24.582032 0zm0 0"/></g><path d="m210.84375 102.058594c1.765625-10.171875-1.273438-21.015625-9.128906-28.871094l-36.511719-36.511719c-12.832031-12.832031-33.632813-12.832031-46.464844 0l-64.90625 64.90625zm0 0" fill="#6392d6"/><path d="m484.453125 375.667969c1.765625-10.171875-1.273437-21.015625-9.128906-28.871094l-36.511719-36.515625c-12.832031-12.828125-33.632812-12.828125-46.464844 0l-64.90625 64.910156zm0 0" fill="#6392d6"/></svg>