<svg viewBox="-54 1 511 511.99998" xmlns="http://www.w3.org/2000/svg"><path d="m356.285156 230.21875-43.007812-6.539062 28.363281-186.550782 43.007813 6.539063zm0 0" fill="#c6c5ca"/><path d="m328.289062 124.789062c17.789063 8.890626 43.050782 6.269532 43.050782 6.269532l13.285156-87.390625-43.011719-6.535157zm0 0" fill="#acabb1"/><path d="m359.015625 18.039062 6.539063 43.007813-186.550782 28.359375-6.539062-43.007812zm0 0" fill="#c6c5ca"/><path d="m359.007812 18.054688-87.390624 13.28125s-1.675782 24.765624 6.269531 43.050781l87.660156-13.324219zm0 0" fill="#acabb1"/><path d="m189.410156 389.308594h-165.886718l-16.992188 90.554687c-3.132812 16.699219 9.675781 32.136719 26.667969 32.136719h146.535156c16.992187 0 29.804687-15.4375 26.667969-32.136719zm0 0" fill="#78a3ef"/><path d="m84.117188 479.863281 16.992187-90.554687h-77.585937l-16.992188 90.554687c-3.132812 16.699219 9.675781 32.136719 26.667969 32.136719h77.585937c-16.992187 0-29.800781-15.4375-26.667968-32.136719zm0 0" fill="#6392d6"/><path d="m88.023438 299.003906-64.5 90.304688h162.546874l-46.441406-90.304688zm0 0" fill="#78a3ef"/><path d="m167.21875 285.125c0 27.429688-22.238281 49.667969-49.667969 49.667969-27.429687 0-49.664062-22.238281-49.664062-49.667969s22.234375-49.664062 49.664062-49.664062c27.429688 0 49.667969 22.234374 49.667969 49.664062zm0 0" fill="#a0f0f2"/><path d="m347.316406 24.597656 30.761719 30.757813-133.433594 133.433593-30.761719-30.761718zm0 0" fill="#d8d7da"/><path d="m111.9375 290.738281c66.945312 66.949219 165.855469 82.449219 247.605469 46.507813 38.234375-16.8125 47.453125-66.9375 17.917969-96.46875l-215.558594-215.5625c-29.535156-29.53125-79.660156-20.316406-96.46875 17.917968-35.945313 81.75-20.445313 180.660157 46.503906 247.605469zm0 0" fill="#78a3ef"/><path d="m347.316406 24.597656-62.851562 62.855469c3.765625 6.183594 8.289062 11.96875 13.542968 17.21875 5.25 5.25 11.03125 9.773437 17.21875 13.542969l62.851563-62.855469zm0 0" fill="#c6c5ca"/><path d="m402.675781 39.980469c0 22.078125-17.898437 39.976562-39.980469 39.976562-22.078124 0-39.976562-17.898437-39.976562-39.976562 0-22.082031 17.898438-39.980469 39.976562-39.980469 22.082032 0 39.980469 17.898438 39.980469 39.980469zm0 0" fill="#eaeaea"/><path d="m189.621094 419.363281h-166.308594c-12.546875 0-22.8125-10.265625-22.8125-22.816406 0-12.546875 10.265625-22.8125 22.8125-22.8125h166.308594c12.546875 0 22.8125 10.265625 22.8125 22.8125 0 12.550781-10.265625 22.816406-22.8125 22.816406zm0 0" fill="#a0f0f2"/><path d="m72.527344 396.546875c0-12.546875 10.269531-22.8125 22.816406-22.8125h-72.03125c-12.546875 0-22.8125 10.265625-22.8125 22.8125s10.265625 22.8125 22.8125 22.8125h72.03125c-12.546875.003906-22.816406-10.261719-22.816406-22.8125zm0 0" fill="#7de2e2"/><path d="m177.730469 41.046875-15.828125-15.832031c-29.535156-29.53125-79.660156-20.316406-96.46875 17.917968-35.945313 81.75-20.441406 180.660157 46.503906 247.609376 34.222656 34.21875 76.800781 55 121.164062 62.335937-124.195312-124.820313-76.867187-264.921875-55.371093-312.03125zm0 0" fill="#6392d6"/></svg>