<svg viewBox="0 0 512 512.00022" xmlns="http://www.w3.org/2000/svg"><path d="m499.722656 499.722656c-16.367187 16.367188-43.152344 16.367188-59.523437 0l-114.328125-114.332031c-16.367188-16.367187-16.367188-43.152344 0-59.519531 16.367187-16.371094 43.152344-16.371094 59.523437 0l114.328125 114.328125c16.367188 16.371093 16.367188 43.15625 0 59.523437zm0 0" fill="#c6c5ca"/><path d="m431.6875 437.539062c-8.839844-11.175781-10.847656-26.289062-5.265625-39.398437l9.328125-21.914063-50.355469-50.355468c-16.371093-16.371094-43.15625-16.371094-59.523437 0-16.367188 16.367187-16.367188 43.152344 0 59.519531l114.332031 114.332031c16.367187 16.371094 43.152344 16.371094 59.519531 0 0 0-53.339844-43.597656-68.035156-62.183594zm0 0" fill="#acabb1"/><path d="m406.558594 364.101562-42.457032 42.457032c-15.5625 15.566406-40.796874 15.566406-56.363281 0l-46.171875-46.167969 98.820313-98.820313 46.171875 46.171876c15.566406 15.5625 15.566406 40.796874 0 56.359374zm0 0" fill="#78a3ef"/><path d="m393.363281 377.300781c-37.359375-17.082031-56.828125-56.929687-65.894531-82.808593l-65.898438 65.894531 46.171876 46.171875c15.5625 15.566406 40.796874 15.566406 56.363281 0zm0 0" fill="#6392d6"/><path d="m411.054688 205.527344c0 113.511718-92.015626 205.527344-205.527344 205.527344-113.507813 0-205.527344-92.015626-205.527344-205.527344 0-113.507813 92.019531-205.527344 205.527344-205.527344 113.511718 0 205.527344 92.019531 205.527344 205.527344zm0 0" fill="#d8d7da"/><path d="m164.21875 295.03125c-80.261719-80.265625-79.941406-210.566406.261719-290.914062-38.207031 7.753906-74.652344 26.445312-104.28125 56.074218-80.265625 80.265625-80.265625 210.398438 0 290.660156 80.179687 80.183594 210.140625 80.257813 290.425781.242188-65.285156 13.246094-135.773438-5.429688-186.40625-56.0625zm0 0" fill="#c6c5ca"/><path d="m310.980469 310.980469c-58.398438 58.394531-153.417969 58.398437-211.816407 0-58.398437-58.398438-58.398437-153.417969 0-211.816407 58.398438-58.398437 153.417969-58.398437 211.816407 0 58.394531 58.398438 58.394531 153.417969 0 211.816407zm0 0" fill="#bdfaff"/><path d="m114.304688 85.917969c-5.183594 3.96875-10.402344 8.507812-15.140626 13.246093-58.398437 58.398438-58.398437 153.417969 0 211.816407 41.375 41.375 101.152344 53.425781 153.242188 36.171875-32.277344-9.3125-62.746094-26.679688-88.1875-52.113282-56.519531-56.523437-73-137.96875-49.914062-209.121093zm0 0" fill="#a0f0f2"/><path d="m108.726562 169.558594c11.734376-.972656 20.65625-11.15625 21.351563-22.910156.683594-11.53125 10.578125-20.316407 22.105469-19.636719 11.527344.683593 20.320312 10.578125 19.636718 22.105469-1.878906 31.761718-26.144531 57.800781-57.695312 61.90625-11.449219 1.488281-20.703125-6.816407-23.429688-18.035157-2.523437-10.371093 5.042969-22.351562 18.03125-23.429687zm0 0" fill="#92dd7a"/><path d="m150.65625 285.40625c9.175781-7.378906 10.867188-20.808594 4.863281-30.9375-5.894531-9.9375-2.613281-22.757812 7.316407-28.648438 9.933593-5.886718 22.757812-2.609374 28.648437 7.320313 16.230469 27.367187 10.703125 62.527344-13.140625 83.597656-8.652344 7.644531-20.96875 5.945313-29.511719-1.824219-7.894531-7.179687-8.335937-21.34375 1.824219-29.507812zm0 0" fill="#ffde55"/><path d="m286.484375 201.085938c-10.964844-4.285157-23.457031.933593-29.25 11.183593-5.683594 10.058594-18.4375 13.59375-28.488281 7.914063-10.050782-5.683594-13.59375-18.4375-7.914063-28.488282 15.65625-27.699218 48.902344-40.410156 79.042969-30.21875 10.941406 3.695313 15.597656 15.226563 13.113281 26.5-2.296875 10.425782-14.367187 17.855469-26.503906 13.109376zm0 0" fill="#d7abf4"/><path d="m284.21875 270.578125c0 11.6875-9.472656 21.164063-21.160156 21.164063-11.691406 0-21.164063-9.476563-21.164063-21.164063s9.472657-21.164063 21.164063-21.164063c11.6875 0 21.160156 9.476563 21.160156 21.164063zm0 0" fill="#66d3d0"/><path d="m247.398438 119.3125c0 11.6875-9.476563 21.164062-21.164063 21.164062s-21.164063-9.476562-21.164063-21.164062 9.476563-21.164062 21.164063-21.164062 21.164063 9.476562 21.164063 21.164062zm0 0" fill="#ffb864"/></svg>