<svg viewBox="-23 1 511 511.99998" xmlns="http://www.w3.org/2000/svg"><path d="m267.921875 512h-62.128906c-10.269531 0-18.671875-8.402344-18.671875-18.671875 0-10.265625 8.402344-18.667969 18.671875-18.667969h62.128906c10.265625 0 18.667969 8.402344 18.667969 18.667969 0 10.269531-8.402344 18.671875-18.667969 18.671875zm0 0" fill="#d7f3ff"/><path d="m110.195312 70.007812c-6.730468-8.390624-19.019531-9.785156-27.398437-3.027343-6.359375 5.125-13.222656.554687-15.003906-1.671875-3.675781-4.597656-2.925781-11.332032 1.671875-15.007813 8.417968-6.726562 9.789062-19.007812 3.058594-27.421875-6.730469-8.417968-19.003907-9.785156-27.425782-3.058594-14.804687 11.835938-21.027344 30.46875-17.804687 47.917969.644531 3.488281-.339844 7.097657-2.597657 9.828125-15.453124 18.691406-24.195312 42.363282-24.195312 67.238282 0 58.199218 47.347656 105.546874 105.546875 105.546874v-39.023437c-36.683594 0-66.523437-29.84375-66.523437-66.523437 0-11.738282 3.089843-23.058594 8.734374-32.953126 2.800782-4.902343 8.632813-7.128906 14.058594-5.570312 10.707032 3.082031 28.296875 4.730469 44.488282-8.527344 8.308593-6.800781 10.113281-19.371094 3.390624-27.746094zm0 0" fill="#d8d7da"/><path d="m356.660156 70.007812c6.734375-8.390624 19.019532-9.785156 27.398438-3.027343 6.359375 5.125 13.226562.554687 15.003906-1.671875 3.675781-4.597656 2.925781-11.332032-1.671875-15.007813-8.417969-6.726562-9.785156-19.007812-3.058594-27.421875 6.730469-8.417968 19.003907-9.785156 27.425781-3.058594 14.800782 11.835938 21.027344 30.46875 17.804688 47.921876-.644531 3.484374.339844 7.09375 2.597656 9.828124 15.453125 18.6875 24.195313 42.359376 24.195313 67.238282 0 58.199218-47.347657 105.542968-105.542969 105.542968v-39.023437c36.679688 0 66.519531-29.839844 66.519531-66.519531 0-11.742188-3.089843-23.058594-8.734375-32.953125-2.796875-4.902344-8.632812-7.132813-14.058594-5.570313-10.707031 3.082032-28.296874 4.730469-44.488281-8.527344-8.308593-6.804687-10.113281-19.375-3.390625-27.75zm0 0" fill="#d8d7da"/><path d="m106.046875 250.351562v-39.023437c-35.9375 0-65.308594-28.632813-66.488281-64.285156-10.835938 7.464843-22.710938 18.625-32.242188 35.089843 15.105469 39.832032 53.664063 68.21875 98.730469 68.21875zm0 0" fill="#c6c5ca"/><path d="m360.8125 250.351562v-39.023437c35.933594 0 65.304688-28.632813 66.484375-64.285156 10.835937 7.464843 22.710937 18.628906 32.242187 35.089843-15.105468 39.835938-53.664062 68.21875-98.726562 68.21875zm0 0" fill="#c6c5ca"/><path d="m118.6875 221.96875c0 24.6875-20.015625 44.703125-44.703125 44.703125-24.691406 0-44.703125-20.015625-44.703125-44.703125s20.011719-44.703125 44.703125-44.703125c24.6875 0 44.703125 20.015625 44.703125 44.703125zm0 0" fill="#ff929f"/><path d="m437.574219 221.96875c0 24.6875-20.011719 44.703125-44.703125 44.703125-24.6875 0-44.703125-20.015625-44.703125-44.703125s20.015625-44.703125 44.703125-44.703125c24.691406 0 44.703125 20.015625 44.703125 44.703125zm0 0" fill="#ff929f"/><path d="m304.3125 152.183594h-134.910156l-52.519532 20.761718c-29.695312 11.742188-45.652343 44.082032-36.894531 74.792969l19.453125 68.230469c8.339844 29.257812 30.945313 52.398438 60.101563 61.085938 22.089843 6.582031 49.546875 12.4375 77.3125 12.4375 27.769531 0 55.226562-5.855469 77.316406-12.4375 29.15625-8.6875 51.761719-31.828126 60.101563-61.085938l19.453124-68.230469c8.753907-30.710937-7.203124-63.050781-36.894531-74.792969zm0 0" fill="#d8d7da"/><path d="m238.277344 217.308594c70.652344-10.226563 95.632812-34.105469 104.464844-49.933594l-38.429688-15.191406h-134.910156l-52.519532 20.761718c-29.695312 11.742188-45.652343 44.085938-36.894531 74.792969l19.453125 68.234375c8.339844 29.257813 30.945313 52.394532 60.101563 61.082032 15.773437 4.699218 34.292969 9.03125 53.699219 11.125-18.746094-24.871094-27.0625-64.992188-30.582032-99.582032-3.546875-34.84375 20.953125-66.269531 55.617188-71.289062zm0 0" fill="#c6c5ca"/><path d="m328.464844 151.242188v-56.207032c0-52.269531-42.765625-95.035156-95.035156-95.035156-52.269532 0-95.039063 42.765625-95.039063 95.035156v56.207032c0 14.371093 11.652344 26.023437 26.023437 26.023437h138.027344c14.371094 0 26.023438-11.652344 26.023438-26.023437zm0 0" fill="#eaeaea"/><path d="m195.203125 151.242188v-56.207032c0-42.382812 28.128906-78.519531 66.636719-90.671875-8.980469-2.832031-18.527344-4.363281-28.410156-4.363281-52.269532 0-95.039063 42.765625-95.039063 95.035156v56.207032c0 14.371093 11.652344 26.023437 26.023437 26.023437h56.8125c-14.371093 0-26.023437-11.652344-26.023437-26.023437zm0 0" fill="#d8d7da"/><path d="m286.050781 89.398438c0 29.0625-23.558593 52.625-52.621093 52.625s-52.625-23.5625-52.625-52.625 23.5625-52.621094 52.625-52.621094 52.621093 23.558594 52.621093 52.621094zm0 0" fill="#92d8ff"/><path d="m211.933594 41.351562c-18.335938 8.226563-31.128906 26.648438-31.128906 48.046876 0 14.003906 5.480468 26.742187 14.402343 36.171874v-30.535156c-.003906-19.871094 6.195313-38.386718 16.726563-53.683594zm0 0" fill="#72cef7"/><path d="m256.183594 89.398438c0 12.570312-10.1875 22.757812-22.753906 22.757812-12.570313 0-22.757813-10.1875-22.757813-22.757812 0-12.566407 10.1875-22.753907 22.757813-22.753907 12.566406 0 22.753906 10.1875 22.753906 22.753907zm0 0" fill="#ff929f"/><path d="m163.484375 236.308594c0 11.964844-9.699219 21.664062-21.664063 21.664062-11.964843 0-21.664062-9.699218-21.664062-21.664062 0-11.960938 9.699219-21.660156 21.664062-21.660156 11.964844 0 21.664063 9.699218 21.664063 21.660156zm0 0" fill="#ffde55"/><path d="m353.554688 236.308594c0 11.964844-9.699219 21.664062-21.660157 21.664062-11.964843 0-21.664062-9.699218-21.664062-21.664062 0-11.960938 9.699219-21.660156 21.664062-21.660156 11.960938 0 21.660157 9.699218 21.660157 21.660156zm0 0" fill="#ffeb99"/><path d="m264.425781 257.972656h-55.140625c-11.914062 0-21.660156-9.75-21.660156-21.664062 0-11.914063 9.746094-21.664063 21.660156-21.664063h55.140625c11.914063 0 21.664063 9.75 21.664063 21.664063 0 11.914062-9.75 21.664062-21.664063 21.664062zm0 0" fill="#7ec66a"/><g fill="#acabb1"><path d="m236.855469 359.476562c-4.265625 0-7.726563-3.460937-7.726563-7.726562v-64.453125c0-4.265625 3.460938-7.726563 7.726563-7.726563 4.269531 0 7.726562 3.460938 7.726562 7.726563v64.453125c0 4.265625-3.457031 7.726562-7.726562 7.726562zm0 0"/><path d="m180.542969 344.976562c-4.269531 0-7.726563-3.460937-7.726563-7.726562v-43.117188c0-4.269531 3.457032-7.726562 7.726563-7.726562s7.726562 3.457031 7.726562 7.726562v43.117188c0 4.265625-3.460937 7.726562-7.726562 7.726562zm0 0"/><path d="m293.171875 344.976562c-4.269531 0-7.726563-3.460937-7.726563-7.726562v-43.117188c0-4.269531 3.457032-7.726562 7.726563-7.726562 4.265625 0 7.726563 3.457031 7.726563 7.726562v43.117188c0 4.265625-3.460938 7.726562-7.726563 7.726562zm0 0"/></g><path d="m307.054688 450.746094h-140.398438c-10.265625 0-18.667969-8.402344-18.667969-18.667969 0-10.269531 8.398438-18.671875 18.667969-18.671875h140.398438c10.269531 0 18.671874 8.402344 18.671874 18.671875 0 10.265625-8.402343 18.667969-18.671874 18.667969zm0 0" fill="#d7f3ff"/><path d="m187.625 432.078125c0-10.269531 8.398438-18.671875 18.667969-18.671875h-39.636719c-10.265625 0-18.667969 8.402344-18.667969 18.671875 0 10.265625 8.402344 18.667969 18.667969 18.667969h39.636719c-10.269531 0-18.667969-8.402344-18.667969-18.667969zm0 0" fill="#bdebff"/><path d="m226.757812 493.328125c0-10.265625 8.402344-18.667969 18.671876-18.667969h-39.636719c-10.269531 0-18.671875 8.402344-18.671875 18.667969 0 10.269531 8.402344 18.671875 18.671875 18.671875h39.636719c-10.269532 0-18.671876-8.402344-18.671876-18.671875zm0 0" fill="#bdebff"/></svg>