<svg viewBox="1 -11 511.99998 511" xmlns="http://www.w3.org/2000/svg"><path d="m240.546875 59.867188h30.90625v181.757812h-30.90625zm0 0" fill="#acabb1"/><path d="m396.976562 489.355469h-281.953124c-63.527344 0-115.023438-51.5-115.023438-115.027344v-143.523437c0-53.089844 54.621094-88.792969 103.132812-67.230469 45.769532 20.34375 100.929688 38.339843 152.867188 38.339843s107.101562-17.996093 152.867188-38.339843c48.511718-21.5625 103.132812 14.140625 103.132812 67.230469v143.523437c0 63.527344-51.5 115.027344-115.023438 115.027344zm0 0" fill="#d8d7da"/><path d="m236.667969 229.628906c44.429687-13.089844 66.839843-32.191406 66.839843-32.191406-15.902343 2.84375-31.84375 4.476562-47.507812 4.476562-51.9375 0-107.097656-17.992187-152.867188-38.335937-48.511718-21.566406-103.132812 14.136719-103.132812 67.226563v143.523437c0 63.527344 51.496094 115.027344 115.023438 115.027344h83.972656c-35.324219-26.804688-50.371094-73.191407-55.835938-118.636719-7.648437-63.585938 32.074219-122.992188 93.507813-141.089844zm0 0" fill="#c6c5ca"/><path d="m422.207031 271.652344c0 16.582031-13.441406 30.023437-30.023437 30.023437-16.585938 0-30.027344-13.441406-30.027344-30.023437 0-16.585938 13.441406-30.027344 30.027344-30.027344 16.582031 0 30.023437 13.441406 30.023437 30.027344zm0 0" fill="#ff737d"/><path d="m422.207031 388.921875c0 16.585937-13.441406 30.027344-30.023437 30.027344-16.585938 0-30.027344-13.441407-30.027344-30.027344 0-16.582031 13.441406-30.023437 30.027344-30.023437 16.582031 0 30.023437 13.441406 30.023437 30.023437zm0 0" fill="#ff737d"/><path d="m363.574219 330.289062c0 16.582032-13.445313 30.023438-30.027344 30.023438-16.585937 0-30.027344-13.441406-30.027344-30.023438 0-16.585937 13.441407-30.027343 30.027344-30.027343 16.582031 0 30.027344 13.441406 30.027344 30.027343zm0 0" fill="#66d3d0"/><path d="m480.84375 330.289062c0 16.582032-13.441406 30.023438-30.023438 30.023438-16.585937 0-30.027343-13.441406-30.027343-30.023438 0-16.585937 13.441406-30.027343 30.027343-30.027343 16.582032 0 30.023438 13.441406 30.023438 30.027343zm0 0" fill="#66d3d0"/><path d="m170.382812 379.21875c0 30.894531-25.046874 55.945312-55.945312 55.945312-30.894531 0-55.945312-25.050781-55.945312-55.945312 0-30.898438 25.050781-55.945312 55.945312-55.945312 30.898438 0 55.945312 25.046874 55.945312 55.945312zm0 0" fill="#898890"/><path d="m115.46875 281.554688h-33.230469c-9.632812 0-17.515625-7.882813-17.515625-17.515626 0-9.632812 7.882813-17.515624 17.515625-17.515624h33.230469c9.632812 0 17.515625 7.882812 17.515625 17.515624 0 9.632813-7.882813 17.515626-17.515625 17.515626zm0 0" fill="#53b8e5"/><path d="m221.128906 281.554688h-33.230468c-9.632813 0-17.515626-7.882813-17.515626-17.515626 0-9.632812 7.882813-17.515624 17.515626-17.515624h33.230468c9.632813 0 17.515625 7.882812 17.515625 17.515624-.003906 9.632813-7.882812 17.515626-17.515625 17.515626zm0 0" fill="#53b8e5"/><path d="m325.042969 69.542969c0 38.132812-30.910157 69.042969-69.042969 69.042969s-69.042969-30.910157-69.042969-69.042969c0-38.132813 30.910157-69.042969 69.042969-69.042969s69.042969 30.910156 69.042969 69.042969zm0 0" fill="#ffde55"/><path d="m254.097656 69.542969c0-25.945313 14.332032-48.542969 35.488282-60.339844-9.941407-5.542969-21.398438-8.703125-33.585938-8.703125-38.128906 0-69.042969 30.910156-69.042969 69.042969 0 38.132812 30.914063 69.042969 69.042969 69.042969 12.1875 0 23.648438-3.160157 33.585938-8.703126-21.15625-11.800781-35.488282-34.394531-35.488282-60.339843zm0 0" fill="#ffcd00"/></svg>