<svg viewBox="1 -81 511.99895 511" xmlns="http://www.w3.org/2000/svg"><path d="m382.167969 313.339844c8.707031 3.007812 18.292969-1.652344 21.300781-10.359375l96.847656-280.269531c3.007813-8.703126-1.65625-18.289063-10.359375-21.296876-8.707031-3.007812-18.292969 1.652344-21.300781 10.359376l-96.847656 280.269531c-3.007813 8.703125 1.652344 18.289062 10.359375 21.296875zm0 0" fill="#d8d7da"/><path d="m129.832031 313.339844c-8.707031 3.007812-18.292969-1.652344-21.300781-10.359375l-96.847656-280.269531c-3.007813-8.703126 1.65625-18.289063 10.359375-21.296876 8.707031-3.007812 18.292969 1.652344 21.300781 10.359376l96.847656 280.269531c3.007813 8.703125-1.652344 18.289062-10.359375 21.296875zm0 0" fill="#d8d7da"/><path d="m57.617188 155.632812 50.914062 147.347657c3.007812 8.707031 12.59375 13.367187 21.300781 10.359375 8.707031-3.007813 13.367188-12.59375 10.359375-21.296875l-50.179687-145.214844c-9.816407 1.230469-20.773438 3.878906-32.394531 8.804687zm0 0" fill="#c6c5ca"/><path d="m454.382812 155.632812-50.914062 147.347657c-3.007812 8.707031-12.59375 13.367187-21.300781 10.359375-8.707031-3.007813-13.367188-12.59375-10.359375-21.296875l50.175781-145.214844c9.820313 1.230469 20.777344 3.878906 32.398437 8.804687zm0 0" fill="#c6c5ca"/><path d="m491.488281 310.648438h-470.976562c-11.328125 0-20.511719-9.183594-20.511719-20.511719v-38.117188c0-11.328125 9.183594-20.511719 20.511719-20.511719h470.976562c11.328125 0 20.511719 9.183594 20.511719 20.511719v38.117188c0 11.328125-9.183594 20.511719-20.511719 20.511719zm0 0" fill="#898890"/><path d="m433.414062 349.367188h-354.828124c-21.621094 0-39.148438-17.527344-39.148438-39.148438v-78.28125c0-21.621094 17.527344-39.148438 39.148438-39.148438h354.828124c21.621094 0 39.148438 17.527344 39.148438 39.148438v78.28125c0 21.621094-17.527344 39.148438-39.148438 39.148438zm0 0" fill="#eaeaea"/><path d="m150.125 310.21875v-78.28125c0-21.621094 17.527344-39.148438 39.148438-39.148438h-110.6875c-21.621094 0-39.148438 17.527344-39.148438 39.148438v78.28125c0 21.621094 17.527344 39.148438 39.148438 39.148438h110.6875c-21.621094 0-39.148438-17.527344-39.148438-39.148438zm0 0" fill="#d8d7da"/><path d="m413.523438 260.226562h-315.046876c-10.507812 0-19.101562-8.59375-19.101562-19.097656 0-10.507812 8.59375-19.101562 19.101562-19.101562h315.046876c10.503906 0 19.101562 8.59375 19.101562 19.101562 0 10.503906-8.597656 19.097656-19.101562 19.097656zm0 0" fill="#f46262"/><path d="m127.847656 241.128906c0-10.507812 8.59375-19.101562 19.097656-19.101562h-48.46875c-10.503906 0-19.101562 8.59375-19.101562 19.101562 0 10.503906 8.597656 19.097656 19.101562 19.097656h48.46875c-10.503906 0-19.097656-8.59375-19.097656-19.097656zm0 0" fill="#d65b5b"/><g fill="#7ec66a"><path d="m114.203125 302.714844c0 9.617187-7.796875 17.414062-17.414063 17.414062-9.617187 0-17.414062-7.796875-17.414062-17.414062 0-9.617188 7.796875-17.410156 17.414062-17.410156 9.617188 0 17.414063 7.792968 17.414063 17.410156zm0 0"/><path d="m202.511719 319.40625h-49.753907c-9.578124 0-17.414062-7.835938-17.414062-17.414062 0-9.578126 7.835938-17.414063 17.414062-17.414063h49.753907c9.578125 0 17.414062 7.835937 17.414062 17.414063 0 9.578124-7.835937 17.414062-17.414062 17.414062zm0 0"/></g></svg>