<svg viewBox="-45 1 511 511.99998" xmlns="http://www.w3.org/2000/svg"><path d="m308.789062 175.570312h-186.867187s67.246094 165.269532-36.40625 299.488282c-11.640625 15.074218-.96875 36.941406 18.078125 36.941406h223.523438c19.046874 0 29.722656-21.867188 18.078124-36.941406-103.652343-134.21875-36.40625-299.488282-36.40625-299.488282zm0 0" fill="#ffeb99"/><path d="m287.386719 303.992188c-1.207031-72.855469 21.402343-128.421876 21.402343-128.421876h-186.867187s27.730469 68.15625 20.128906 152.480469c80.308594 5.082031 124.058594-11.332031 145.335938-24.058593zm0 0" fill="#ffde55"/><path d="m257.507812 112.570312h-84.304687s40.285156 294.632813-27.175781 399.429688h138.660156c-67.464844-104.796875-27.179688-399.429688-27.179688-399.429688zm0 0" fill="#ffde55"/><path d="m173.203125 112.570312s14.742187 107.8125 11.457031 216.199219c24.84375-.859375 44.996094-4.015625 61.175782-8.183593-2.335938-105.5625 11.671874-208.015626 11.671874-208.015626zm0 0" fill="#ffcd00"/><path d="m397.003906 101.359375c-14.382812-15.769531-32.929687-25.460937-52.429687-28.945313-16.023438-2.863281-30.242188-11.9375-39.066407-25.613281-18.171874-28.160156-49.824218-46.800781-85.828124-46.800781-35.269532 0-66.351563 17.894531-84.679688 45.09375-10.230469 15.183594-26.738281 25.1875-45.03125 25.925781-27.664062 1.113281-54.578125 14.472657-72.046875 38.761719-29.347656 40.804688-20.75 98.308594 19.25 128.734375 24.316406 18.496094 54.667969 23.203125 81.855469 15.550781 12.097656-3.40625 25.070312-.320312 34.652344 7.816406 17.792968 15.109376 40.828124 24.226563 65.996093 24.226563 24.101563 0 46.238281-8.359375 63.695313-22.328125 8.242187-6.59375 18.855468-9.238281 29.265625-7.5 27.339843 4.570312 56.429687-3.027344 78.464843-23.214844 38.167969-34.960937 40.785157-93.46875 5.902344-131.707031zm0 0" fill="#ffc477"/><path d="m315.722656 370.21875c-12.304687-14.378906-32.199218-17.671875-47.976562-9.8125-5.59375 2.785156-12.324219 1.539062-16.910156-2.710938-9.3125-8.632812-21.78125-13.910156-35.480469-13.910156-13.703125 0-26.175781 5.28125-35.488281 13.917969-4.582032 4.246094-11.304688 5.492187-16.898438 2.707031-15.773438-7.859375-35.65625-4.578125-47.964844 9.792969-12.675781 14.800781-12.601562 37.09375.183594 51.804687 12.367188 14.230469 32.160156 17.394532 47.839844 9.558594 5.550781-2.777344 12.238281-1.550781 16.78125 2.671875 9.320312 8.667969 21.8125 13.972657 35.546875 13.972657 13.730469 0 26.222656-5.304688 35.542969-13.972657 4.546874-4.226562 11.234374-5.449219 16.785156-2.671875 15.667968 7.832032 35.453125 4.675782 47.824218-9.542968 12.792969-14.703126 12.882813-36.996094.214844-51.804688zm0 0" fill="#ffc477"/><g fill="#ffaf50"><path d="m269.328125 12.867188c-14.695313-8.195313-31.625-12.867188-49.648437-12.867188-35.269532 0-66.351563 17.894531-84.679688 45.09375-10.230469 15.183594-26.738281 25.1875-45.03125 25.925781-27.664062 1.113281-54.578125 14.472657-72.046875 38.761719-29.347656 40.804688-20.75 98.308594 19.25 128.734375 24.316406 18.496094 54.667969 23.203125 81.855469 15.550781 12.097656-3.40625 25.070312-.320312 34.652344 7.816406 17.792968 15.109376 40.828124 24.226563 65.996093 24.226563 8.609375 0 16.984375-1.070313 24.96875-3.078125-91.828125-54.789062-89.863281-112.042969-62.996093-189.175781 20.113281-57.742188 64.234374-75.535157 87.679687-80.988281zm0 0"/><path d="m163.027344 431.5625c5.550781-2.773438 12.238281-1.550781 16.78125 2.675781 9.320312 8.667969 21.8125 13.96875 35.546875 13.96875 8.3125 0 16.179687-1.945312 23.15625-5.402343-19.386719-14.183594-39.273438-19.105469-48.734375-38.722657-10.703125-22.191406 4.539062-46.679687 15.785156-59.382812-9.8125 1.863281-18.65625 6.472656-25.695312 13-4.582032 4.25-11.304688 5.492187-16.898438 2.707031-15.773438-7.855469-35.65625-4.574219-47.964844 9.792969-12.675781 14.800781-12.601562 37.097656.183594 51.804687 12.367188 14.230469 32.164062 17.398438 47.839844 9.558594zm0 0"/></g></svg>