<svg viewBox="-15 1 511 511.99998" xmlns="http://www.w3.org/2000/svg"><path d="m126.867188 230.382812h354.117187v-164.628906c.003906-36.3125-29.4375-65.753906-65.753906-65.753906h-222.609375c-36.316406 0-65.753906 29.441406-65.753906 65.753906zm0 0" fill="#66d3d0"/><path d="m303.925781 0h-111.304687c-36.316406 0-65.753906 29.441406-65.753906 65.753906v164.628906h177.058593zm0 0" fill="#53c1bc"/><path d="m235.949219 49.753906h-36.574219c-12.566406 0-22.753906 10.1875-22.753906 22.753906v157.875h79.449218v-160.503906c.003907-11.113281-9.007812-20.125-20.121093-20.125zm0 0" fill="#d7f3ff"/><path d="m408.480469 49.753906h-84.429688c-11.117187 0-20.125 9.007813-20.125 20.125v160.503906h127.308594v-157.875c0-12.566406-10.1875-22.753906-22.753906-22.753906zm0 0" fill="#d7f3ff"/><path d="m434.371094 304.160156h-387.253906c-25.746094 0-46.617188-20.871094-46.617188-46.617187v-39.546875c0-56.484375 45.789062-102.277344 102.277344-102.277344h378.210937v141.824219c0 25.746093-20.871093 46.617187-46.617187 46.617187zm0 0" fill="#7de2e2"/><path d="m126.867188 115.71875h177.058593v188.441406h-177.058593zm0 0" fill="#66d3d0"/><path d="m173.640625 329.871094h-90.613281c-19.125 0-34.773438-15.648438-34.773438-34.773438s15.648438-34.773437 34.773438-34.773437h90.613281c19.128906 0 34.777344 15.648437 34.777344 34.773437s-15.648438 34.773438-34.777344 34.773438zm0 0" fill="#d7abf4"/><path d="m101.230469 295.097656c0-19.125 15.648437-34.773437 34.773437-34.773437h-52.976562c-19.125 0-34.773438 15.648437-34.773438 34.773437s15.648438 34.773438 34.773438 34.773438h52.976562c-19.125 0-34.773437-15.648438-34.773437-34.773438zm0 0" fill="#c596ea"/><path d="m398.457031 329.871094h-90.613281c-19.125 0-34.773438-15.648438-34.773438-34.773438s15.648438-34.773437 34.773438-34.773437h90.613281c19.125 0 34.773438 15.648437 34.773438 34.773437s-15.648438 34.773438-34.773438 34.773438zm0 0" fill="#d7abf4"/><path d="m179.589844 153.761719c-11.34375 0-20.625-9.28125-20.625-20.628907v-26.863281c0-11.34375 9.28125-20.625 20.625-20.625s20.628906 9.28125 20.628906 20.625v26.863281c-.003906 11.347657-9.285156 20.628907-20.628906 20.628907zm0 0" fill="#c596ea"/><path d="m66.347656 190.4375c0-13.507812-11.050781-24.558594-24.558594-24.558594h-27.007812c-8.582031 14.457032-13.6875 31.207032-14.203125 49.113282h41.210937c13.507813 0 24.558594-11.050782 24.558594-24.554688zm0 0" fill="#ffeb99"/><path d="m480.988281 249.085938v-37.40625h-33.59375c-10.289062 0-18.703125 8.417968-18.703125 18.703124 0 10.285157 8.414063 18.703126 18.703125 18.703126zm0 0" fill="#ffeb99"/><path d="m480.988281 184.578125v-37.402344h-33.59375c-10.289062 0-18.703125 8.417969-18.703125 18.703125s8.414063 18.703125 18.703125 18.703125h33.59375zm0 0" fill="#ffeb99"/><g fill="#d7f3ff"><path d="m75.359375 512c-14.90625 0-27.105469-12.199219-27.105469-27.105469v-97.976562c0-14.90625 12.199219-27.105469 27.105469-27.105469 14.910156 0 27.105469 12.199219 27.105469 27.105469v97.976562c0 14.90625-12.195313 27.105469-27.105469 27.105469zm0 0"/><path d="m181.3125 442.664062c-14.910156 0-27.105469-12.199218-27.105469-27.105468v-28.640625c0-14.90625 12.195313-27.105469 27.105469-27.105469 14.90625 0 27.105469 12.199219 27.105469 27.105469v28.640625c0 14.90625-12.199219 27.105468-27.105469 27.105468zm0 0"/><path d="m406.125 512c14.910156 0 27.105469-12.199219 27.105469-27.105469v-97.976562c0-14.90625-12.195313-27.105469-27.105469-27.105469-14.90625 0-27.101562 12.199219-27.101562 27.105469v97.976562c0 14.90625 12.195312 27.105469 27.101562 27.105469zm0 0"/><path d="m300.175781 442.664062c14.90625 0 27.105469-12.199218 27.105469-27.105468v-28.640625c0-14.90625-12.199219-27.105469-27.105469-27.105469-14.910156 0-27.105469 12.199219-27.105469 27.105469v28.640625c0 14.90625 12.195313 27.105468 27.105469 27.105468zm0 0"/></g><path d="m326.046875 295.097656c0-19.125 15.648437-34.773437 34.773437-34.773437h-52.976562c-19.125 0-34.773438 15.648437-34.773438 34.773437s15.648438 34.773438 34.773438 34.773438h52.976562c-19.125 0-34.773437-15.648438-34.773437-34.773438zm0 0" fill="#c596ea"/></svg>