<svg viewBox="-13 1 511 511.99998" xmlns="http://www.w3.org/2000/svg"><g fill="#5aaa4f"><path d="m277.011719 97.273438h-69.023438v-78c0-10.644532 8.628907-19.273438 19.273438-19.273438h30.480469c10.644531 0 19.269531 8.628906 19.269531 19.273438zm0 0"/><path d="m97.773438 190.605469v69.023437h-78c-10.644532 0-19.273438-8.628906-19.273438-19.269531v-30.484375c0-10.640625 8.628906-19.269531 19.273438-19.269531zm0 0"/><path d="m387.230469 190.605469v69.023437h77.996093c10.644532 0 19.273438-8.628906 19.273438-19.269531v-30.484375c0-10.640625-8.628906-19.269531-19.273438-19.269531zm0 0"/></g><path d="m430.265625 242.074219c0 103.699219-84.066406 251.574219-187.765625 251.574219s-187.761719-147.875-187.761719-251.574219 84.0625-187.765625 187.761719-187.765625 187.765625 84.066406 187.765625 187.765625zm0 0" fill="#acabb1"/><path d="m180.847656 242.074219c0-81.578125 52.046875-151 124.726563-176.910157-19.707031-7.023437-40.953125-10.855468-63.074219-10.855468-103.699219 0-187.761719 84.0625-187.761719 187.761718 0 103.699219 84.0625 251.578126 187.761719 251.578126 22.121094 0 43.367188-6.738282 63.074219-18.332032-72.679688-42.757812-124.726563-151.667968-124.726563-233.242187zm0 0" fill="#9a9aa0"/><path d="m331.339844 117.28125c-15.34375.054688-29.878906 3.609375-42.84375 9.90625-29.003906 14.089844-62.984375 14.089844-91.992188 0-12.964844-6.296875-27.5-9.851562-42.839844-9.90625-53.148437-.179688-97.402343 42.160156-99.460937 95.269531-2.1875 56.472657 43.117187 103.113281 99.113281 103.113281 15.585938 0 30.339844-3.613281 43.476563-10.046874 28.757812-14.082032 62.65625-14.082032 91.417969 0 13.132812 6.433593 27.890624 10.046874 43.472656 10.046874 55.996094 0 101.304687-46.640624 99.113281-103.113281-2.058594-53.109375-46.308594-95.449219-99.457031-95.269531zm0 0" fill="#eaeaea"/><path d="m134.394531 212.550781c1.503907-38.796875 25.53125-71.84375 59.085938-86.769531-12.183594-5.417969-25.660157-8.449219-39.816407-8.5-53.148437-.179688-97.402343 42.160156-99.460937 95.269531-2.1875 56.472657 43.121094 103.113281 99.113281 103.113281 14.261719 0 27.839844-3.03125 40.105469-8.472656-35.894531-15.929687-60.65625-52.554687-59.027344-94.640625zm0 0" fill="#d8d7da"/><path d="m242.5 469.253906c-33.910156 0-61.652344-27.742187-61.652344-61.65625v-66.789062c0-33.910156 27.742188-61.65625 61.652344-61.65625s61.652344 27.746094 61.652344 61.65625v66.789062c.003906 33.910156-27.742188 61.65625-61.652344 61.65625zm0 0" fill="#d8d7da"/><path d="m253.753906 352.53125c-15.785156-1.335938-27.867187-14.785156-27.234375-30.613281.734375-18.554688 5.152344-32.515625 10.019531-42.476563-31.136718 3.027344-55.691406 29.46875-55.691406 61.367188v66.789062c0 33.910156 27.742188 61.65625 61.652344 61.65625s61.65625-27.742187 61.65625-61.65625v-45.230468c-18.546875-5.925782-36.582031-8.660157-50.402344-9.835938zm0 0" fill="#c6c5ca"/><path d="m242.5 390.1875c-49.253906 0-89.183594 13.632812-89.183594 30.453125v60.90625h178.367188v-60.90625c0-16.820313-39.929688-30.453125-89.183594-30.453125zm0 0" fill="#92dd7a"/><path d="m225.664062 390.726562c-41.203124 2.691407-72.347656 15.058594-72.347656 29.914063v60.90625h72.347656zm0 0" fill="#7ec66a"/><path d="m331.683594 481.546875c0-16.820313-39.929688-30.453125-89.183594-30.453125s-89.183594 13.632812-89.183594 30.453125 39.929688 30.453125 89.183594 30.453125 89.183594-13.632812 89.183594-30.453125zm0 0" fill="#7ec66a"/><path d="m196.476562 216.472656c0 23.835938-19.324218 43.15625-43.160156 43.15625-23.832031 0-43.15625-19.320312-43.15625-43.15625 0-23.835937 19.324219-43.15625 43.15625-43.15625 23.835938 0 43.160156 19.320313 43.160156 43.15625zm0 0" fill="#898890"/><path d="m148.398438 216.472656c0-16.96875 9.796874-31.640625 24.039062-38.691406-5.765625-2.855469-12.253906-4.464844-19.121094-4.464844-23.835937 0-43.15625 19.320313-43.15625 43.15625 0 23.835938 19.320313 43.15625 43.15625 43.15625 6.867188 0 13.355469-1.609375 19.121094-4.464844-14.242188-7.050781-24.039062-21.722656-24.039062-38.691406zm0 0" fill="#77777f"/><path d="m374.839844 216.472656c0 23.835938-19.320313 43.15625-43.15625 43.15625-23.835938 0-43.15625-19.320312-43.15625-43.15625 0-23.835937 19.320312-43.15625 43.15625-43.15625 23.835937 0 43.15625 19.320313 43.15625 43.15625zm0 0" fill="#898890"/><path d="m326.761719 216.472656c0-16.96875 9.796875-31.640625 24.042969-38.691406-5.765626-2.855469-12.253907-4.464844-19.121094-4.464844-23.835938 0-43.15625 19.320313-43.15625 43.15625 0 23.835938 19.320312 43.15625 43.15625 43.15625 6.867187 0 13.355468-1.609375 19.121094-4.464844-14.246094-7.050781-24.042969-21.722656-24.042969-38.691406zm0 0" fill="#77777f"/><path d="m153.316406 481.546875c0 10.679687 16.101563 20.074219 40.46875 25.511719l31.878906-55.421875c-41.203124 2.6875-72.347656 15.058593-72.347656 29.910156zm0 0" fill="#5aaa4f"/></svg>