<svg viewBox="0 -11 511.99976 511" xmlns="http://www.w3.org/2000/svg"><path d="m360.230469 466.199219h-207.328125c-23.238282 0-43.675782-14.851563-50.855469-36.949219l-64.066406-197.183594c-7.183594-22.101562.625-46.125 19.425781-59.785156l167.730469-121.863281c18.800781-13.660157 44.0625-13.660157 62.863281 0l167.730469 121.863281c18.800781 13.660156 26.605469 37.6875 19.425781 59.785156l-64.066406 197.183594c-7.183594 22.097656-27.621094 36.949219-50.859375 36.949219zm-243.917969-41.585938c5.164062 15.902344 19.871094 26.585938 36.589844 26.585938h207.328125c16.71875 0 31.425781-10.683594 36.59375-26.585938l64.066406-197.179687c5.167969-15.902344-.449219-33.1875-13.976563-43.015625l-167.730468-121.867188c-13.527344-9.828125-31.707032-9.828125-45.230469 0l-167.734375 121.867188c-13.523438 9.828125-19.140625 27.113281-13.972656 43.015625zm0 0" fill="#d8d7da"/><path d="m511.59375 182.648438c-1.347656-3.917969-5.613281-6.007813-9.527344-4.660157l-238 81.613281v-251.601562c0-4.144531-3.359375-7.5-7.5-7.5s-7.5 3.355469-7.5 7.5v251.753906l-239.226562-78.414062c-3.9375-1.289063-8.175782.855468-9.464844 4.789062-1.289062 3.9375.855469 8.175782 4.789062 9.464844l239.253907 78.421875-148.617188 203.230469c-2.445312 3.34375-1.71875 8.035156 1.625 10.480468 1.335938.976563 6.457031 3.191407 10.480469-1.628906l148.613281-203.222656 147.058594 204.351562c4.332031 5.117188 9.144531 2.660157 10.46875 1.707032 3.359375-2.421875 4.125-7.109375 1.703125-10.46875l-147.195312-204.542969 238.375-81.746094c3.917968-1.34375 6.007812-5.609375 4.664062-9.527343zm0 0" fill="#c6c5ca"/><path d="m229.871094 107.492188-118.605469 86.171874c-16.550781 12.023438-23.476563 33.339844-17.152344 52.796876l45.300781 139.425781c6.320313 19.457031 24.453126 32.628906 44.914063 32.628906h146.597656c20.460938 0 38.59375-13.171875 44.914063-32.628906l45.300781-139.425781c6.324219-19.457032-.601563-40.773438-17.152344-52.796876l-118.601562-86.171874c-16.554688-12.023438-38.964844-12.023438-55.515625 0zm0 0" fill="#a0f0f2"/><path d="m111.265625 193.664062c-16.550781 12.023438-23.476563 33.339844-17.152344 52.796876l45.300781 139.425781c6.320313 19.457031 24.453126 32.632812 44.914063 32.632812h56.308594c-10.640625-62.78125-24.34375-136.269531-35.1875-169.574219-20.816407-63.9375 24.421875-141.453124 24.421875-141.453124zm0 0" fill="#7de2e2"/><g fill="#a0f0f2"><path d="m278.390625 45.601562c0 12.609376-10.222656 22.828126-22.832031 22.828126-12.605469 0-22.828125-10.21875-22.828125-22.828126 0-12.609374 10.222656-22.828124 22.828125-22.828124 12.609375 0 22.832031 10.21875 22.832031 22.828124zm0 0"/><path d="m486.898438 198.945312c0 12.609376-10.21875 22.828126-22.828126 22.828126-12.609374 0-22.828124-10.21875-22.828124-22.828126 0-12.609374 10.21875-22.832031 22.828124-22.832031 12.609376 0 22.828126 10.222657 22.828126 22.832031zm0 0"/><path d="m407.910156 448.679688c0 12.609374-10.222656 22.832031-22.832031 22.832031-12.605469 0-22.828125-10.222657-22.828125-22.832031 0-12.605469 10.222656-22.828126 22.828125-22.828126 12.609375 0 22.832031 10.222657 22.832031 22.828126zm0 0"/><path d="m148.808594 448.679688c0 12.609374-10.222656 22.832031-22.832032 22.832031-12.605468 0-22.828124-10.222657-22.828124-22.832031 0-12.605469 10.222656-22.828126 22.828124-22.828126 12.609376 0 22.832032 10.222657 22.832032 22.828126zm0 0"/><path d="m68.582031 198.945312c0 12.609376-10.21875 22.828126-22.828125 22.828126s-22.828125-10.21875-22.828125-22.828126c0-12.609374 10.21875-22.832031 22.828125-22.832031s22.828125 10.222657 22.828125 22.832031zm0 0"/></g><path d="m257.625 292.824219c-15.519531 0-28.097656-12.582031-28.097656-28.101563v-20.429687c0-4.238281 3.433594-7.671875 7.667968-7.671875h40.859376c4.238281 0 7.671874 3.433594 7.671874 7.671875v20.429687c0 15.519532-12.582031 28.101563-28.101562 28.101563zm0 0" fill="#57565c"/><path d="m193.605469 264.722656c0-13.183594-13.421875-23.871094-29.972657-23.871094-16.554687 0-29.972656 10.6875-29.972656 23.871094 0 13.179688 13.417969 23.867188 29.972656 23.867188 16.550782 0 29.972657-10.6875 29.972657-23.867188zm0 0" fill="#ffa6bb"/><path d="m381.59375 264.722656c0-13.183594-13.417969-23.871094-29.972656-23.871094-16.554688 0-29.972656 10.6875-29.972656 23.871094 0 13.179688 13.417968 23.867188 29.972656 23.867188 16.554687 0 29.972656-10.6875 29.972656-23.867188zm0 0" fill="#ffa6bb"/><path d="m338.28125 251.621094c-4.140625 0-7.5-3.359375-7.5-7.5v-12.453125c0-4.140625 3.359375-7.5 7.5-7.5 4.144531 0 7.5 3.359375 7.5 7.5v12.453125c0 4.140625-3.355469 7.5-7.5 7.5zm0 0" fill="#57565c"/><path d="m176.96875 251.621094c-4.140625 0-7.5-3.359375-7.5-7.5v-12.453125c0-4.140625 3.359375-7.5 7.5-7.5 4.144531 0 7.5 3.359375 7.5 7.5v12.453125c0 4.140625-3.355469 7.5-7.5 7.5zm0 0" fill="#57565c"/></svg>