<svg viewBox="-37 1 511 511.99998" xmlns="http://www.w3.org/2000/svg"><path d="m394.859375 443.519531v-268.917969c0-96.03125-78.570313-174.601562-174.601563-174.601562s-174.601562 78.570312-174.601562 174.601562v268.917969zm0 0" fill="#bdfaff"/><path d="m270.285156 7.347656c-15.863281-4.777344-32.664062-7.347656-50.027344-7.347656-96.03125 0-174.601562 78.570312-174.601562 174.601562v268.917969h100.023438v-268.917969c0-78.667968 52.746093-145.613281 124.605468-167.253906zm0 0" fill="#a0f0f2"/><path d="m143.265625 274.382812c26.015625 26.015626 60.316406 33.894532 76.609375 17.597657 16.296875-16.292969 8.417969-50.59375-17.597656-76.609375s-60.316406-33.894532-76.609375-17.597656c-16.296875 16.292968-8.417969 50.59375 17.597656 76.609374zm0 0" fill="#92dd7a"/><path d="m219.875 291.988281c16.292969-16.296875 8.414062-50.59375-17.601562-76.613281-1.882813-1.878906-3.800782-3.667969-5.761719-5.359375-15.027344 14.351563-32.375 38.964844-36.496094 77.984375 22.523437 14.609375 46.890625 16.957031 59.859375 3.988281zm0 0" fill="#7ec66a"/><path d="m212.839844 314.03125c0-11.867188-4.621094-23.027344-13.015625-31.417969l-47.800781-47.800781c-2.988282-2.988281-2.988282-7.828125 0-10.816406 2.984374-2.984375 7.824218-2.984375 10.8125 0l47.800781 47.804687c6.804687 6.804688 11.765625 14.960938 14.632812 23.867188zm0 0" fill="#7ec66a"/><path d="m210.636719 271.800781-34.910157-34.910156c-2.507812 4.480469-4.859374 9.363281-6.960937 14.667969l31.058594 31.054687c8.390625 8.390625 13.011719 19.550781 13.011719 31.417969l12.429687-18.363281c-2.863281-8.902344-7.824219-17.0625-14.628906-23.867188zm0 0" fill="#5aaa4f"/><path d="m297.25 274.378906c26.015625-26.015625 33.894531-60.316406 17.597656-76.609375-16.292968-16.296875-50.59375-8.417969-76.609375 17.597657-26.015625 26.015624-33.894531 60.316406-17.597656 76.609374 16.292969 16.296876 50.59375 8.417969 76.609375-17.597656zm0 0" fill="#b1ef97"/><path d="m220.03125 401.863281c-4.222656 0-7.648438-3.421875-7.648438-7.648437v-80.183594c0-15.953125 6.214844-30.949219 17.492188-42.230469l47.804688-47.800781c2.984374-2.984375 7.824218-2.984375 10.8125 0 2.988281 2.984375 2.988281 7.824219 0 10.8125l-47.800782 47.804688c-8.394531 8.390624-13.015625 19.546874-13.015625 31.414062v80.1875c0 4.222656-3.421875 7.644531-7.644531 7.644531zm0 0" fill="#92dd7a"/><path d="m45.65625 361.609375h349.203125v81.910156h-349.203125zm0 0" fill="#d8d7da"/><path d="m45.65625 361.609375h100.023438v81.910156h-100.023438zm0 0" fill="#c6c5ca"/><path d="m402.070312 512h-366.636718c-19.214844 0-34.933594-15.71875-34.933594-34.933594s15.71875-34.933594 34.933594-34.933594h366.636718c19.210938 0 34.933594 15.71875 34.933594 34.933594s-15.71875 34.933594-34.933594 34.933594zm0 0" fill="#ffeb99"/><path d="m107.96875 477.066406c0-19.214844 15.722656-34.933594 34.933594-34.933594h-107.46875c-19.214844 0-34.933594 15.71875-34.933594 34.933594s15.71875 34.933594 34.933594 34.933594h107.46875c-19.210938 0-34.933594-15.71875-34.933594-34.933594zm0 0" fill="#ffde55"/><path d="m367.339844 401.871094c0 9.242187-7.492188 16.734375-16.734375 16.734375-9.242188 0-16.734375-7.492188-16.734375-16.734375 0-9.242188 7.492187-16.734375 16.734375-16.734375 9.242187 0 16.734375 7.492187 16.734375 16.734375zm0 0" fill="#ff929f"/><path d="m310.351562 401.871094c0 9.242187-7.492187 16.734375-16.730468 16.734375-9.242188 0-16.734375-7.492188-16.734375-16.734375 0-9.242188 7.492187-16.734375 16.734375-16.734375 9.238281 0 16.730468 7.492187 16.730468 16.734375zm0 0" fill="#ff929f"/><path d="m186.238281 418.605469h49.277344c9.203125 0 16.730469-7.53125 16.730469-16.734375s-7.527344-16.734375-16.730469-16.734375h-49.277344c-9.203125 0-16.734375 7.53125-16.734375 16.734375s7.53125 16.734375 16.734375 16.734375zm0 0" fill="#c6c5ca"/><g fill="#57565c"><path d="m303.363281 127.511719c-4.265625 0-7.726562-3.460938-7.726562-7.726563v-12.828125c0-4.265625 3.460937-7.726562 7.726562-7.726562 4.269531 0 7.726563 3.460937 7.726563 7.726562v12.828125c0 4.269532-3.457032 7.726563-7.726563 7.726563zm0 0"/><path d="m137.183594 127.511719c-4.269532 0-7.726563-3.460938-7.726563-7.726563v-12.828125c0-4.265625 3.457031-7.726562 7.726563-7.726562 4.265625 0 7.726562 3.460937 7.726562 7.726562v12.828125c0 4.269532-3.460937 7.726563-7.726562 7.726563zm0 0"/><path d="m220.273438 135.601562c-10 0-20-3.234374-28.34375-9.707031-3.371094-2.617187-3.984376-7.46875-1.371094-10.839843 2.613281-3.375 7.46875-3.988282 10.839844-1.371094 11.113281 8.621094 26.636718 8.621094 37.75 0 3.367187-2.617188 8.222656-2.003906 10.835937 1.371094 2.617187 3.371093 2.003906 8.222656-1.367187 10.839843-8.34375 6.472657-18.34375 9.707031-28.34375 9.707031zm0 0"/></g></svg>