<svg viewBox="-77 1 511 511.99998" xmlns="http://www.w3.org/2000/svg"><path d="m36.832031 259.375c-19.980469 0-36.332031-16.347656-36.332031-36.332031v-186.710938c0-19.984375 16.351562-36.332031 36.332031-36.332031 19.984375 0 36.332031 16.347656 36.332031 36.332031v186.710938c0 19.984375-16.347656 36.332031-36.332031 36.332031zm0 0" fill="#c6c5ca"/><path d="m36.832031 259.375c19.984375 0 36.332031-16.347656 36.332031-36.332031v-173.394531c-20.777343 5.925781-49.214843 19.917968-72.664062 52.84375v120.550781c0 19.984375 16.351562 36.332031 36.332031 36.332031zm0 0" fill="#acabb1"/><path d="m357.957031 223.070312c0 98.707032-33.742187 288.929688-178.730469 288.929688-144.984374 0-178.726562-190.222656-178.726562-288.929688 0-98.710937 80.019531-152.6875 178.726562-152.6875 98.710938 0 178.730469 53.976563 178.730469 152.6875zm0 0" fill="#d8d7da"/><path d="m93.726562 223.070312c0-82.582031 56.042969-133.851562 132.144532-148.402343-14.863282-2.839844-30.515625-4.285157-46.644532-4.285157-98.707031 0-178.726562 53.976563-178.726562 152.6875 0 98.707032 33.742188 288.929688 178.726562 288.929688 17.035157 0 32.53125-2.625 46.617188-7.417969-105.832031-36.011719-132.117188-194.398437-132.117188-281.511719zm0 0" fill="#c6c5ca"/><path d="m247.828125 265.542969h-137.199219c-37.152344 0-67.550781-30.398438-67.550781-67.550781 0-37.152344 30.398437-67.546876 67.550781-67.546876h137.195313c37.152343 0 67.550781 30.394532 67.550781 67.546876 0 37.152343-30.394531 67.550781-67.546875 67.550781zm0 0" fill="#bdfaff"/><path d="m125.03125 130.441406h-14.402344c-37.152344 0-67.550781 30.398438-67.550781 67.550782 0 31.9375 22.472656 58.886718 52.382813 65.824218-1.207032-14.636718-1.734376-28.417968-1.734376-40.746094 0-37.503906 11.5625-68.546874 31.304688-92.628906zm0 0" fill="#a0f0f2"/><path d="m86.480469 314.234375c0 9.464844-7.667969 17.136719-17.132813 17.136719-9.460937 0-17.132812-7.671875-17.132812-17.136719 0-9.460937 7.671875-17.132813 17.132812-17.132813 9.464844 0 17.132813 7.671876 17.132813 17.132813zm0 0" fill="#ff737d"/><path d="m159.734375 314.234375c0 9.464844-7.667969 17.136719-17.132813 17.136719-9.460937 0-17.132812-7.671875-17.132812-17.136719 0-9.460937 7.671875-17.132813 17.132812-17.132813 9.464844 0 17.132813 7.671876 17.132813 17.132813zm0 0" fill="#ff929f"/><path d="m298.242188 331.371094h-80.976563c-9.425781 0-17.136719-7.710938-17.136719-17.136719 0-9.421875 7.710938-17.132813 17.136719-17.132813h80.976563c9.425781 0 17.132812 7.710938 17.132812 17.132813 0 9.425781-7.707031 17.136719-17.132812 17.136719zm0 0" fill="#7ec66a"/><path d="m179.226562 475c-8.757812 0-15.859374-7.101562-15.859374-15.863281v-89.757813c0-8.757812 7.101562-15.859375 15.859374-15.859375 8.761719 0 15.863282 7.101563 15.863282 15.859375v89.757813c0 8.761719-7.101563 15.863281-15.863282 15.863281zm0 0" fill="#acabb1"/><path d="m120.042969 454.03125c-8.761719 0-15.863281-7.101562-15.863281-15.863281v-47.816407c0-8.761718 7.101562-15.863281 15.863281-15.863281 8.757812 0 15.859375 7.101563 15.859375 15.863281v47.816407c0 8.761719-7.101563 15.863281-15.859375 15.863281zm0 0" fill="#898890"/><path d="m238.414062 454.03125c-8.757812 0-15.863281-7.101562-15.863281-15.863281v-47.816407c0-8.761718 7.105469-15.863281 15.863281-15.863281 8.761719 0 15.863282 7.101563 15.863282 15.863281v47.816407c0 8.761719-7.101563 15.863281-15.863282 15.863281zm0 0" fill="#acabb1"/><g fill="#57565c"><path d="m262.320312 208.085938c-4.269531 0-7.726562-3.457032-7.726562-7.726563v-12.824219c0-4.269531 3.457031-7.726562 7.726562-7.726562 4.265626 0 7.726563 3.457031 7.726563 7.726562v12.824219c0 4.269531-3.460937 7.726563-7.726563 7.726563zm0 0"/><path d="m96.136719 208.085938c-4.269531 0-7.726563-3.457032-7.726563-7.726563v-12.824219c0-4.269531 3.457032-7.726562 7.726563-7.726562s7.726562 3.457031 7.726562 7.726562v12.824219c0 4.269531-3.457031 7.726563-7.726562 7.726563zm0 0"/><path d="m179.226562 216.175781c-10 0-20-3.234375-28.34375-9.707031-3.371093-2.617188-3.984374-7.46875-1.367187-10.839844 2.613281-3.375 7.46875-3.988281 10.839844-1.371094 11.109375 8.621094 26.632812 8.621094 37.746093 0 3.371094-2.617187 8.222657-2.003906 10.839844 1.371094 2.613282 3.371094 2 8.222656-1.371094 10.839844-8.34375 6.472656-18.34375 9.707031-28.34375 9.707031zm0 0"/></g></svg>