<svg viewBox="-30 0 512 512.00101" xmlns="http://www.w3.org/2000/svg"><path d="m424.929688 197.332031h-397.316407c-15.25 0-27.613281-12.363281-27.613281-27.613281v-28.515625c0-15.25 12.363281-27.613281 27.613281-27.613281h397.316407c15.25 0 27.613281 12.363281 27.613281 27.613281v28.515625c0 15.25-12.363281 27.613281-27.613281 27.613281zm0 0" fill="#898890"/><path d="m169.410156 9.78125c-19.617187-13.039062-45.113281-13.039062-64.730468 0-25.785157 17.140625-57.59375 44.953125-57.59375 77.851562v256.03125c0 23.347657 18.925781 42.273438 42.269531 42.273438h95.378906c23.34375 0 42.269531-18.925781 42.269531-42.273438v-256.03125c0-32.898437-31.808594-60.710937-57.59375-77.851562zm0 0" fill="#ff9478"/><path d="m120.609375 343.667969v-256.035157c0-31.050781 28.332031-57.566406 53.199219-74.859374-1.480469-1.027344-2.949219-2.03125-4.398438-2.992188-19.613281-13.039062-45.113281-13.039062-64.730468 0-25.785157 17.140625-57.59375 44.953125-57.59375 77.851562v256.035157c0 23.34375 18.925781 42.269531 42.269531 42.269531h73.527343c-23.347656 0-42.273437-18.925781-42.273437-42.269531zm0 0" fill="#ff7956"/><path d="m226.273438 79.023438c-4.863282-29.125-33.359376-53.621094-56.867188-69.242188-19.613281-13.039062-45.113281-13.039062-64.726562 0-23.507813 15.625-52.011719 40.117188-56.875 69.242188zm0 0" fill="#ffeb99"/><path d="m173.808594 12.773438c-1.480469-1.03125-2.949219-2.03125-4.398438-2.992188-19.617187-13.039062-45.113281-13.039062-64.730468 0-23.503907 15.625-52.011719 40.117188-56.875 69.242188h73.527343c4.558594-27.332032 29.941407-50.578126 52.476563-66.25zm0 0" fill="#ffde55"/><path d="m349.328125 9.78125c-19.613281-13.039062-45.113281-13.039062-64.726563 0-25.789062 17.140625-57.597656 44.953125-57.597656 77.851562v256.03125c0 23.347657 18.925782 42.273438 42.273438 42.273438h95.375c23.347656 0 42.273437-18.925781 42.273437-42.273438v-256.03125c0-32.898437-31.808593-60.710937-57.597656-77.851562zm0 0" fill="#ff9478"/><path d="m327.84375 343.667969v-256.035157c0-25.429687 19.003906-47.8125 39.539062-64.585937-6.03125-4.925781-12.199218-9.375-18.054687-13.269531-19.613281-13.035156-45.113281-13.035156-64.730469 0-25.785156 17.144531-57.59375 44.957031-57.59375 77.851562v256.035156c0 23.347657 18.925782 42.273438 42.269532 42.273438h95.378906c.917968 0 1.828125-.039062 2.730468-.097656-22.070312-1.40625-39.539062-19.746094-39.539062-42.171875zm0 0" fill="#ff7956"/><path d="m406.191406 79.023438c-4.859375-29.125-33.355468-53.621094-56.863281-69.242188-19.613281-13.039062-45.113281-13.039062-64.726563 0-23.507812 15.625-52.015624 40.117188-56.875 69.242188zm0 0" fill="#ffeb99"/><path d="m367.382812 23.050781c-6.03125-4.929687-12.199218-9.378906-18.054687-13.269531-19.613281-13.039062-45.113281-13.039062-64.726563 0-23.507812 15.625-52.015624 40.117188-56.875 69.242188h100.851563c3.648437-21.871094 20.617187-41.121094 38.804687-55.972657zm0 0" fill="#ffde55"/><path d="m251.332031 395.511719h-48.65625c-14.816406 0-26.824219-12.007813-26.824219-26.824219v-327.644531c0-14.816407 12.007813-26.824219 26.824219-26.824219h48.65625c14.816407 0 26.824219 12.007812 26.824219 26.824219v327.644531c0 14.816406-12.007812 26.824219-26.824219 26.824219zm0 0" fill="#c6c5ca"/><path d="m300.320312 170.992188c0 40.898437-33.152343 116.921874-74.046874 116.921874-40.898438 0-74.050782-76.023437-74.050782-116.921874 0-40.894532 33.152344-74.046876 74.050782-74.046876 40.894531 0 74.046874 33.152344 74.046874 74.046876zm0 0" fill="#eaeaea"/><path d="m193.667969 170.992188c0-33.699219 22.554687-62.132813 53.363281-71.097657-6.578125-1.914062-13.5625-2.949219-20.757812-2.949219-40.898438 0-74.050782 33.152344-74.050782 74.046876 0 40.898437 33.152344 116.921874 74.050782 116.921874 7.191406 0 14.152343-2.355468 20.730468-6.457031-30.8125-19.207031-53.335937-76.761719-53.335937-110.464843zm0 0" fill="#d8d7da"/><g fill="#c6c5ca"><path d="m226.273438 206.410156c-4.269532 0-7.726563-3.457031-7.726563-7.726562v-69.5c0-4.265625 3.457031-7.726563 7.726563-7.726563 4.265624 0 7.722656 3.460938 7.722656 7.726563v69.5c0 4.269531-3.457032 7.726562-7.722656 7.726562zm0 0"/><path d="m187.589844 191.578125c-4.265625 0-7.726563-3.457031-7.726563-7.726563v-39.835937c0-4.269531 3.460938-7.726563 7.726563-7.726563 4.269531 0 7.726562 3.457032 7.726562 7.726563v39.835937c0 4.269532-3.457031 7.726563-7.726562 7.726563zm0 0"/><path d="m264.953125 191.578125c-4.269531 0-7.726563-3.457031-7.726563-7.726563v-39.835937c0-4.269531 3.457032-7.726563 7.726563-7.726563s7.726563 3.457032 7.726563 7.726563v39.835937c0 4.269532-3.460938 7.726563-7.726563 7.726563zm0 0"/></g><path d="m241.972656 252.492188c0 8.671874-7.027344 15.703124-15.699218 15.703124-8.675782 0-15.703126-7.03125-15.703126-15.703124 0-8.671876 7.027344-15.703126 15.703126-15.703126 8.671874 0 15.699218 7.03125 15.699218 15.703126zm0 0" fill="#ff737d"/><path d="m188.175781 451.789062h-102.265625c-9.964844 0-18.117187-8.152343-18.117187-18.117187s8.152343-18.121094 18.117187-18.121094h102.265625c9.964844 0 18.117188 8.15625 18.117188 18.121094 0 9.960937-8.152344 18.117187-18.117188 18.117187zm0 0" fill="#d7f3ff"/><path d="m188.175781 415.550781h-37.730469c9.964844 0 18.117188 8.15625 18.117188 18.121094s-8.152344 18.117187-18.117188 18.117187h37.730469c9.964844 0 18.117188-8.152343 18.117188-18.117187s-8.152344-18.121094-18.117188-18.121094zm0 0" fill="#bdebff"/><path d="m168.175781 512h-62.261719c-9.964843 0-18.117187-8.152344-18.117187-18.117188 0-9.964843 8.152344-18.117187 18.117187-18.117187h62.261719c9.964844 0 18.117188 8.152344 18.117188 18.117187 0 9.964844-8.152344 18.117188-18.117188 18.117188zm0 0" fill="#d7f3ff"/><path d="m368.097656 451.789062h-102.265625c-9.964843 0-18.117187-8.152343-18.117187-18.117187s8.152344-18.121094 18.117187-18.121094h102.265625c9.964844 0 18.117188 8.15625 18.117188 18.121094 0 9.960937-8.152344 18.117187-18.117188 18.117187zm0 0" fill="#d7f3ff"/><path d="m348.09375 512h-62.257812c-9.964844 0-18.121094-8.152344-18.121094-18.117188 0-9.964843 8.15625-18.117187 18.121094-18.117187h62.257812c9.964844 0 18.117188 8.152344 18.117188 18.117187 0 9.964844-8.152344 18.117188-18.117188 18.117188zm0 0" fill="#d7f3ff"/><path d="m168.175781 475.765625h-37.730469c9.964844 0 18.117188 8.152344 18.117188 18.117187 0 9.964844-8.152344 18.117188-18.117188 18.117188h37.730469c9.964844 0 18.117188-8.152344 18.117188-18.117188 0-9.964843-8.152344-18.117187-18.117188-18.117187zm0 0" fill="#bdebff"/><path d="m265.832031 415.550781h37.730469c-9.964844 0-18.117188 8.15625-18.117188 18.121094s8.152344 18.117187 18.117188 18.117187h-37.730469c-9.964843 0-18.117187-8.152343-18.117187-18.117187s8.152344-18.121094 18.117187-18.121094zm0 0" fill="#bdebff"/><path d="m285.835938 475.765625h37.730468c-9.964844 0-18.121094 8.152344-18.121094 18.117187 0 9.964844 8.15625 18.117188 18.121094 18.117188h-37.730468c-9.964844 0-18.121094-8.152344-18.121094-18.117188 0-9.964843 8.15625-18.117187 18.121094-18.117187zm0 0" fill="#bdebff"/></svg>