<svg viewBox="1 -79 511.99998 511" xmlns="http://www.w3.org/2000/svg"><path d="m488.230469 93.710938-75.28125-7.460938c-38.136719-3.777344-74.789063-17.644531-105.027344-41.195312-34.753906-27.070313-89.796875-44.554688-151.757813-44.554688-45.324218 0-86.941406 9.355469-119.625 24.976562-22.410156 10.703126-36.539062 33.484376-36.539062 58.320313v58.230469c0 24.835937 14.128906 47.613281 36.539062 58.324218 32.683594 15.617188 74.300782 24.972657 119.625 24.972657 61.960938 0 117.003907-17.484375 151.757813-44.554688 30.238281-23.550781 66.890625-37.417969 105.027344-41.195312l75.28125-7.460938zm0 0" fill="#a0f0f2"/><path d="m156.164062.5c-45.324218 0-86.941406 9.355469-119.625 24.976562-22.410156 10.703126-36.539062 33.484376-36.539062 58.320313v58.226563c0 24.839843 14.128906 47.617187 36.539062 58.324218 32.683594 15.621094 74.300782 24.976563 119.625 24.976563 61.960938 0 117.003907-17.484375 151.757813-44.554688 19.730469-15.371093 42.195313-26.613281 66.019531-33.621093 1.890625-27.367188-4.113281-52.027344-12.964844-72.757813-19.007812-6.988281-36.941406-16.785156-53.054687-29.335937-34.753906-27.070313-89.796875-44.554688-151.757813-44.554688zm0 0" fill="#7de2e2"/><path d="m148.445312 295.644531c-7.304687 0-14.960937-.5625-22.972656-1.6875l5.617188-39.992187c25.183594 3.539062 44.050781-.210938 56.074218-11.15625 17.96875-16.351563 17.199219-44.804688 17.1875-45.085938l40.339844-1.835937c.085938 1.929687 1.773438 47.558593-30.347656 76.789062-16.789062 15.277344-38.894531 22.964844-65.898438 22.96875zm0 0" fill="#ffeb99"/><path d="m107.652344 352.859375-36.769532-8.425781c-17.023437-3.902344-27.660156-20.867188-23.757812-37.886719l47.023438-205.179687 98.414062 22.554687-47.023438 205.179687c-3.902343 17.023438-20.867187 27.660157-37.886718 23.757813zm0 0" fill="#a0f0f2"/><path d="m57.734375 260.257812c39.421875 4.527344 74.703125 2.515626 104.066406-2.109374l30.761719-134.226563-98.414062-22.554687zm0 0" fill="#7de2e2"/><path d="m156.164062.5c-45.324218 0-86.941406 9.355469-119.625 24.976562-22.410156 10.707032-36.539062 33.484376-36.539062 58.320313v58.230469c0 24.835937 14.128906 47.613281 36.539062 58.324218 32.683594 15.617188 74.300782 24.972657 119.621094 24.972657 105.128906 0 190.351563-50.328125 190.351563-112.410157 0-62.085937-85.222657-112.414062-190.347657-112.414062zm0 0" fill="#ff737d"/><path d="m83.480469 112.230469c1.085937-68.148438 62.5-99.707031 92.6875-111.117188-6.574219-.40625-13.25-.613281-20.003907-.613281-45.320312 0-86.9375 9.355469-119.625 24.976562-22.410156 10.707032-36.539062 33.484376-36.539062 58.320313v58.230469c0 24.835937 14.128906 47.613281 36.539062 58.324218 29.660157 14.171876 66.726563 23.191407 107.191407 24.738282-27.128907-21.050782-61.117188-58.375-60.25-112.859375zm0 0" fill="#f26173"/><path d="m156.164062 180.457031c-36.878906 0-72.492187-7.3125-100.285156-20.589843-6.6875-3.195313-11.011718-10.199219-11.011718-17.839844v-58.230469c0-7.636719 4.324218-14.640625 11.015624-17.839844 27.789063-13.273437 63.402344-20.589843 100.28125-20.589843 88.808594 0 145.484376 40.003906 145.484376 67.546874 0 27.535157-56.675782 67.542969-145.484376 67.542969zm0 0" fill="#ffeb99"/><path d="m105.316406 50.144531c-18 3.488281-34.8125 8.828125-49.433594 15.8125-6.691406 3.195313-11.015624 10.199219-11.015624 17.839844v58.230469c0 7.640625 4.324218 14.640625 11.011718 17.835937 12.921875 6.175781 27.574219 11.066407 43.21875 14.527344-9.585937-17.421875-16-38.132813-15.617187-62.160156.40625-25.535157 9.304687-45.957031 21.835937-62.085938zm0 0" fill="#ffde55"/><path d="m490.972656 150.175781c-11.566406 0-21.03125-9.464843-21.03125-21.027343v-33.832032c0-11.5625 9.464844-21.027344 21.03125-21.027344 11.5625 0 21.027344 9.464844 21.027344 21.027344v33.832032c0 11.5625-9.464844 21.027343-21.027344 21.027343zm0 0" fill="#ffeb99"/><path d="m405.027344 158.042969c-11.5625 0-21.027344-9.460938-21.027344-21.027344v-48.207031c0-11.566406 9.464844-21.027344 21.027344-21.027344 11.566406 0 21.03125 9.460938 21.03125 21.027344v48.207031c0 11.566406-9.464844 21.027344-21.03125 21.027344zm0 0" fill="#ffeb99"/><path d="m405.027344 67.78125c-11.5625 0-21.027344 9.460938-21.027344 21.027344v33.585937c0-11.566406 9.464844-21.027343 21.027344-21.027343 11.566406 0 21.03125 9.460937 21.03125 21.027343v-33.585937c0-11.566406-9.464844-21.027344-21.03125-21.027344zm0 0" fill="#ffde55"/><path d="m490.972656 74.289062c-11.566406 0-21.03125 9.464844-21.03125 21.03125v33.585938c0-11.566406 9.464844-21.03125 21.03125-21.03125 11.5625 0 21.027344 9.464844 21.027344 21.03125v-33.585938c0-11.566406-9.464844-21.03125-21.027344-21.03125zm0 0" fill="#ffde55"/><g fill="#acabb1"><path d="m83.480469 139.851562c-4.265625 0-7.726563-3.460937-7.726563-7.726562v-38.425781c0-4.269531 3.460938-7.726563 7.726563-7.726563 4.269531 0 7.726562 3.457032 7.726562 7.726563v38.425781c0 4.265625-3.457031 7.726562-7.726562 7.726562zm0 0"/><path d="m130 150.921875c-4.265625 0-7.726562-3.460937-7.726562-7.726563v-60.566406c0-4.269531 3.460937-7.726562 7.726562-7.726562 4.269531 0 7.726562 3.457031 7.726562 7.726562v60.566406c0 4.265626-3.457031 7.726563-7.726562 7.726563zm0 0"/><path d="m176.519531 150.921875c-4.265625 0-7.726562-3.460937-7.726562-7.726563v-60.566406c0-4.269531 3.460937-7.726562 7.726562-7.726562s7.726563 3.457031 7.726563 7.726562v60.566406c0 4.265626-3.460938 7.726563-7.726563 7.726563zm0 0"/><path d="m223.039062 139.851562c-4.265624 0-7.726562-3.460937-7.726562-7.726562v-38.425781c0-4.269531 3.460938-7.726563 7.726562-7.726563 4.265626 0 7.726563 3.457032 7.726563 7.726563v38.425781c0 4.265625-3.457031 7.726562-7.726563 7.726562zm0 0"/></g></svg>