<svg viewBox="1 0 511.99997 511" xmlns="http://www.w3.org/2000/svg"><path d="m453.019531 495.414062-194.195312-55.953124-27.644531-162.976563-123.625-87.816406-85.21875-144.675781 26.628906-15.6875 81.867187 138.992187 119.441407 84.84375h244.402343zm-166.972656-80.273437 142.335937 41.015625 29.644532-173.109375h-194.390625zm0 0" fill="#78a3ef"/><path d="m71.300781 36.148438c0 19.691406-15.960937 35.648437-35.652343 35.648437-19.6875 0-35.648438-15.957031-35.648438-35.648437 0-19.6875 15.960938-35.648438 35.648438-35.648438 19.691406 0 35.652343 15.960938 35.652343 35.648438zm0 0" fill="#ffde55"/><path d="m35.648438 36.148438c0-13.191407 7.179687-24.710938 17.832031-30.875-5.242188-3.035157-11.335938-4.773438-17.832031-4.773438-19.6875 0-35.648438 15.960938-35.648438 35.648438 0 19.691406 15.960938 35.648437 35.648438 35.648437 6.496093 0 12.589843-1.738281 17.832031-4.773437-10.652344-6.164063-17.832031-17.679688-17.832031-30.875zm0 0" fill="#ffcd00"/><g fill="#ffde55"><path d="m154.839844 177.984375c0 19.6875-15.960938 35.648437-35.648438 35.648437s-35.648437-15.960937-35.648437-35.648437c0-19.691406 15.960937-35.652344 35.648437-35.652344s35.648438 15.960938 35.648438 35.652344zm0 0"/><path d="m280.992188 267.59375c0 19.6875-15.960938 35.648438-35.652344 35.648438-19.6875 0-35.648438-15.960938-35.648438-35.648438s15.960938-35.648438 35.648438-35.648438c19.691406 0 35.652344 15.960938 35.652344 35.648438zm0 0"/><path d="m512 267.59375c0 19.6875-15.960938 35.648438-35.648438 35.648438-19.691406 0-35.652343-15.960938-35.652343-35.648438s15.960937-35.648438 35.652343-35.648438c19.6875 0 35.648438 15.960938 35.648438 35.648438zm0 0"/><path d="m308.085938 427.300781c0 19.691407-15.960938 35.652344-35.652344 35.652344-19.6875 0-35.648438-15.960937-35.648438-35.652344 0-19.6875 15.960938-35.648437 35.648438-35.648437 19.691406 0 35.652344 15.960937 35.652344 35.648437zm0 0"/><path d="m476.351562 475.785156c0 19.6875-15.960937 35.648438-35.652343 35.648438-19.6875 0-35.648438-15.960938-35.648438-35.648438s15.960938-35.648437 35.648438-35.648437c19.691406 0 35.652343 15.960937 35.652343 35.648437zm0 0"/></g><path d="m119.191406 177.984375c0-13.195313 7.179688-24.710937 17.832032-30.878906-5.242188-3.035157-11.335938-4.773438-17.832032-4.773438-19.6875 0-35.648437 15.960938-35.648437 35.652344 0 19.6875 15.960937 35.648437 35.648437 35.648437 6.496094 0 12.589844-1.738281 17.832032-4.773437-10.652344-6.164063-17.832032-17.683594-17.832032-30.875zm0 0" fill="#ffcd00"/><path d="m245.339844 267.59375c0-13.195312 7.183594-24.710938 17.835937-30.875-5.246093-3.035156-11.339843-4.773438-17.835937-4.773438-19.6875 0-35.648438 15.957032-35.648438 35.648438 0 19.6875 15.960938 35.648438 35.648438 35.648438 6.496094 0 12.589844-1.738282 17.835937-4.773438-10.652343-6.164062-17.835937-17.683594-17.835937-30.875zm0 0" fill="#ffcd00"/><path d="m476.351562 267.59375c0-13.195312 7.179688-24.710938 17.832032-30.875-5.246094-3.035156-11.335938-4.773438-17.832032-4.773438-19.691406 0-35.652343 15.957032-35.652343 35.648438 0 19.6875 15.960937 35.648438 35.652343 35.648438 6.496094 0 12.585938-1.738282 17.832032-4.773438-10.652344-6.164062-17.832032-17.683594-17.832032-30.875zm0 0" fill="#ffcd00"/><path d="m272.433594 427.300781c0-13.191406 7.183594-24.710937 17.835937-30.875-5.246093-3.035156-11.339843-4.773437-17.835937-4.773437-19.6875 0-35.648438 15.960937-35.648438 35.648437 0 19.691407 15.960938 35.652344 35.648438 35.652344 6.496094 0 12.589844-1.742187 17.835937-4.777344-10.652343-6.164062-17.835937-17.679687-17.835937-30.875zm0 0" fill="#ffcd00"/><path d="m440.699219 475.785156c0-13.191406 7.183593-24.710937 17.835937-30.875-5.246094-3.035156-11.339844-4.773437-17.835937-4.773437-19.6875 0-35.648438 15.960937-35.648438 35.648437s15.960938 35.648438 35.648438 35.648438c6.496093 0 12.589843-1.738282 17.835937-4.773438-10.652344-6.164062-17.835937-17.679687-17.835937-30.875zm0 0" fill="#ffcd00"/></svg>