<svg viewBox="1 -33 511.99998 511" xmlns="http://www.w3.org/2000/svg"><path d="m500.808594 286.089844-11.238282-29.886719c-10.804687-28.734375-18.488281-58.574219-22.449218-89.015625-7.433594-57.125-43.535156-166.6875-211.121094-166.6875s-203.6875 109.5625-211.121094 166.6875c-3.960937 30.441406-11.644531 60.28125-22.449218 89.015625l-11.238282 29.886719c-11.472656 30.511718 4.277344 71.714844 34.96875 82.691406l140.800782 61.355469h138.074218l140.804688-61.355469c30.691406-10.976562 46.441406-52.179688 34.96875-82.691406zm0 0" fill="#d8d7da"/><path d="m147.402344 278.121094s113.921875-50.53125 114.84375-49.074219c-71.84375-61.734375-58.054688-174.097656-46.734375-226.207031-133.089844 16.175781-163.839844 112.152344-170.632813 164.347656-3.960937 30.441406-11.644531 60.28125-22.449218 89.015625l-11.238282 29.886719c-11.472656 30.511718 4.277344 71.714844 34.96875 82.691406l16.03125 6.984375c30.277344-69.957031 85.210938-97.644531 85.210938-97.644531zm0 0" fill="#c6c5ca"/><path d="m217.597656 388.550781c-3.410156 8.328125-13.007812 12.351563-21.332031 8.945313l-85.578125-35.015625c-8.324219-3.410157-12.347656-13.007813-8.941406-21.332031 3.40625-8.324219 13.003906-12.351563 21.328125-8.945313l85.578125 35.019531c8.324218 3.40625 12.347656 13.003906 8.945312 21.328125zm0 0" fill="#898890"/><path d="m276.992188 388.550781c3.40625 8.328125 13.003906 12.351563 21.328124 8.945313l85.578126-35.015625c8.324218-3.410157 12.351562-13.007813 8.945312-21.332031-3.410156-8.324219-13.007812-12.351563-21.332031-8.945313l-85.578125 35.019531c-8.324219 3.40625-12.347656 13.003906-8.941406 21.328125zm0 0" fill="#898890"/><path d="m256 211.304688c90.699219-16.167969 143.109375-98.324219 166.828125-147.515626-30.777344-35.175781-81.925781-63.289062-166.828125-63.289062s-136.046875 28.109375-166.824219 63.285156c23.722657 49.191406 76.125 131.351563 166.824219 147.519532zm0 0" fill="#eaeaea"/><path d="m215.511719 2.839844c-61.21875 7.441406-100.800781 31.761718-126.335938 60.945312 22.527344 46.714844 70.929688 123.160156 153.429688 144.582032-49.355469-63.664063-37.238281-158.804688-27.09375-205.527344zm0 0" fill="#d8d7da"/><path d="m395.445312 172.535156c-32.191406-31.054687-68.667968-21.730468-96.320312-4.449218-26.308594 16.445312-59.941406 16.445312-86.25 0-27.652344-17.28125-64.128906-26.605469-96.320312 4.449218-32.292969 31.15625-31.730469 83.175782 0 114.902344 15.832031 15.832031 77.625 48.964844 139.445312 49.003906 61.820312-.039062 123.613281-33.171875 139.445312-49.003906 31.730469-31.730469 32.292969-83.746094 0-114.902344zm0 0" fill="#78a3ef"/><path d="m297.359375 445.808594c19.070313 0 34.058594-16.480469 32.054687-35.445313-4.796874-45.402343-19.941406-102.488281-73.414062-102.488281s-68.617188 57.085938-73.414062 102.488281c-2.003907 18.964844 12.984374 35.445313 32.054687 35.445313zm0 0" fill="#c6c5ca"/><path d="m329.414062 410.363281c-1.074218-10.183593-2.675781-20.953125-5.105468-31.535156-17.816406-16.859375-41.84375-27.222656-68.308594-27.222656-26.460938 0-50.492188 10.363281-68.304688 27.222656-2.433593 10.582031-4.03125 21.351563-5.105468 31.535156-2.003906 18.964844 12.984375 35.445313 32.050781 35.445313h82.722656c19.066407 0 34.054688-16.480469 32.050781-35.445313zm0 0" fill="#acabb1"/><path d="m68.71875 175.511719c-4.628906-16.132813-22.664062-16.132813-22.664062-16.132813-25.332032 0-46.054688 20.722656-46.054688 46.054688 0 25.328125 20.722656 46.050781 46.054688 46.050781 0 0 18.035156 0 22.664062-16.132813 2.238281-7.789062 4.988281-17.792968 4.988281-29.917968 0-12.128906-2.75-22.132813-4.988281-29.921875zm0 0" fill="#ff737d"/><path d="m443.28125 175.511719c4.628906-16.132813 22.664062-16.132813 22.664062-16.132813 25.332032 0 46.054688 20.722656 46.054688 46.054688 0 25.328125-20.722656 46.050781-46.054688 46.050781 0 0-18.035156 0-22.664062-16.132813-2.238281-7.789062-4.988281-17.792968-4.988281-29.917968 0-12.128906 2.75-22.132813 4.988281-29.921875zm0 0" fill="#ff929f"/><path d="m256.003906 97.535156c49.828125 0 90.902344-35.597656 96.519532-81.433594-25.976563-9.738281-57.714844-15.601562-96.519532-15.601562-38.804687 0-70.566406 5.871094-96.546875 15.609375 5.621094 45.832031 46.714844 81.425781 96.546875 81.425781zm0 0" fill="#898890"/><path d="m159.457031 16.109375c3.574219 29.15625 21.519531 54.152344 46.921875 68.492187-.054687-32.023437 4.722656-61.460937 9.128906-81.757812-21.167968 2.570312-39.75 7.15625-56.050781 13.265625zm0 0" fill="#73737a"/><path d="m194.433594 158.5625c-24.324219-9.894531-52.4375-10.570312-77.878906 13.972656-32.292969 31.152344-31.730469 83.171875 0 114.902344 9.878906 9.878906 37.664062 26.5 72.175781 37.609375-78.683594-79.007813-22.902344-142.300781 5.703125-166.484375zm0 0" fill="#6392d6"/></svg>