<svg viewBox="-13 0 512 512.00038" xmlns="http://www.w3.org/2000/svg"><path d="m356.714844 471.582031h-226.941406c-9.246094 0-16.742188-7.496093-16.742188-16.742187v-15.433594c0-9.246094 7.496094-16.742188 16.742188-16.742188h226.941406c9.246094 0 16.742187 7.496094 16.742187 16.742188v15.433594c0 9.246094-7.496093 16.742187-16.742187 16.742187zm0 0" fill="#78a3ef"/><path d="m243.363281 422.664062h-113.589843c-9.25 0-16.742188 7.496094-16.742188 16.742188v15.433594c0 9.246094 7.496094 16.742187 16.742188 16.742187h113.589843zm0 0" fill="#6392d6"/><path d="m235.1875 264.730469h15.453125v141.691406h-15.453125zm0 0" fill="#898890"/><path d="m198.914062 406.007812s-39.425781-4.320312-77.984374-27.335937c-35.941407-21.457031-79.011719-63.851563-80.09375-143.992187l15.449218-.210938c.792969 58.613281 25.207032 102.664062 72.5625 130.933594 15.699219 9.371094 31.394532 15.375 44.078125 19.164062-15.566406-17.792968-27.664062-41.097656-35.566406-68.808594-8.476563-29.722656-9.222656-53.867187-9.25-54.882812l15.449219-.417969c.035156 1.210938 3.363281 92.058594 60.542968 131.507813zm-55.355468-145.558593v.007812zm0 0" fill="#898890"/><path d="m282.386719 391.964844c57.398437-39.601563 60.515625-130.59375 60.542969-131.507813l15.445312.417969c-.027344 1.011719-.769531 25.160156-9.25 54.882812-7.898438 27.695313-19.988281 50.996094-35.539062 68.78125 12.824218-3.832031 28.714843-9.914062 44.511718-19.410156 47.054688-28.289062 71.3125-72.246094 72.101563-130.660156l15.453125.210938c-1.085938 80.140624-44.152344 122.535156-80.09375 143.992187-38.558594 23.015625-77.988282 27.335937-77.988282 27.335937-.265624.027344-5.183593-14.042968-5.183593-14.042968zm0 0" fill="#898890"/><path d="m243.242188.046875s-176.359376-7.019531-232.875 152.816406c-56.511719 159.832031 133.402343 123.6875 198.460937 82.289063-.660156 1.3125 34.414063-235.105469 34.414063-235.105469zm0 0" fill="#fcac54"/><path d="m243.242188.046875s-133.140626 23.03125-161.914063 222.109375c0 0-9.671875 69.945312 61.652344 72.6875 68.210937 2.621094 72.050781-72.6875 72.050781-72.6875zm0 0" fill="#ffc477"/><path d="m243.242188.046875s176.359374-7.019531 232.875 152.816406c56.515624 159.832031-133.402344 123.6875-198.457032 82.289063.65625 1.3125-34.417968-235.105469-34.417968-235.105469zm0 0" fill="#fcac54"/><path d="m243.242188.046875s133.144531 23.03125 161.917968 222.109375c0 0 9.671875 69.945312-61.65625 72.6875-68.207031 2.621094-72.046875-72.6875-72.046875-72.6875zm0 0" fill="#ffc477"/><path d="m306.035156 242.886719c0 34.679687-28.113281 62.792969-62.792968 62.792969-34.679688 0-62.789063-28.113282-62.789063-62.792969 0-34.679688 28.109375-242.839844 62.789063-242.839844 34.679687 0 62.792968 208.160156 62.792968 242.839844zm0 0" fill="#ffdaaa"/><path d="m314.5625 386.5625h-142.390625c-14.714844 0-26.640625 11.925781-26.640625 26.640625v70.523437h195.671875v-70.523437c0-14.714844-11.929687-26.640625-26.640625-26.640625zm0 0" fill="#c6c5ca"/><path d="m223.453125 386.5625h-51.28125c-14.714844 0-26.640625 11.925781-26.640625 26.640625v70.523437h51.28125v-70.523437c0-14.714844 11.929688-26.640625 26.640625-26.640625zm0 0" fill="#acabb1"/><g fill="#898890"><path d="m189.085938 494.136719c-4.265626 0-7.726563-3.460938-7.726563-7.726563v-58.300781c0-4.269531 3.460937-7.726563 7.726563-7.726563 4.269531 0 7.726562 3.457032 7.726562 7.726563v58.300781c0 4.265625-3.457031 7.726563-7.726562 7.726563zm0 0"/><path d="m225.273438 494.136719c-4.269532 0-7.726563-3.460938-7.726563-7.726563v-58.300781c0-4.269531 3.457031-7.726563 7.726563-7.726563 4.265624 0 7.726562 3.457032 7.726562 7.726563v58.300781c0 4.265625-3.460938 7.726563-7.726562 7.726563zm0 0"/><path d="m261.457031 494.136719c-4.265625 0-7.722656-3.460938-7.722656-7.726563v-58.300781c0-4.269531 3.457031-7.726563 7.722656-7.726563 4.269531 0 7.726563 3.457032 7.726563 7.726563v58.300781c0 4.265625-3.457032 7.726563-7.726563 7.726563zm0 0"/><path d="m297.644531 494.136719c-4.265625 0-7.726562-3.460938-7.726562-7.726563v-58.300781c0-4.269531 3.460937-7.726563 7.726562-7.726563 4.269531 0 7.726563 3.457032 7.726563 7.726563v58.300781c0 4.265625-3.457032 7.726563-7.726563 7.726563zm0 0"/></g><path d="m344.984375 512h-203.238281c-12.566406 0-22.847656-10.28125-22.847656-22.847656s10.28125-22.847656 22.847656-22.847656h203.238281c12.566406 0 22.847656 10.28125 22.847656 22.847656s-10.28125 22.847656-22.847656 22.847656zm0 0" fill="#d8d7da"/><path d="m177.289062 489.152344c0-12.566406 10.28125-22.847656 22.847657-22.847656h-58.390625c-12.566406 0-22.847656 10.28125-22.847656 22.847656s10.28125 22.847656 22.847656 22.847656h58.390625c-12.566407 0-22.847657-10.28125-22.847657-22.847656zm0 0" fill="#c6c5ca"/><path d="m243.242188 209.675781c-15.988282 0-28.949219-12.960937-28.949219-28.945312v-21.046875c0-4.367188 3.539062-7.902344 7.902343-7.902344h42.09375c4.363282 0 7.902344 3.535156 7.902344 7.902344v21.046875c0 15.984375-12.960937 28.945312-28.949218 28.945312zm0 0" fill="#57565c"/><path d="m177.289062 180.730469c0-13.582031-13.824218-24.589844-30.878906-24.589844-17.054687 0-30.878906 11.007813-30.878906 24.589844 0 13.578125 13.824219 24.589843 30.878906 24.589843 17.054688 0 30.878906-11.011718 30.878906-24.589843zm0 0" fill="#ff83a6"/><path d="m370.953125 180.730469c0-13.582031-13.824219-24.589844-30.875-24.589844-17.054687 0-30.878906 11.007813-30.878906 24.589844 0 13.578125 13.824219 24.589843 30.878906 24.589843 17.050781 0 30.875-11.011718 30.875-24.589843zm0 0" fill="#ff83a6"/><path d="m326.335938 167.230469c-4.269532 0-7.726563-3.460938-7.726563-7.726563v-12.828125c0-4.265625 3.457031-7.722656 7.726563-7.722656 4.265624 0 7.726562 3.457031 7.726562 7.722656v12.828125c0 4.265625-3.460938 7.726563-7.726562 7.726563zm0 0" fill="#57565c"/><path d="m160.152344 167.230469c-4.269532 0-7.726563-3.460938-7.726563-7.726563v-12.828125c0-4.265625 3.457031-7.722656 7.726563-7.722656 4.269531 0 7.726562 3.457031 7.726562 7.722656v12.828125c0 4.265625-3.457031 7.726563-7.726562 7.726563zm0 0" fill="#57565c"/></svg>