<svg viewBox="-6 1 511 511.99994" xmlns="http://www.w3.org/2000/svg"><path d="m291.1875 172v-125.757812c0-25.539063-20.703125-46.242188-46.238281-46.242188h-177.839844c-25.539063 0-46.238281 20.703125-46.238281 46.242188v409.40625c0 26.898437 21.804687 48.703124 48.703125 48.703124h43.085937c20.769532 0 30.839844-3.695312 58.445313-17.460937 30.199219-15.058594 52.863281.085937 52.863281.085937 17.335938 11.335938 37.601562 17.375 58.316406 17.375h135.207032c34.636718 0 62.714843-28.078124 62.714843-62.714843v-80.621094c0-52.195313-42.3125-94.507813-94.511719-94.507813 0 0-94.507812 0-94.507812-94.507812zm0 0" fill="#57565c"/><path d="m171.421875 246.832031c13.359375-57.023437 68.761719-54.148437 68.761719-54.148437v-41.957032h-219.3125v245.675782c95.6875-16.808594 139.289062-101.507813 150.550781-149.570313zm0 0" fill="#454449"/><path d="m337.007812 432.324219-.71875 72.027343h81.203126c34.632812 0 62.710937-28.078124 62.710937-62.714843v-80.621094c0-52.195313-42.3125-94.507813-94.507813-94.507813-92.261718 55.472657-48.6875 165.816407-48.6875 165.816407zm0 0" fill="#898890"/><path d="m171.230469 432.324219s5.144531-46.53125-37.941407-86.3125c-43.085937-39.777344-63.480468-98.640625-69.207031-160.292969l-43.210937 64.257812v205.671876zm0 0" fill="#acabb1"/><path d="m20.871094 249.976562v146.425782c45.699218-8.027344 79.503906-31.519532 103.59375-59.132813-37.078125-39.398437-55.0625-94.277343-60.382813-151.554687zm0 0" fill="#898890"/><path d="m309.140625 113.402344h-162.644531c-10.4375 0-18.898438-8.460938-18.898438-18.898438v-29.492187c0-13.085938-10.605468-23.695313-23.695312-23.695313h-79.707032c-13.085937 0-23.695312 10.609375-23.695312 23.695313v165.054687c0 35.097656 28.453125 63.546875 63.546875 63.546875 35.097656 0 63.550781-28.449219 63.550781-63.546875v-27.578125c0-10.4375 8.460938-18.898437 18.898438-18.898437h162.640625v-70.1875zm0 0" fill="#d8d7da"/><path d="m171.230469 113.402344h137.910156v70.1875h-137.910156zm0 0" fill="#c6c5ca"/><path d="m52.953125 230.066406v-165.054687c0-13.085938 10.609375-23.695313 23.695313-23.695313h-52.453126c-13.085937 0-23.695312 10.609375-23.695312 23.695313v165.054687c0 35.097656 28.453125 63.546875 63.550781 63.546875 9.355469 0 18.257813-2.03125 26.253907-5.660156-22.007813-9.988281-37.351563-32.144531-37.351563-57.886719zm0 0" fill="#c6c5ca"/><path d="m295.617188 192.683594h-68.558594c-10.925782 0-19.785156-8.859375-19.785156-19.785156v-47.367188c0-10.925781 8.859374-19.785156 19.785156-19.785156h68.558594c10.925781 0 19.785156 8.859375 19.785156 19.785156v47.367188c0 10.925781-8.859375 19.785156-19.785156 19.785156zm0 0" fill="#eaeaea"/><path d="m94.199219 231.726562c0 16.632813-13.484375 30.113282-30.117188 30.113282-16.628906 0-30.113281-13.480469-30.113281-30.113282 0-16.632812 13.484375-30.113281 30.113281-30.113281 16.632813 0 30.117188 13.480469 30.117188 30.113281zm0 0" fill="#898890"/><path d="m152.078125 512h-127.683594c-10.53125 0-19.152343-8.621094-19.152343-19.152344v-41.371094c0-10.535156 8.621093-19.152343 19.152343-19.152343h146.835938v60.523437c0 10.535156-8.617188 19.152344-19.152344 19.152344zm0 0" fill="#d8d7da"/><path d="m472.285156 432.324219h-156.25c-22.296875 0-44.203125 5.855469-63.527344 16.980469l-53.707031 30.921874c14.890625 32.425782 57.917969 31.773438 57.917969 31.773438h218.800781c13.371094 0 24.308594-10.941406 24.308594-24.308594v-27.824218c0-15.210938-12.332031-27.542969-27.542969-27.542969zm0 0" fill="#d8d7da"/><path d="m309.140625 492.847656v-41.371094c0-10.53125 8.617187-19.148437 19.148437-19.152343h-12.253906c-22.296875 0-44.203125 5.855469-63.527344 16.984375l-53.707031 30.917968c14.890625 32.425782 57.917969 31.773438 57.917969 31.773438h71.570312c-10.53125-.003906-19.148437-8.621094-19.148437-19.152344zm0 0" fill="#c6c5ca"/><path d="m277.089844 332.988281 79.789062-71.144531c-22.625-6.550781-51.9375-22.316406-62.066406-60.226562l-76.382812 41.628906c-18.917969 10.308594-26.035157 33.90625-15.972657 52.953125l13.628907 25.796875c11.941406 22.601562 41.925781 28.007812 61.003906 10.992187zm0 0" fill="#acabb1"/><path d="m357.390625 262.207031-42.222656 38.789063c-6.171875 5.667968-15.769531 5.261718-21.441407-.910156l-21.222656-23.097657c-5.667968-6.171875-5.261718-15.773437.910156-21.441406l42.21875-38.789063c6.171876-5.671874 15.773438-5.265624 21.441407.90625l21.222656 23.101563c5.671875 6.171875 5.265625 15.769531-.90625 21.441406zm0 0" fill="#eaeaea"/><path d="m71.828125 492.847656v-41.371094c0-10.535156 8.617187-19.152343 19.148437-19.152343h-66.582031c-10.53125 0-19.152343 8.617187-19.152343 19.152343v41.371094c0 10.53125 8.621093 19.152344 19.152343 19.152344h66.585938c-10.535157 0-19.152344-8.621094-19.152344-19.152344zm0 0" fill="#c6c5ca"/></svg>