<svg viewBox="0 -114 512.00001 512" xmlns="http://www.w3.org/2000/svg"><path d="m143.421875 249.78125h108.132813c31.660156 0 60.480468-17.410156 75.210937-45.433594l34.199219-65.816406h-40.007813l-25.851562 49.171875c-8.53125 16.226563-25.21875 26.308594-43.550781 26.308594h-108.132813zm0 0" fill="#898890"/><path d="m242.164062 143.222656s-19.265624 116.207032-147.363281 140.585938c-25.796875 4.910156-49.660156-15.015625-49.660156-41.277344v-138.773438zm0 0" fill="#c6c5ca"/><path d="m45.140625 224.871094c83.734375-.195313 137.375-9.246094 169.730469-18 22.226562-33.074219 27.292968-63.648438 27.292968-63.648438l-197.023437-39.464844zm0 0" fill="#acabb1"/><path d="m24.203125 119.175781h47.921875v-63.277343h-47.921875c-13.367187 0-24.203125 10.835937-24.203125 24.203124v14.871094c0 13.367188 10.835938 24.203125 24.203125 24.203125zm0 0" fill="#ff737d"/><path d="m504.386719 95.148438h-91.007813c-4.207031 0-7.613281-3.410157-7.613281-7.613282s3.40625-7.613281 7.613281-7.613281h91.007813c4.207031 0 7.613281 3.410156 7.613281 7.613281s-3.40625 7.613282-7.613281 7.613282zm0 0" fill="#d8d7da"/><path d="m403.578125 37.695312 39.914063 23.5625c6.363281 3.753907 10.265624 10.589844 10.265624 17.980469v16.597657c0 7.386718-3.902343 14.222656-10.265624 17.976562l-39.914063 23.5625zm0 0" fill="#acabb1"/><path d="m334.96875 141.441406h67.519531c12.972657 0 23.492188-10.515625 23.492188-23.492187v-60.828125c0-12.972656-10.519531-23.492188-23.492188-23.492188h-67.519531zm0 0" fill="#c6c5ca"/><path d="m79.46875 25.910156h277.140625v123.25h-277.140625zm0 0" fill="#bdfaff"/><path d="m79.46875 25.910156h138.570312v123.25h-138.570312zm0 0" fill="#ff929f"/><path d="m45.003906 48.453125v78.164063c0 26.757812 21.695313 48.453124 48.453125 48.453124h249.164063c26.757812 0 48.453125-21.695312 48.453125-48.453124v-78.164063c0-26.757813-21.695313-48.453125-48.453125-48.453125h-249.164063c-26.757812 0-48.453125 21.695312-48.453125 48.453125zm45.464844 39.082031c0-17.167968 14.046875-31.214844 31.214844-31.214844h192.710937c17.167969 0 31.214844 14.046876 31.214844 31.214844 0 17.167969-14.046875 31.214844-31.214844 31.214844h-192.710937c-17.167969 0-31.214844-14.046875-31.214844-31.214844zm0 0" fill="#d8d7da"/><path d="m122.71875 126.617188v-78.164063c0-8.140625 2.019531-15.808594 5.566406-22.542969h-48.816406v123.25h48.816406c-3.546875-6.734375-5.566406-14.402344-5.566406-22.542968zm0 0" fill="#ff737d"/><path d="m122.71875 126.617188v-7.867188h-1.035156c-17.167969 0-31.214844-14.046875-31.214844-31.214844 0-17.167968 14.046875-31.214844 31.214844-31.214844h1.035156v-7.867187c0-26.757813 21.695312-48.453125 48.453125-48.453125h-77.714844c-26.757812 0-48.453125 21.695312-48.453125 48.453125v78.164063c0 26.761718 21.695313 48.453124 48.453125 48.453124h77.714844c-26.757813 0-48.453125-21.691406-48.453125-48.453124zm0 0" fill="#c6c5ca"/></svg>