<svg viewBox="0 -2 511.9846 511" xmlns="http://www.w3.org/2000/svg"><path d="m383.925781 453.929688c-22.847656 22.847656-36.433593 46.304687-30.347656 52.390624 6.085937 6.085938 29.542969-7.5 52.390625-30.347656 22.84375-22.847656 36.433594-46.304687 30.347656-52.390625-6.089844-6.085937-29.542968 7.5-52.390625 30.347657zm0 0" fill="#c6c5ca"/><path d="m458.148438 379.707031c-22.847657 22.847657-36.433594 46.304688-30.347657 52.390625 6.085938 6.085938 29.542969-7.5 52.390625-30.347656s36.433594-46.304688 30.347656-52.390625c-6.085937-6.085937-29.542968 7.5-52.390624 30.347656zm0 0" fill="#c6c5ca"/><path d="m128.054688 453.921875c-22.847657-22.847656-46.304688-36.433594-52.390626-30.347656-6.085937 6.085937 7.5 29.542969 30.347657 52.386719 22.847656 22.847656 46.300781 36.4375 52.390625 30.347656 6.085937-6.085938-7.503906-29.539063-30.347656-52.386719zm0 0" fill="#c6c5ca"/><path d="m53.832031 379.699219c-22.847656-22.847657-46.304687-36.433594-52.390625-30.347657-6.085937 6.085938 7.503906 29.542969 30.347656 52.386719 22.847657 22.847657 46.304688 36.4375 52.390626 30.347657 6.085937-6.085938-7.5-29.539063-30.347657-52.386719zm0 0" fill="#c6c5ca"/><path d="m383.929688 54.324219c22.847656 22.847656 46.300781 36.433593 52.386718 30.347656 6.089844-6.085937-7.5-29.542969-30.347656-52.390625-22.84375-22.84375-46.300781-36.433594-52.386719-30.347656-6.085937 6.089844 7.5 29.542968 30.347657 52.390625zm0 0" fill="#c6c5ca"/><path d="m458.152344 128.546875c22.847656 22.847656 46.304687 36.433594 52.390625 30.347656 6.085937-6.085937-7.5-29.542969-30.347657-52.390625-22.847656-22.84375-46.304687-36.433594-52.390624-30.347656-6.085938 6.089844 7.5 29.542969 30.347656 52.390625zm0 0" fill="#c6c5ca"/><path d="m315.519531 141.164062h-119.054687v-25.824218c0-11.84375 9.601562-21.445313 21.445312-21.445313h76.164063c11.84375 0 21.445312 9.601563 21.445312 21.445313zm0 0" fill="#ff929f"/><path d="m425.46875 66.023438c-116.839844 77.234374-222.113281 77.234374-338.953125 0l-18.628906 18.625c77.238281 116.839843 77.238281 222.113281 0 338.953124l18.628906 18.628907c116.839844-77.238281 222.113281-77.238281 338.953125 0l18.625-18.628907c-77.234375-116.839843-77.234375-222.113281 0-338.953124zm0 0" fill="#eaeaea"/><path d="m268.035156 157.25c46.917969-20.769531 79.796875-50.726562 79.796875-50.726562-87.339843 32.808593-170.847656 19.304687-261.316406-40.5l-18.628906 18.625c77.238281 116.839843 77.238281 222.113281 0 338.953124l18.628906 18.628907c37.832031-25.011719 74.457031-41.921875 110.648437-50.738281 28.84375-54.355469 31.191407-117.703126 27.902344-162.054688-2.277344-30.707031 14.8125-59.722656 42.96875-72.1875zm0 0" fill="#d8d7da"/><path d="m128.054688 54.324219c22.847656-22.84375 36.4375-46.300781 30.347656-52.386719-6.085938-6.085938-29.539063 7.5-52.386719 30.347656s-36.433594 46.300782-30.347656 52.386719c6.085937 6.089844 29.542969-7.5 52.386719-30.347656zm0 0" fill="#c6c5ca"/><path d="m53.835938 128.546875c22.847656-22.84375 36.433593-46.300781 30.347656-52.386719-6.085938-6.085937-29.542969 7.5-52.390625 30.347656-22.847657 22.847657-36.433594 46.300782-30.347657 52.386719 6.085938 6.085938 29.542969-7.5 52.390626-30.347656zm0 0" fill="#c6c5ca"/><g fill="#acabb1"><path d="m84.183594 76.160156c-6.03125-6.03125-29.113282 7.25-51.757813 29.71875 2.433594 4.546875 5.558594 8.820313 9.386719 12.652344 3.789062 3.785156 8.042969 6.9375 12.632812 9.40625 22.476563-22.652344 35.769532-45.746094 29.738282-51.777344zm0 0"/><path d="m75.667969 84.675781c6.03125 6.03125 29.113281-7.253906 51.761719-29.722656-2.4375-4.542969-5.5625-8.816406-9.390626-12.648437-3.789062-3.785157-8.042968-6.941407-12.632812-9.410157-22.476562 22.652344-35.769531 45.746094-29.738281 51.78125zm0 0"/><path d="m427.800781 76.160156c6.03125-6.03125 29.113281 7.253906 51.757813 29.71875-2.433594 4.546875-5.558594 8.820313-9.386719 12.652344-3.789063 3.785156-8.042969 6.9375-12.632813 9.40625-22.476562-22.652344-35.769531-45.746094-29.738281-51.777344zm0 0"/><path d="m436.316406 84.675781c-6.03125 6.03125-29.113281-7.253906-51.761718-29.722656 2.433593-4.542969 5.5625-8.820313 9.390624-12.648437 3.785157-3.785157 8.042969-6.941407 12.628907-9.410157 22.480469 22.652344 35.773437 45.746094 29.742187 51.78125zm0 0"/><path d="m75.667969 423.578125c6.03125-6.03125 29.113281 7.25 51.757812 29.71875-2.433593 4.542969-5.558593 8.820313-9.386719 12.648437-3.789062 3.789063-8.042968 6.941407-12.632812 9.410157-22.476562-22.652344-35.769531-45.746094-29.738281-51.777344zm0 0"/><path d="m84.183594 432.089844c-6.03125 6.03125-29.113282-7.253906-51.761719-29.71875 2.433594-4.546875 5.5625-8.820313 9.390625-12.648438 3.785156-3.789062 8.042969-6.941406 12.628906-9.410156 22.480469 22.652344 35.773438 45.746094 29.742188 51.777344zm0 0"/><path d="m436.316406 423.578125c-6.03125-6.03125-29.113281 7.25-51.757812 29.71875 2.433594 4.542969 5.558594 8.820313 9.386718 12.648437 3.785157 3.789063 8.042969 6.941407 12.628907 9.410157 22.480469-22.652344 35.773437-45.746094 29.742187-51.777344zm0 0"/><path d="m427.800781 432.089844c6.03125 6.03125 29.113281-7.253906 51.757813-29.71875-2.429688-4.546875-5.558594-8.820313-9.386719-12.648438-3.789063-3.789062-8.042969-6.941406-12.632813-9.410156-22.476562 22.652344-35.773437 45.746094-29.738281 51.777344zm0 0"/></g><path d="m106.011719 80.417969c0 14.40625-11.679688 26.085937-26.085938 26.085937s-26.085937-11.679687-26.085937-26.085937 11.679687-26.085938 26.085937-26.085938 26.085938 11.679688 26.085938 26.085938zm0 0" fill="#ff929f"/><path d="m458.144531 80.417969c0 14.40625-11.679687 26.085937-26.085937 26.085937s-26.085938-11.679687-26.085938-26.085937 11.679688-26.085938 26.085938-26.085938 26.085937 11.679688 26.085937 26.085938zm0 0" fill="#ff929f"/><path d="m106.011719 427.832031c0 14.40625-11.679688 26.085938-26.085938 26.085938s-26.085937-11.679688-26.085937-26.085938 11.679687-26.082031 26.085937-26.082031 26.085938 11.675781 26.085938 26.082031zm0 0" fill="#ff929f"/><path d="m458.144531 427.832031c0 14.40625-11.679687 26.085938-26.085937 26.085938s-26.085938-11.679688-26.085938-26.085938 11.679688-26.082031 26.085938-26.082031 26.085937 11.675781 26.085937 26.082031zm0 0" fill="#ff929f"/><path d="m339.082031 264.21875c-4.265625 0-7.726562-3.457031-7.726562-7.726562v-12.824219c0-4.269531 3.460937-7.726563 7.726562-7.726563 4.269531 0 7.726563 3.457032 7.726563 7.726563v12.824219c0 4.269531-3.457032 7.726562-7.726563 7.726562zm0 0" fill="#57565c"/><path d="m172.898438 264.21875c-4.265626 0-7.726563-3.457031-7.726563-7.726562v-12.824219c0-4.269531 3.460937-7.726563 7.726563-7.726563 4.269531 0 7.726562 3.457032 7.726562 7.726563v12.824219c0 4.269531-3.457031 7.726562-7.726562 7.726562zm0 0" fill="#57565c"/><path d="m255.992188 272.308594c-10 0-20-3.234375-28.34375-9.707032-3.375-2.617187-3.984376-7.46875-1.371094-10.839843 2.613281-3.375 7.46875-3.988281 10.839844-1.371094 11.113281 8.621094 26.632812 8.621094 37.746093 0 3.371094-2.613281 8.226563-2 10.839844 1.371094 2.617187 3.371093 2.003906 8.222656-1.367187 10.839843-8.34375 6.472657-18.34375 9.707032-28.34375 9.707032zm0 0" fill="#57565c"/></svg>