<svg viewBox="0 -19 512.00005 512" xmlns="http://www.w3.org/2000/svg"><path d="m7.574219 80.261719 151.847656 255.558593h193.160156l151.847657-255.558593c20.960937-35.277344-4.078126-80.261719-44.671876-80.261719h-407.515624c-40.59375 0-65.628907 44.984375-44.667969 80.261719zm0 0" fill="#bdfaff"/><path d="m150.984375 0h-98.742187c-40.59375 0-65.628907 44.984375-44.671876 80.261719l151.851563 255.558593h98.742187l-151.847656-255.558593c-20.960937-35.277344 4.074219-80.261719 44.667969-80.261719zm0 0" fill="#a0f0f2"/><path d="m136.832031 395.035156h-47.207031c-14.390625 0-26.058594-11.664062-26.058594-26.058594v-8.589843c0-14.394531 11.667969-26.0625 26.058594-26.0625h47.207031zm0 0" fill="#acabb1"/><path d="m411.6875 415.152344h-303.820312v-68.976563c0-23.039062 18.675781-41.714843 41.714843-41.714843h220.386719c23.039062 0 41.71875 18.675781 41.71875 41.714843zm0 0" fill="#d8d7da"/><path d="m224.261719 304.460938h-74.679688c-23.039062 0-41.714843 18.675781-41.714843 41.714843v68.976563h74.679687v-68.976563c0-23.039062 18.675781-41.714843 41.714844-41.714843zm0 0" fill="#c6c5ca"/><path d="m417.585938 473.269531h-315.621094c-26.410156 0-48.019532-21.609375-48.019532-48.019531s21.609376-48.019531 48.019532-48.019531h315.621094c26.410156 0 48.019531 21.609375 48.019531 48.019531s-21.609375 48.019531-48.019531 48.019531zm0 0" fill="#ff929f"/><path d="m149.015625 425.25c0-26.410156 21.609375-48.019531 48.019531-48.019531h-95.070312c-26.410156 0-48.019532 21.609375-48.019532 48.019531s21.609376 48.019531 48.019532 48.019531h95.070312c-26.410156 0-48.019531-21.609375-48.019531-48.019531zm0 0" fill="#ff737d"/><path d="m294.402344 97.78125h-69.25c-8.105469 0-15.796875 3.585938-21.007813 9.789062l-18.867187 22.457032c-8.011719 9.542968-6.980469 23.730468 2.332031 32.011718l56.832031 50.515626c8.742188 7.773437 21.921875 7.773437 30.667969 0l56.828125-50.515626c9.316406-8.28125 10.347656-22.46875 2.335938-32.011718l-18.867188-22.457032c-5.210938-6.203124-12.898438-9.789062-21.003906-9.789062zm0 0" fill="#92d8ff"/><path d="m245.832031 162.039062c-9.316406-8.28125-10.351562-22.46875-2.335937-32.011718l18.867187-22.457032c5.210938-6.203124 12.902344-9.789062 21.007813-9.789062h-58.21875c-8.105469 0-15.792969 3.585938-21.007813 9.789062l-18.863281 22.457032c-8.015625 9.542968-6.984375 23.730468 2.332031 32.011718l56.828125 50.515626c8.746094 7.773437 21.925782 7.773437 30.667969 0l13.777344-12.246094zm0 0" fill="#72cef7"/><path d="m49.941406 280.113281-34.820312-57.746093c-4.46875-7.417969-2.082032-17.054688 5.332031-21.523438 7.417969-4.472656 17.054687-2.085938 21.527344 5.328125l34.816406 57.746094c4.472656 7.417969 2.085937 17.054687-5.332031 21.527343-2.53125 1.527344-14.160156 6.824219-21.523438-5.332031zm0 0" fill="#a0f0f2"/><path d="m469.613281 280.113281 34.816407-57.746093c4.472656-7.417969 2.085937-17.054688-5.332032-21.523438-7.414062-4.472656-17.050781-2.085938-21.523437 5.328125l-34.820313 57.746094c-4.46875 7.417969-2.082031 17.054687 5.332032 21.527343 2.535156 1.527344 14.164062 6.824219 21.527343-5.332031zm0 0" fill="#bdfaff"/></svg>