<svg viewBox="0 -13 512.00024 512" xmlns="http://www.w3.org/2000/svg"><path d="m63.070312 477.128906-55.199218-55.199218c-10.496094-10.496094-10.496094-27.511719 0-38.003907l89.78125-89.78125 93.207031 93.207031-89.78125 89.777344c-10.496094 10.496094-27.511719 10.496094-38.007813 0zm0 0" fill="#c6c5ca"/><path d="m7.871094 383.925781c-10.496094 10.492188-10.492188 27.507813 0 38.003907l24.054687 24.050781 22.417969-22.417969c21.027344-21.027344 53.960938-24.503906 78.804688-8.167969 6.84375 4.5 13.109374 8.214844 18.480468 11.1875l39.230469-39.230469-93.207031-93.207031zm0 0" fill="#acabb1"/><path d="m232.929688 359.746094c-2.375-17.144532 9.714843-33.117188 26.863281-35.488282l200.195312-27.6875c17.144531-2.371093 33.117188 9.71875 35.488281 26.863282 2.371094 17.148437-9.71875 33.117187-26.863281 35.488281l-200.199219 27.6875c-17.144531 2.371094-33.113281-9.714844-35.484374-26.863281zm0 0" fill="#c6c5ca"/><path d="m394.824219 305.582031-135.03125 18.675781c-17.148438 2.371094-29.238281 18.339844-26.863281 35.488282 2.371093 17.148437 18.339843 29.234375 35.484374 26.863281l101.164063-13.992187zm0 0" fill="#acabb1"/><path d="m328.746094 277.753906c-11.410156-11.410156-11.410156-30.078125 0-41.488281l133.207031-133.207031c11.410156-11.410156 30.082031-11.410156 41.488281 0 11.410156 11.410156 11.410156 30.078125 0 41.488281l-133.207031 133.207031c-11.410156 11.410156-30.078125 11.410156-41.488281 0zm0 0" fill="#c6c5ca"/><path d="m453.570312 182.269531c0 16.199219-13.132812 29.335938-29.335937 29.335938s-29.335937-13.136719-29.335937-29.335938c0-16.203125 13.132812-29.335937 29.335937-29.335937s29.335937 13.132812 29.335937 29.335937zm0 0" fill="#a0f0f2"/><path d="m245.769531 194.777344c-11.410156-11.40625-11.410156-30.078125 0-41.488282l133.210938-133.207031c11.40625-11.410156 30.078125-11.410156 41.488281 0 11.40625 11.410157 11.40625 30.078125 0 41.488281l-133.210938 133.207032c-11.410156 11.410156-30.078124 11.410156-41.488281 0zm0 0" fill="#c6c5ca"/><path d="m204.28125 153.289062c-11.410156-11.40625-11.410156-30.078124 0-41.488281l103.246094-103.242187c11.410156-11.410156 30.078125-11.410156 41.488281 0 11.40625 11.40625 11.40625 30.078125 0 41.488281l-103.246094 103.242187c-11.410156 11.410157-30.078125 11.410157-41.488281 0zm0 0" fill="#d8d7da"/><path d="m287.257812 236.265625c-11.410156-11.40625-11.410156-30.078125 0-41.488281l149.21875-149.21875c11.410157-11.40625 30.078126-11.40625 41.488282 0 11.410156 11.410156 11.410156 30.082031 0 41.488281l-149.21875 149.21875c-11.410156 11.410156-30.078125 11.410156-41.488282 0zm0 0" fill="#d8d7da"/><path d="m370.59375 99.292969c0 16.199219-13.136719 29.335937-29.335938 29.335937-16.203124 0-29.335937-13.136718-29.335937-29.335937 0-16.203125 13.132813-29.339844 29.335937-29.339844 16.199219 0 29.335938 13.136719 29.335938 29.339844zm0 0" fill="#a0f0f2"/><path d="m329.105469 57.804688c0 16.203124-13.136719 29.335937-29.335938 29.335937-16.203125 0-29.335937-13.132813-29.335937-29.335937 0-16.203126 13.132812-29.335938 29.335937-29.335938 16.199219 0 29.335938 13.132812 29.335938 29.335938zm0 0" fill="#bdfaff"/><path d="m412.082031 140.78125c0 16.199219-13.132812 29.335938-29.335937 29.335938s-29.335938-13.136719-29.335938-29.335938c0-16.203125 13.132813-29.339844 29.335938-29.339844s29.335937 13.136719 29.335937 29.339844zm0 0" fill="#bdfaff"/><path d="m370.070312 194.941406-41.324218 41.324219c-11.410156 11.410156-11.410156 30.082031 0 41.488281 11.410156 11.410156 30.078125 11.410156 41.488281 0l41.324219-41.324218zm0 0" fill="#acabb1"/><path d="m328.582031 153.453125-41.324219 41.324219c-11.410156 11.410156-11.410156 30.082031 0 41.488281 11.410157 11.410156 30.078126 11.410156 41.488282 0l41.324218-41.324219zm0 0" fill="#c6c5ca"/><path d="m287.09375 111.964844-41.324219 41.324218c-11.410156 11.410157-11.410156 30.082032 0 41.488282 11.410157 11.410156 30.078125 11.410156 41.488281 0l41.324219-41.324219zm0 0" fill="#acabb1"/><path d="m245.605469 70.476562-41.324219 41.328126c-11.410156 11.40625-11.410156 30.078124 0 41.488281 11.410156 11.40625 30.078125 11.40625 41.488281 0l41.324219-41.328125zm0 0" fill="#c6c5ca"/><path d="m166.472656 404.167969-87.105468-87.109375c-12.328126-12.328125-12.328126-32.3125 0-44.640625l29.824218-29.828125 131.75 131.75-29.824218 29.828125c-12.328126 12.328125-32.316407 12.328125-44.644532 0zm0 0" fill="#d8d7da"/><path d="m120.105469 313.15625 29.828125-29.828125-40.742188-40.738281-29.824218 29.828125c-12.328126 12.328125-12.328126 32.3125 0 44.640625l40.738281 40.742187c-12.328125-12.328125-12.328125-32.316406 0-44.644531zm0 0" fill="#c6c5ca"/><path d="m435.363281 336.101562c0 17.382813-14.089843 31.472657-31.472656 31.472657s-31.472656-14.089844-31.472656-31.472657c0-17.382812 14.089843-31.472656 31.472656-31.472656s31.472656 14.089844 31.472656 31.472656zm0 0" fill="#a0f0f2"/><path d="m232.289062 408.84375-157.597656-157.601562c-7.8125-7.8125-7.8125-20.476563 0-28.292969l125.015625-125.011719c7.8125-7.816406 20.480469-7.816406 28.292969 0l157.597656 157.597656c7.8125 7.8125 7.8125 20.480469 0 28.292969l-125.015625 125.015625c-7.8125 7.8125-20.480469 7.8125-28.292969 0zm0 0" fill="#eaeaea"/><path d="m115.179688 263.4375 125.015624-125.015625c7.8125-7.8125 20.480469-7.8125 28.292969 0l-40.488281-40.484375c-7.8125-7.816406-20.480469-7.816406-28.292969 0l-125.015625 125.011719c-7.8125 7.816406-7.8125 20.480469 0 28.292969l40.488282 40.488281c-7.8125-7.8125-7.8125-20.480469 0-28.292969zm0 0" fill="#d8d7da"/><path d="m160.785156 294.378906-71.152344-71.152344c-10.824218-10.824218-10.824218-28.375 0-39.199218l71.152344-71.152344c10.824219-10.824219 28.375-10.824219 39.199219 0l71.152344 71.152344c10.824219 10.824218 10.824219 28.375 0 39.199218l-71.152344 71.152344c-10.824219 10.824219-28.375 10.824219-39.199219 0zm0 0" fill="#ff929f"/><path d="m124.957031 219.355469 71.152344-71.152344c10.824219-10.824219 28.375-10.824219 39.199219 0l-35.324219-35.328125c-10.824219-10.824219-28.375-10.824219-39.199219 0l-71.152344 71.152344c-10.824218 10.824218-10.824218 28.375 0 39.199218l35.324219 35.324219c-10.824219-10.824219-10.824219-28.371093 0-39.195312zm0 0" fill="#ff737d"/><path d="m222.308594 355.902344c-9.824219-9.824219-9.824219-25.753906 0-35.578125l74.773437-74.773438c9.824219-9.824219 25.753907-9.824219 35.574219 0 9.824219 9.824219 9.824219 25.75 0 35.574219l-74.773438 74.777344c-9.824218 9.824218-25.753906 9.824218-35.574218 0zm0 0" fill="#ff929f"/></svg>