<svg viewBox="-74 0 512 512.001" xmlns="http://www.w3.org/2000/svg"><path d="m326.738281 476.75-281.53125-32.621094c-7.03125-.816406-12.769531-6.011718-14.273437-12.929687-1.507813-6.917969 1.550781-14.023438 7.609375-17.691407l176.867187-106.996093-102.28125-17.164063 5.480469-32.664062 146.320313 24.550781c6.828124 1.144531 12.222656 6.417969 13.523437 13.21875s-1.769531 13.695313-7.691406 17.277344l-173.671875 105.066406 233.460937 27.054687zm0 0" fill="#acabb1"/><path d="m13.398438 510.210938c-11.210938-4.796876-16.410157-17.777344-11.609376-28.988282l156.355469-365.21875c3.449219-8.058594 11.339844-13.316406 20.105469-13.390625h.191406c8.691406 0 16.582032 5.101563 20.144532 13.039063l163.886718 365.222656c4.996094 11.125.023438 24.191406-11.101562 29.183594-11.132813 4.996094-24.195313.019531-29.1875-11.105469l-143.265625-319.269531-136.535157 318.917968c-8.378906 18.230469-26.152343 12.824219-28.984374 11.609376zm0 0" fill="#d8d7da"/><path d="m178.441406 102.613281c-.0625 0-.128906 0-.191406 0-8.765625.074219-16.65625 5.332031-20.105469 13.390625l-76.171875 177.925782h48.035156l48.910157-114.246094 51.265625 114.246094h48.402344l-80-178.277344c-3.5625-7.941406-11.453126-13.039063-20.144532-13.039063zm0 0" fill="#c6c5ca"/><path d="m198.585938 115.652344c-3.5625-7.9375-11.453126-13.039063-20.144532-13.039063-.0625 0-.128906 0-.191406 0-8.765625.074219-16.65625 5.332031-20.105469 13.390625l-48.835937 114.066406h140.621094zm0 0" fill="#eaeaea"/><path d="m178.441406 102.613281c-.0625 0-.128906 0-.191406 0-8.765625.074219-16.65625 5.332031-20.105469 13.390625l-34.5625 80.726563c46.226563-1.050781 76.746094-15.355469 96.792969-32.523438l-21.789062-48.554687c-3.5625-7.941406-11.453126-13.039063-20.144532-13.039063zm0 0" fill="#d8d7da"/><path d="m87.421875 65.289062c-3.636719-2.105468-4.882813-6.765624-2.773437-10.402343 19.589843-33.855469 55.980468-54.886719 94.972656-54.886719 38.988281 0 75.378906 21.03125 94.96875 54.886719 2.105468 3.640625.863281 8.296875-2.773438 10.402343-3.640625 2.105469-8.296875.859376-10.402344-2.777343-16.878906-29.167969-48.21875-47.289063-81.792968-47.289063-33.574219 0-64.648438 18.277344-81.796875 47.289063-3.425781 5.792969-9.199219 3.472656-10.402344 2.777343zm0 0" fill="#ffcd00"/><path d="m116.738281 80.445312c-3.59375-2.1875-4.734375-6.867187-2.546875-10.460937 14.039063-23.082031 38.5-36.863281 65.429688-36.863281 26.414062 0 50.628906 13.382812 64.769531 35.800781 2.242187 3.558594 1.179687 8.257813-2.375 10.5-3.558594 2.242187-8.257813 1.179687-10.5-2.375-11.339844-17.972656-30.738281-28.703125-51.898437-28.703125-21.570313 0-41.488282 10.855469-52.421876 29.550781-3.203124 5.476563-9.222656 3.300781-10.457031 2.550781zm0 0" fill="#ffcd00"/><path d="m215.417969 109.648438c0 19.769531-16.027344 35.796874-35.796875 35.796874-19.773438 0-35.800782-16.027343-35.800782-35.796874 0-19.769532 16.027344-35.796876 35.800782-35.796876 19.769531 0 35.796875 16.027344 35.796875 35.796876zm0 0" fill="#ffeb99"/><path d="m177.507812 109.648438c0-13.679688 7.679688-25.566407 18.960938-31.59375-5.023438-2.679688-10.761719-4.203126-16.851562-4.203126-19.769532 0-35.796876 16.027344-35.796876 35.796876 0 19.769531 16.027344 35.796874 35.796876 35.796874 6.089843 0 11.828124-1.519531 16.851562-4.203124-11.28125-6.027344-18.960938-17.910157-18.960938-31.59375zm0 0" fill="#ffde55"/></svg>