<svg viewBox="-116 0 511 511.99996" xmlns="http://www.w3.org/2000/svg"><path d="m213.886719 512h-148.777344c-25.957031 0-46.996094-21.039062-46.996094-46.992188v-276.699218h242.769531v276.699218c0 25.953126-21.042968 46.992188-46.996093 46.992188zm0 0" fill="#898890"/><path d="m18.113281 188.308594v276.699218c0 25.953126 21.039063 46.992188 46.996094 46.992188h78.511719c-18.691406-9.765625-16.523438-38.191406-16.523438-38.191406v-156.28125c0-32.574219 23.402344-60.40625 55.472656-66.09375 50.347657-8.933594 78.3125-27.847656 78.3125-27.847656v-35.277344zm0 0" fill="#73737a"/><path d="m18.113281 188.308594s4.183594-67.609375 50.039063-101.652344c8.339844-6.1875 20.207031-1.386719 22.046875 8.832031 1.34375 7.460938 3.972656 15.980469 8.988281 23.789063 4.273438 6.652344 14.433594 5.226562 16.792969-2.324219 6.078125-19.433594 13.515625-56.339844 2.839843-99.660156-2.78125-11.285157 8.71875-20.839844 19.289063-16.007813 41.324219 18.890625 114.957031 68.871094 122.773437 187.023438zm0 0" fill="#ffc477"/><path d="m178.964844 87.960938c-4.898438-6.671876-15.421875-4.207032-16.773438 3.960937-2.667968 16.136719-8.679687 38.933594-21.855468 58.476563-9.75 14.464843-24.027344 22.472656-31.59375 37.910156h108.65625c-7.058594-49.742188-25.269532-82.425782-38.433594-100.347656zm0 0" fill="#ff7956"/><path d="m259.941406 208.539062h-239.210937c-11.125 0-20.230469-9.101562-20.230469-20.230468 0-11.125 9.105469-20.230469 20.230469-20.230469h239.210937c11.128906 0 20.230469 9.105469 20.230469 20.230469 0 11.128906-9.105469 20.230468-20.230469 20.230468zm0 0" fill="#c6c5ca"/><path d="m63.929688 188.308594c0-11.125 9.105468-20.230469 20.230468-20.230469h-63.429687c-11.125 0-20.230469 9.105469-20.230469 20.230469 0 11.128906 9.105469 20.230468 20.230469 20.230468h63.429687c-11.125 0-20.230468-9.101562-20.230468-20.230468zm0 0" fill="#acabb1"/><path d="m259.941406 434.449219h-239.210937c-11.125 0-20.230469-9.105469-20.230469-20.230469 0-11.128906 9.105469-20.230469 20.230469-20.230469h239.210937c11.128906 0 20.230469 9.101563 20.230469 20.230469 0 11.125-9.105469 20.230469-20.230469 20.230469zm0 0" fill="#c6c5ca"/><path d="m90.15625 353.171875h98.679688c11.90625 0 19.003906-13.265625 12.402343-23.171875l-49.339843-74.007812c-5.898438-8.851563-18.902344-8.851563-24.800782 0l-49.339844 74.007812c-6.605468 9.90625.496094 23.171875 12.398438 23.171875zm0 0" fill="#ffeb99"/><path d="m63.929688 414.21875c0-11.128906 9.105468-20.230469 20.230468-20.230469h-63.429687c-11.125 0-20.230469 9.101563-20.230469 20.230469 0 11.125 9.105469 20.230469 20.230469 20.230469h63.429687c-11.125 0-20.230468-9.105469-20.230468-20.230469zm0 0" fill="#acabb1"/><path d="m151.898438 255.992188c-5.898438-8.851563-18.902344-8.851563-24.800782 0l-49.339844 74.007812c-6.605468 9.90625.496094 23.171875 12.398438 23.171875h36.941406v-35.644531c0-22.65625 11.328125-43.007813 29.011719-55.21875zm0 0" fill="#ffde55"/></svg>