<svg viewBox="1 -13 511.99895 511" xmlns="http://www.w3.org/2000/svg"><path d="m343.753906 211.804688c-8.300781-4.792969-11.167968-15.507813-6.375-23.808594l103.292969-178.800782c4.792969-8.296874 15.511719-11.167968 23.808594-6.371093 8.300781 4.792969 11.171875 15.507812 6.375 23.808593l-103.289063 178.800782c-4.796875 8.300781-15.511718 11.167968-23.8125 6.371094zm0 0" fill="#d8d7da"/><path d="m414.832031 211.804688c8.300781-4.792969 11.167969-15.507813 6.371094-23.808594l-103.292969-178.800782c-4.792968-8.296874-15.507812-11.167968-23.808594-6.371093-8.300781 4.792969-11.167968 15.507812-6.375 23.808593l103.292969 178.800782c4.792969 8.300781 15.507813 11.167968 23.8125 6.371094zm0 0" fill="#d8d7da"/><path d="m340.460938 48.230469c-10.75 4.964843-20.402344 11.925781-28.46875 20.40625l79.027343 136.796875c4.792969 8.300781 15.507813 11.167968 23.808594 6.375 8.300781-4.796875 11.171875-15.511719 6.375-23.8125zm0 0" fill="#c6c5ca"/><path d="m418.121094 48.230469c10.753906 4.964843 20.402344 11.925781 28.46875 20.40625l-79.023438 136.796875c-4.796875 8.300781-15.511718 11.167968-23.8125 6.375-8.300781-4.796875-11.167968-15.511719-6.375-23.8125zm0 0" fill="#c6c5ca"/><path d="m441.300781 132.628906c0 34.246094-27.761719 62.007813-62.007812 62.007813-34.246094 0-62.007813-27.761719-62.007813-62.007813s27.761719-62.007812 62.007813-62.007812c34.246093 0 62.007812 27.761718 62.007812 62.007812zm0 0" fill="#eaeaea"/><path d="m364.925781 132.628906c0-25.804687 15.773438-47.921875 38.195313-57.261718-7.332032-3.054688-15.386719-4.746094-23.828125-4.746094-34.246094 0-62.007813 27.765625-62.007813 62.007812 0 34.246094 27.761719 62.007813 62.007813 62.007813 8.441406 0 16.496093-1.6875 23.828125-4.742188-22.421875-9.339843-38.195313-31.460937-38.195313-57.265625zm0 0" fill="#d8d7da"/><path d="m467.875 485.390625h-423.75c-24.371094 0-44.125-19.757813-44.125-44.125v-284.082031c0-24.367188 19.753906-44.125 44.125-44.125h423.75c24.371094 0 44.125 19.757812 44.125 44.125v284.082031c0 24.367187-19.753906 44.125-44.125 44.125zm0 0" fill="#dd9f80"/><path d="m113.351562 441.265625v-284.082031c0-24.367188 19.753907-44.125 44.121094-44.125h-113.347656c-24.371094 0-44.125 19.757812-44.125 44.125v284.082031c0 24.367187 19.753906 44.125 44.125 44.125h113.347656c-24.367187 0-44.121094-19.757813-44.121094-44.125zm0 0" fill="#c68d6d"/><path d="m341.058594 440.980469h-279.023438c-10.050781 0-18.203125-8.148438-18.203125-18.203125v-248.710938c0-10.054687 8.152344-18.203125 18.203125-18.203125h279.023438c10.054687 0 18.203125 8.148438 18.203125 18.203125v248.710938c0 10.054687-8.148438 18.203125-18.203125 18.203125zm0 0" fill="#92d8ff"/><path d="m83.957031 422.777344v-248.710938c0-10.054687 8.148438-18.203125 18.203125-18.203125h-40.125c-10.050781 0-18.203125 8.148438-18.203125 18.203125v248.710938c0 10.054687 8.148438 18.203125 18.203125 18.203125h40.125c-10.054687 0-18.203125-8.148438-18.203125-18.203125zm0 0" fill="#72cef7"/><path d="m453.761719 348.203125h-33.914063c-16.707031 0-30.253906-13.542969-30.253906-30.25v-131.839844c0-16.707031 13.546875-30.25 30.253906-30.25h33.914063c16.707031 0 30.25 13.542969 30.25 30.25v131.839844c0 16.707031-13.542969 30.25-30.25 30.25zm0 0" fill="#ffc477"/><path d="m462.238281 214.128906c0 14.046875-11.386719 25.4375-25.433593 25.4375-14.046876 0-25.4375-11.390625-25.4375-25.4375s11.390624-25.433594 25.4375-25.433594c14.046874 0 25.433593 11.386719 25.433593 25.433594zm0 0" fill="#898890"/><path d="m462.238281 289.9375c0 14.046875-11.386719 25.433594-25.433593 25.433594-14.046876 0-25.4375-11.386719-25.4375-25.433594 0-14.050781 11.390624-25.4375 25.4375-25.4375 14.046874 0 25.433593 11.386719 25.433593 25.4375zm0 0" fill="#898890"/><path d="m426.933594 386.105469c0 10.3125-8.359375 18.671875-18.671875 18.671875-10.308594 0-18.667969-8.359375-18.667969-18.671875 0-10.308594 8.359375-18.667969 18.667969-18.667969 10.3125 0 18.671875 8.359375 18.671875 18.667969zm0 0" fill="#ffeb99"/><path d="m484.015625 386.105469c0 10.3125-8.359375 18.671875-18.671875 18.671875-10.308594 0-18.667969-8.359375-18.667969-18.671875 0-10.308594 8.359375-18.667969 18.667969-18.667969 10.3125 0 18.671875 8.359375 18.671875 18.667969zm0 0" fill="#ffeb99"/><path d="m201.546875 206.300781c-37.460937 0-67.832031 30.367188-67.832031 67.828125h135.664062c0-37.460937-30.371094-67.828125-67.832031-67.828125zm0 0" fill="#d7f3ff"/><path d="m223.929688 210.078125c-7-2.445313-14.546876-3.78125-22.382813-3.78125-37.460937 0-67.832031 30.371094-67.832031 67.832031h44.71875c0-29.625 19.023437-54.808594 45.496094-64.050781zm0 0" fill="#bdebff"/><path d="m237.203125 274.128906h-71.3125l-42.359375 93.980469c-7.753906 17.199219 4.828125 36.664063 23.691406 36.664063h108.648438c18.863281 0 31.445312-19.464844 23.691406-36.664063zm0 0" fill="#ffeb99"/><path d="m291.496094 298.421875h-179.898438c-11.199218 0-20.363281-9.164063-20.363281-20.367187 0-11.199219 9.164063-20.363282 20.363281-20.363282h179.898438c11.199218 0 20.363281 9.164063 20.363281 20.363282.003906 11.203124-9.164063 20.367187-20.363281 20.367187zm0 0" fill="#ff737d"/><path d="m145.6875 278.054688c0-11.199219 9.164062-20.363282 20.363281-20.363282h-54.453125c-11.199218 0-20.363281 9.164063-20.363281 20.363282 0 11.203124 9.164063 20.367187 20.363281 20.367187h54.453125c-11.199219 0-20.363281-9.164063-20.363281-20.367187zm0 0" fill="#f46262"/></svg>