<svg viewBox="0 0 512.00116 512" xmlns="http://www.w3.org/2000/svg"><path d="m124.25 239.160156 148.589844 148.589844-23.539063 23.539062-148.589843-148.589843zm0 0" fill="#ffeb99"/><path d="m72.757812 290.652344 148.585938 148.589844-23.535156 23.539062-148.589844-148.589844zm0 0" fill="#ffc477"/><path d="m316.972656 46.433594 148.589844 148.589844-23.539062 23.539062-148.589844-148.589844zm0 0" fill="#ffeb99"/><path d="m265.480469 97.925781 148.589843 148.589844-23.539062 23.539063-148.589844-148.589844zm0 0" fill="#ffc477"/><path d="m293.433594 69.976562 60.320312 60.324219c7.925782-8.628906 16.039063-16.4375 23.777344-23.304687l-60.558594-60.558594zm0 0" fill="#ffde55"/><path d="m241.941406 121.46875 70.644532 70.644531c4.5-10.738281 10.148437-20.960937 16.511718-30.566406l-63.617187-63.617187zm0 0" fill="#ffa748"/><path d="m221.347656 439.246094-60.324218-60.320313c-7.925782 8.628907-16.035157 16.4375-23.773438 23.300781l60.554688 60.558594zm0 0" fill="#ffa748"/><path d="m272.835938 387.753906-70.644532-70.644531c-4.496094 10.742187-10.148437 20.960937-16.511718 30.566406l63.617187 63.617188zm0 0" fill="#ffde55"/><path d="m231.886719 219.871094 62.671875 20.1875c44 14.171875 90.867187 3.4375 122.320312-28.011719l47.894532-47.894531c10.429687-10.433594 27.765624-10.003906 38.722656.949218 10.957031 10.957032 11.382812 28.296876.953125 38.726563l-47.894531 47.894531c-45.367188 45.363282-112.972657 60.847656-176.4375 40.40625l-62.675782-20.183594c-43.996094-14.171874-90.867187-3.441406-122.316406 28.011719l-47.894531 47.894531c-10.433594 10.429688-27.769531 10.003907-38.726563-.953124-10.957031-10.957032-11.382812-28.292969-.953125-38.722657l47.898438-47.898437c45.367187-45.363282 112.972656-60.847656 176.4375-40.40625zm0 0" fill="#7de2e2"/><path d="m335.316406 246.191406c-13.503906.21875-27.265625-1.785156-40.757812-6.132812l-62.671875-20.1875c-23.085938-7.433594-46.71875-10.117188-69.632813-8.335938 1.886719 12.089844 14.429688 54.277344 14.429688 54.277344 13.503906-.21875 27.269531 1.785156 40.761718 6.132812l62.671876 20.183594c23.085937 7.4375 46.71875 10.117188 69.632812 8.339844-1.890625-12.089844-14.433594-54.277344-14.433594-54.277344zm0 0" fill="#66d3d0"/><path d="m292.128906 280.117188-20.1875-62.675782c-14.167968-43.996094-3.4375-90.867187 28.015625-122.316406l47.894531-47.894531c10.429688-10.433594 10.003907-27.769531-.953124-38.726563-10.957032-10.957031-28.292969-11.378906-38.722657-.949218l-47.894531 47.894531c-45.367188 45.363281-60.851562 112.96875-40.410156 176.4375l20.1875 62.671875c14.171875 44 3.4375 90.867187-28.011719 122.316406l-47.894531 47.898438c-10.433594 10.429687-10.003906 27.765624.949218 38.722656 10.957032 10.957031 28.292969 11.382812 38.726563.953125l47.894531-47.894531c45.363282-45.367188 60.847656-112.972657 40.40625-176.4375zm0 0" fill="#a0f0f2"/></svg>