<svg viewBox="0 0 511.99974 511.99974" xmlns="http://www.w3.org/2000/svg"><path d="m66.902344 504.5-59.402344-59.402344c-10-10-10-26.367187 0-36.371094 10-10 26.367188-10 36.371094 0l59.402344 59.402344c10 10.003906 10 26.367188 0 36.371094-10.003907 10-26.367188 10-36.371094 0zm0 0" fill="#d7f3ff"/><path d="m485.917969 154.554688-31.664063 291.453124c-3.941406 36.292969-48.15625 51.867188-73.972656 26.050782l-105.933594-105.933594zm0 0" fill="#acabb1"/><path d="m344.113281 435.890625-69.765625-69.765625 211.570313-211.570312-11.585938 106.632812zm0 0" fill="#898890"/><path d="m444.992188 468.621094c-15.210938 18.824218-45.210938 22.9375-64.710938 3.4375l-105.933594-105.933594 34.074219-34.074219zm0 0" fill="#73737a"/><path d="m344.113281 435.890625-69.765625-69.765625 34.074219-34.074219 64.792969 64.792969zm0 0" fill="#626268"/><path d="m357.445312 26.082031-291.453124 31.664063c-36.296876 3.941406-51.867188 48.15625-26.050782 73.972656l105.933594 105.933594zm0 0" fill="#acabb1"/><path d="m76.109375 167.886719 69.765625 69.765625 211.570312-211.570313-106.632812 11.585938zm0 0" fill="#898890"/><path d="m43.378906 67.007812c-18.824218 15.210938-22.9375 45.210938-3.4375 64.710938l105.933594 105.933594 34.074219-34.074219zm0 0" fill="#73737a"/><path d="m76.109375 167.886719 69.765625 69.765625 34.074219-34.074219-64.792969-64.792969zm0 0" fill="#626268"/><path d="m222.425781 375.757812-86.183593-86.183593c-17.304688-17.300781-17.304688-45.355469 0-62.660157l190.449218-190.449218c25.152344-25.152344 59.855469-38.34375 95.363282-36.25l51.769531 3.054687c18.800781 1.109375 33.796875 16.105469 34.90625 34.90625l3.054687 51.773438c2.09375 35.503906-11.101562 70.207031-36.25 95.359375l-190.449218 190.449218c-17.304688 17.304688-45.359376 17.304688-62.660157 0zm0 0" fill="#c6c5ca"/><path d="m253.679688 345.457031-87.136719-87.136719 161.355469-161.359374c12.40625-12.40625 32.527343-12.40625 44.933593 0l42.207031 42.207031c12.40625 12.40625 12.40625 32.527343 0 44.933593zm0 0" fill="#acabb1"/><path d="m152.726562 210.429688-16.484374 16.484374c-17.304688 17.304688-17.304688 45.359376 0 62.660157l86.179687 86.183593c17.304687 17.304688 45.359375 17.304688 62.660156 0l16.488281-16.484374zm0 0" fill="#898890"/><path d="m152.71875 359.28125c-9.371094-9.375-9.371094-24.714844 0-34.085938l116.886719-116.886718c9.371093-9.371094 24.710937-9.371094 34.082031 0 9.375 9.375 9.375 24.714844 0 34.085937l-116.882812 116.886719c-9.371094 9.371094-24.710938 9.371094-34.085938 0zm0 0" fill="#eaeaea"/><path d="m145.210938 462.703125-95.914063-95.914063c-10.003906-10-10.003906-26.367187 0-36.367187 10-10 26.367187-10 36.367187 0l95.914063 95.914063c10 10 10 26.367187 0 36.367187-10 10.003906-26.367187 10.003906-36.367187 0zm0 0" fill="#d7f3ff"/><g fill="#bdebff"><path d="m86.925781 368.050781c10-10 26.367188-10 36.371094 0l-37.632813-37.628906c-10-10-26.367187-10-36.367187 0s-10 26.367187 0 36.367187l37.628906 37.632813c-10-10-10-26.367187 0-36.371094zm0 0"/><path d="m45.132812 446.359375c10-10 26.367188-10 36.367188 0l-37.628906-37.632813c-10-10-26.367188-10-36.371094 0-10 10.003907-10 26.371094 0 36.371094l37.632812 37.628906c-10.003906-10-10.003906-26.367187 0-36.367187zm0 0"/><path d="m479.492188 46.699219c-.246094-7.734375-6.457032-13.945313-14.191407-14.191407l-45.066406-1.441406c-4.835937-.285156-9.652344-.1875-14.414063.269532-9.464843.910156-13.601562 12.425781-6.878906 19.148437l62.574219 62.574219c6.722656 6.722656 18.242187 2.585937 19.152344-6.878906.457031-4.757813.550781-9.578126.265625-14.410157zm0 0"/></g></svg>